<svg width="472" height="268" viewBox="0 0 472 268" fill="none" xmlns="http://www.w3.org/2000/svg">
<rect width="472" height="268" rx="20" fill="#FE5E54"/>
<g clip-path="url(#clip0_256_116)">
<path d="M261.955 69.1539C261.177 69.8775 261.28 70.9193 261.033 71.8195C257.118 86.111 243.18 95.7477 228.289 94.4292C213.786 93.1451 201.829 81.5037 200.316 67.1973C198.555 50.5479 209.753 35.3877 225.613 32.9481C243.03 30.2692 258.08 40.6793 261.574 57.808C261.61 57.9869 261.824 58.1303 261.955 58.2901V69.1539ZM231.4 77.3033C234.419 77.3033 237.439 77.2252 240.455 77.333C242.23 77.3969 242.717 76.6217 242.567 75.0262C242.176 70.8526 240.498 67.2863 237.2 64.712C235.895 63.6935 235.998 63.1717 236.809 61.9605C238.497 59.4359 237.853 55.9919 235.542 54.0462C234.409 53.0854 232.972 52.5613 231.49 52.5678C230.008 52.5744 228.576 53.111 227.451 54.0818C225.045 56.1777 224.395 59.4875 226.24 62.0116C227.266 63.4163 226.807 63.9176 225.709 64.7964C222.486 67.3799 220.928 70.906 220.338 74.9239C220.079 76.6902 220.747 77.3955 222.572 77.3302C225.511 77.2271 228.457 77.3037 231.399 77.3033H231.4ZM217.372 58.4996C212.41 62.1728 210.569 67.3849 210.311 69.9414C210.141 71.6306 210.685 72.5272 212.528 72.4222C213.883 72.3509 215.24 72.3509 216.595 72.4222C217.817 72.481 218.541 72.0419 218.971 70.8472C219.807 68.3375 221.186 66.0455 223.009 64.1363C223.746 63.3935 223.717 62.6174 223.454 61.6606C222.46 58.0308 223.053 54.7799 226.076 52.2699C227.28 51.2701 227.024 50.4356 226.063 49.4723C222.965 46.368 217.305 47.5869 215.796 51.692C214.833 54.306 215.603 56.5247 217.37 58.4996H217.372ZM248.023 72.4057C249.107 72.4057 249.787 72.4276 250.466 72.4016C252.563 72.3208 253.216 71.5908 252.702 69.5255C251.74 65.6583 250.208 62.0189 246.879 59.5839C245.632 58.6708 245.871 58.2266 246.6 57.1972C248.409 54.6406 247.706 50.9638 245.173 48.9309C243.003 47.1902 239.061 47.4536 237.046 49.4226C236.071 50.3749 235.786 51.193 236.966 52.2389C239.923 54.8579 240.785 58.1143 239.522 61.8445C239.129 63.0041 239.578 63.7163 240.293 64.4467C241.629 65.8103 242.82 67.3589 243.338 69.1525C244.123 71.8793 245.621 73.0508 248.022 72.4057H248.023Z" fill="#312F2F"/>
<path d="M96.832 56.0415C97.9038 60.4567 97.992 65.0555 97.0904 69.5089C91.7332 69.5304 86.376 69.5587 81.0151 69.566C79.8938 69.566 78.673 69.6372 78.7311 71.0597C78.7833 72.333 79.9687 72.317 80.9924 72.3175C86.1226 72.3207 91.2565 72.3485 96.3889 72.3672C92.4977 86.2546 78.6575 95.6667 63.9388 94.4346C49.4753 93.2239 37.3966 81.5095 35.9048 67.2455C33.8205 47.3206 49.2851 31.2396 69.2833 32.5362C80.9543 33.2931 92.1767 41.8903 95.7515 52.8135C90.8505 52.8308 85.9495 52.8461 81.0487 52.8591C79.9877 52.8591 78.6689 52.6975 78.7224 54.2145C78.7719 55.6065 80.0245 55.6037 81.1259 55.6006C85.5751 55.5859 90.0243 55.5876 94.4735 55.6056C95.273 55.612 96.152 55.3344 96.832 56.0415ZM61.075 75.0365C64.5422 75.0365 68.0103 74.9804 71.4757 75.0612C73.0715 75.0986 73.6095 74.4782 73.5564 72.931C73.4061 68.4822 71.2346 65.2336 67.6235 62.8875C66.5879 62.2142 66.0627 61.9147 66.9298 60.5734C68.9669 57.4234 68.3077 53.8169 65.5319 51.4398C62.8279 49.123 59.4324 49.0869 56.6762 51.3458C53.8056 53.6987 53.1159 57.3805 55.1549 60.652C55.8685 61.7969 55.6856 62.1302 54.6255 62.793C50.8986 65.1213 48.5918 68.3398 48.5873 72.9548C48.5873 74.5152 49.0894 75.1004 50.6757 75.0639C54.1393 74.9785 57.6078 75.0365 61.075 75.0365ZM87.0266 64.1033C89.2126 64.1033 91.3981 64.0987 93.5841 64.1055C94.6111 64.1083 95.5041 63.6992 95.5363 62.6543C95.5713 61.4641 94.6283 61.0464 93.5169 61.0473C89.2191 61.051 84.9226 61.051 80.6274 61.0473C79.5982 61.0473 78.7206 61.465 78.6784 62.5041C78.633 63.7175 79.5978 64.1019 80.6964 64.1019C82.806 64.1062 84.9161 64.1066 87.0266 64.1033Z" fill="#312F2F"/>
<path d="M153.745 65.4647C140.946 65.8678 128.937 68.9945 118.044 75.9286C116.569 76.8677 115.459 78.2213 114.203 79.4096C113.646 79.9359 113.094 80.9033 112.136 80.1679C111.261 79.4954 111.501 78.5814 111.938 77.7145C113.401 74.8151 115.699 72.6311 118.203 70.6841C126.13 64.516 135.345 61.4222 145.097 59.7084C157.546 57.5203 169.5 59.3432 181.044 64.2996C181.445 64.4722 181.858 64.9063 182.273 64.5503C182.86 64.0481 182.225 63.6135 182.038 63.1734C180.552 59.6582 177.849 56.9843 175.651 53.9617C174.792 52.7807 173.14 51.3864 174.657 50.1424C176.046 49.0011 177.119 50.8984 178.052 51.8635C181.722 55.6609 184.43 60.2224 187.803 64.2636C189.538 66.3421 188.683 68.7749 186.199 69.7719C182.634 71.2027 178.844 71.3602 175.115 71.7455C167.632 72.5188 160.229 73.9345 152.707 74.3846C150.82 74.4974 148.944 74.5567 147.06 74.486C146.453 74.4632 145.752 74.4508 145.584 73.7254C145.392 72.8927 146.034 72.5718 146.691 72.2814C150.607 70.5526 154.852 70.3312 158.979 69.5724C161.049 69.1917 163.148 68.9548 165.199 68.5051C165.9 68.3517 167.193 68.4453 167.06 67.3391C166.956 66.4535 165.812 66.4645 165.004 66.3284C161.279 65.7462 157.515 65.4574 153.745 65.4647Z" fill="#312F2F"/>
<path d="M96.8321 56.0412C96.1511 55.3341 95.273 55.6121 94.4745 55.608C90.0253 55.5849 85.5761 55.5832 81.1269 55.603C80.0255 55.6062 78.7729 55.6089 78.7234 54.217C78.6698 52.7 79.9887 52.8634 81.0497 52.8616C85.9508 52.8515 90.8517 52.8363 95.7525 52.8159C97.8409 52.8296 99.9293 52.8593 102.018 52.8502C103.027 52.846 103.872 53.0592 103.815 54.2745C103.766 55.3113 102.99 55.5203 102.082 55.6007C100.333 55.7536 98.5151 55.1255 96.8321 56.0412Z" fill="#FE5E54"/>
<path d="M96.389 72.3661C91.2565 72.3474 86.1245 72.3204 80.9925 72.3163C79.9687 72.3163 78.7833 72.3319 78.7311 71.0586C78.673 69.6361 79.8938 69.5662 81.0152 69.5649C86.3724 69.5576 91.7296 69.5293 97.0904 69.5078C98.7394 69.5343 100.388 69.5704 102.039 69.5868C103.058 69.5964 103.89 69.8858 103.816 71.0824C103.749 72.1566 102.913 72.315 102.015 72.315C100.139 72.3204 98.2636 72.3492 96.389 72.3661Z" fill="#FE5E54"/>
<path d="M231.399 77.3039C228.457 77.3039 225.511 77.2272 222.571 77.3318C220.746 77.3971 220.078 76.6926 220.337 74.9254C220.928 70.9081 222.484 67.3814 225.708 64.798C226.806 63.9178 227.265 63.4165 226.239 62.0132C224.394 59.4891 225.044 56.1793 227.45 54.0834C228.575 53.1126 230.007 52.5759 231.489 52.5694C232.972 52.5629 234.408 53.0869 235.541 54.0478C237.852 55.9935 238.496 59.4375 236.808 61.9621C235.998 63.1732 235.894 63.6968 237.199 64.7135C240.497 67.2878 242.175 70.8542 242.566 75.0277C242.716 76.6255 242.229 77.3984 240.454 77.3345C237.44 77.2254 234.418 77.3035 231.399 77.3039ZM231.569 74.7168C233.831 74.7168 236.094 74.6661 238.354 74.7346C239.832 74.7803 240.051 74.09 239.608 72.9227C238.773 70.7268 237.774 68.6223 235.983 67.0103C233.402 64.6861 230.626 64.4282 227.957 66.3191C225.718 67.9064 224.408 70.1863 223.505 72.7049C223.036 74.0115 223.278 74.8446 225.013 74.7465C227.192 74.6232 229.383 74.7168 231.569 74.7168ZM235.173 58.8563C235.2 57.0366 233.442 55.2115 231.617 55.1644C230.671 55.1408 229.753 55.4947 229.065 56.1489C228.376 56.8031 227.973 57.7045 227.944 58.6564C227.915 59.1449 227.987 59.6341 228.156 60.093C228.325 60.5519 228.587 60.9704 228.926 61.3219C229.264 61.6734 229.672 61.9502 230.123 62.1348C230.573 62.3193 231.057 62.4076 231.544 62.3939C232.491 62.4053 233.403 62.0398 234.083 61.3771C234.763 60.7144 235.155 59.8082 235.173 58.8563Z" fill="#FE5E54"/>
<path d="M217.37 58.4996C215.603 56.5246 214.833 54.3059 215.795 51.6896C217.303 47.5846 222.964 46.3661 226.062 49.47C227.023 50.4333 227.278 51.2678 226.074 52.2676C223.051 54.7784 222.458 58.0284 223.453 61.6582C223.716 62.6169 223.745 63.393 223.007 64.1339C221.184 66.0431 219.805 68.3351 218.969 70.8448C218.539 72.0395 217.816 72.4787 216.593 72.4198C215.239 72.3486 213.881 72.3486 212.527 72.4198C210.683 72.5248 210.14 71.6287 210.31 69.9391C210.567 67.3848 212.409 62.1727 217.37 58.4996ZM214.732 69.919C215.659 69.9395 216.485 69.9697 216.899 68.9941C217.777 66.838 218.985 64.8331 220.478 63.052C220.743 62.7239 220.879 62.3093 220.859 61.8872C220.84 61.4651 220.667 61.0649 220.373 60.763C219.713 59.9828 218.934 60.7511 218.403 61.1173C215.906 62.8356 214.396 65.2415 213.46 68.1294C212.95 69.698 213.437 70.0281 214.732 69.919ZM217.97 53.9594C217.99 54.3071 218.053 54.651 218.156 54.9834C218.544 55.8965 219.064 56.9784 220.063 57.0072C220.928 57.0314 220.623 55.7823 220.971 55.1555C221.444 54.3064 221.861 53.4244 222.275 52.5433C222.567 51.9206 223.764 51.5034 223.153 50.7464C222.51 49.948 221.374 50.0215 220.419 50.4269C219.695 50.6845 219.069 51.1638 218.63 51.7973C218.19 52.4309 217.959 53.187 217.969 53.9594H217.97Z" fill="#FE5E54"/>
<path d="M248.022 72.406C245.621 73.0501 244.123 71.8796 243.336 69.1528C242.818 67.3591 241.627 65.8106 240.291 64.447C239.576 63.7165 239.126 63.0025 239.519 61.8448C240.783 58.1145 239.921 54.86 236.964 52.2391C235.784 51.1932 236.069 50.3751 237.044 49.4228C239.06 47.4538 243.002 47.1904 245.171 48.9312C247.704 50.964 248.407 54.6422 246.598 57.1974C245.869 58.2269 245.63 58.6715 246.877 59.5841C250.206 62.0192 251.735 65.6586 252.699 69.5258C253.213 71.5929 252.56 72.3229 250.463 72.4018C249.786 72.4279 249.106 72.406 248.022 72.406ZM248.109 69.9074C249.409 70.0667 249.959 69.7061 249.551 68.2858C248.696 65.3057 247.209 62.7889 244.542 61.1185C243.991 60.7729 243.221 59.9142 242.635 60.6428C242.083 61.3275 241.74 62.294 242.65 63.265C244.088 64.7924 245.205 66.5957 245.935 68.5671C246.347 69.691 247.012 70.1055 248.109 69.9074ZM245.116 53.9524C245.187 51.8981 242.901 49.8711 240.913 50.2318C239.897 50.4144 239.369 50.7992 240.177 51.8584C241.085 53.0517 241.932 54.2779 242.151 55.8411C242.214 56.288 242.258 56.9883 242.913 57.0458C243.475 57.0951 243.837 56.6071 244.169 56.1994C244.696 55.5592 245.025 54.7782 245.116 53.9524Z" fill="#FE5E54"/>
<path d="M61.075 75.0361C57.6078 75.0361 54.1392 74.9782 50.6738 75.0622C49.0876 75.1005 48.5854 74.5143 48.5854 72.953C48.5918 68.338 50.8986 65.1196 54.6236 62.7913C55.6837 62.1284 55.8667 61.7952 55.153 60.6502C53.1141 57.3788 53.8037 53.6969 56.6744 51.344C59.4306 49.0852 62.8261 49.1212 65.5301 51.4381C68.3058 53.8165 68.9651 57.4185 66.928 60.5717C66.0608 61.913 66.5861 62.2124 67.6217 62.8858C71.2328 65.2332 73.4043 68.4819 73.5545 72.9293C73.6063 74.4764 73.0697 75.0969 71.4739 75.0594C68.0103 74.98 64.5422 75.0361 61.075 75.0361ZM60.8716 72.229C63.5774 72.229 66.2851 72.1747 68.9891 72.2523C70.3557 72.2911 70.7143 71.8701 70.3162 70.5554C69.2016 66.8877 65.0597 63.8646 61.04 63.866C56.8364 63.866 52.8362 66.9073 51.7221 70.769C51.3208 72.161 51.8642 72.2646 52.9793 72.2445C55.6075 72.1961 58.2384 72.229 60.8716 72.229ZM56.8364 56.8442C56.8796 57.949 57.3422 58.9951 58.129 59.7674C58.9158 60.5397 59.967 60.9795 61.0664 60.9963C63.2687 60.9807 65.3049 58.909 65.2227 56.768C65.1779 55.6987 64.7241 54.6882 63.9561 53.9474C63.188 53.2066 62.1651 52.7927 61.1009 52.7921C58.8004 52.757 56.8206 54.6387 56.8346 56.8442H56.8364Z" fill="#FE5E54"/>
<path d="M87.0266 64.1032C84.9158 64.1032 82.8052 64.1032 80.6947 64.1032C79.596 64.1032 78.6299 63.7165 78.6767 62.5054C78.7171 61.4663 79.5965 61.0472 80.6257 61.0486C84.9236 61.0532 89.2201 61.0532 93.5152 61.0486C94.6289 61.0486 95.5696 61.4654 95.5346 62.6555C95.5042 63.7005 94.6112 64.1096 93.5824 64.1068C91.3982 64.0982 89.2127 64.1032 87.0266 64.1032Z" fill="#FE5E54"/>
<path d="M231.569 74.7168C229.383 74.7168 227.192 74.6255 225.013 74.7464C223.278 74.8446 223.036 74.0114 223.505 72.7049C224.408 70.1862 225.718 67.9064 227.957 66.319C230.625 64.4281 233.402 64.6861 235.983 67.0102C237.774 68.6222 238.773 70.7268 239.608 72.9226C240.051 74.09 239.832 74.7798 238.354 74.7346C236.094 74.6661 233.831 74.7168 231.569 74.7168Z" fill="#312F2F"/>
<path d="M235.173 58.8563C235.155 59.8079 234.763 60.7137 234.084 61.3764C233.405 62.039 232.492 62.4048 231.546 62.3939C231.059 62.4075 230.575 62.3193 230.125 62.1347C229.674 61.9502 229.266 61.6733 228.928 61.3218C228.589 60.9703 228.327 60.5518 228.158 60.0929C227.989 59.6341 227.916 59.1448 227.945 58.6563C227.975 57.7048 228.378 56.8037 229.066 56.1495C229.754 55.4954 230.671 55.1413 231.617 55.1644C233.442 55.2114 235.2 57.0366 235.173 58.8563Z" fill="#312F2F"/>
<path d="M214.732 69.9191C213.439 70.0283 212.951 69.6982 213.461 68.1296C214.397 65.2416 215.91 62.8339 218.404 61.1174C218.935 60.7522 219.715 59.9829 220.374 60.7631C220.668 61.0651 220.841 61.4652 220.861 61.8874C220.88 62.3095 220.745 62.7241 220.48 63.0521C218.986 64.8333 217.779 66.8381 216.901 68.9942C216.484 69.9698 215.658 69.9397 214.732 69.9191Z" fill="#312F2F"/>
<path d="M217.969 53.9598C217.959 53.1873 218.191 52.4312 218.63 51.7977C219.07 51.1642 219.696 50.6851 220.42 50.4276C221.374 50.0218 222.509 49.9483 223.154 50.7472C223.765 51.5041 222.568 51.9214 222.275 52.5441C221.862 53.4252 221.445 54.3072 220.972 55.1563C220.622 55.7831 220.927 57.0321 220.064 57.008C219.065 56.9792 218.546 55.895 218.157 54.9842C218.053 54.6518 217.99 54.3077 217.969 53.9598Z" fill="#312F2F"/>
<path d="M248.109 69.9073C247.013 70.1054 246.347 69.6909 245.934 68.5651C245.204 66.5937 244.087 64.7905 242.648 63.2631C241.74 62.2921 242.082 61.3252 242.634 60.6408C243.221 59.9104 243.991 60.7709 244.541 61.1165C247.208 62.7888 248.694 65.3056 249.55 68.2839C249.959 69.706 249.409 70.0666 248.109 69.9073Z" fill="#312F2F"/>
<path d="M245.118 53.9539C245.025 54.779 244.695 55.5591 244.169 56.1995C243.837 56.6072 243.475 57.0952 242.913 57.0459C242.258 56.9884 242.214 56.2881 242.151 55.8411C241.932 54.2789 241.086 53.0518 240.177 51.8584C239.37 50.7993 239.897 50.4163 240.913 50.2319C242.901 49.8712 245.187 51.8995 245.118 53.9539Z" fill="#312F2F"/>
<path d="M60.8716 72.2292C58.2384 72.2292 55.6093 72.1972 52.9793 72.2443C51.8642 72.2644 51.3208 72.1607 51.7221 70.7688C52.8363 66.9071 56.8365 63.8671 61.04 63.8657C65.0598 63.8657 69.2016 66.8874 70.3162 70.5551C70.7157 71.8699 70.3557 72.2899 68.9891 72.252C66.2833 72.1735 63.5756 72.2292 60.8716 72.2292Z" fill="#312F2F"/>
<path d="M56.8347 56.8443C56.8206 54.6411 58.8005 52.7593 61.0991 52.7922C62.1634 52.7928 63.1863 53.2067 63.9543 53.9475C64.7223 54.6883 65.1761 55.6988 65.221 56.768C65.3031 58.9091 63.2688 60.9808 61.0646 60.9963C59.9652 60.9795 58.914 60.5398 58.1272 59.7675C57.3404 58.9952 56.8779 57.949 56.8347 56.8443Z" fill="#312F2F"/>
</g>
<path d="M38.616 140H36.184V128.512H43.608V130.624H38.616V133.52H42.824V135.616H38.616V140ZM52.8298 137.888V140H45.1018V128.512H52.7178V130.624H47.5338V133.04H52.2378V135.136H47.5338V137.888H52.8298ZM62.2151 140L61.3511 137.536H56.8871L56.0071 140H53.5591L57.8791 128.512H60.5351L64.8231 140H62.2151ZM59.1431 131.168L57.5751 135.6H60.6791L59.1431 131.168ZM70.1983 140H67.7663V130.704H64.1503V128.512H73.8303V130.704H70.1983V140ZM84.529 128.512V135.632C84.529 138.352 82.801 140.24 79.809 140.24C76.769 140.24 75.073 138.352 75.073 135.632V128.512H77.505V135.68C77.505 137.104 78.193 138.064 79.809 138.064C81.409 138.064 82.097 137.104 82.097 135.68V128.512H84.529ZM89.111 140H86.679V128.512H91.175C94.071 128.512 95.751 129.856 95.751 132.24C95.751 133.792 94.791 135.024 93.159 135.568L96.119 140H93.223L90.631 135.936H89.111V140ZM89.111 130.528V133.936H91.063C92.535 133.936 93.319 133.36 93.319 132.24C93.319 131.104 92.535 130.528 91.063 130.528H89.111ZM105.184 137.888V140H97.4561V128.512H105.072V130.624H99.8881V133.04H104.592V135.136H99.8881V137.888H105.184Z" fill="white"/>
<path d="M44.6 175L40.088 163.552V175H36.776V157.768H41.144L46.136 170.536L51.152 157.768H55.52V175H52.208V163.456L47.648 175H44.6ZM65.9296 175V173.416C65.0896 174.616 63.8176 175.24 62.0656 175.24C59.4016 175.24 57.6256 173.68 57.6256 171.28C57.6256 168.784 59.6416 167.44 63.3856 167.44C64.1056 167.44 64.7296 167.488 65.5216 167.584V166.816C65.5216 165.376 64.7056 164.536 63.3136 164.536C61.8736 164.536 61.0096 165.376 60.8896 166.816H57.8896C58.0816 163.864 60.2176 161.944 63.3136 161.944C66.6736 161.944 68.6416 163.792 68.6416 166.936V175H65.9296ZM60.7696 171.184C60.7696 172.264 61.5376 172.936 62.7856 172.936C64.4896 172.936 65.5216 172 65.5216 170.512V169.6C64.7296 169.48 64.1776 169.432 63.6016 169.432C61.7056 169.432 60.7696 170.032 60.7696 171.184ZM73.5804 175H69.8604L74.1804 168.472L70.1484 162.184H73.9884L76.6044 166.6L79.2444 162.184H82.7484L78.7644 168.592L83.0604 175H79.2684L76.3884 170.392L73.5804 175ZM88.2262 159.208C88.2262 160.336 87.3142 161.176 85.9942 161.176C84.6982 161.176 83.7862 160.336 83.7862 159.208C83.7862 158.032 84.6982 157.192 85.9942 157.192C87.3142 157.192 88.2262 158.032 88.2262 159.208ZM87.6982 175H84.3622V162.184H87.6982V175ZM93.5469 175H90.2109V162.184H93.2829V164.008C94.2189 162.712 95.4189 161.944 97.1229 161.944C98.8749 161.944 100.219 162.76 100.867 164.224C101.875 162.808 103.171 161.944 105.091 161.944C107.683 161.944 109.435 163.648 109.435 166.72V175H106.123V167.776C106.123 165.976 105.355 164.896 103.891 164.896C102.571 164.896 101.491 165.928 101.491 167.848V175H98.1789V167.776C98.1789 165.976 97.4109 164.896 95.9469 164.896C94.6029 164.896 93.5469 165.928 93.5469 167.848V175ZM115.697 159.208C115.697 160.336 114.785 161.176 113.465 161.176C112.169 161.176 111.257 160.336 111.257 159.208C111.257 158.032 112.169 157.192 113.465 157.192C114.785 157.192 115.697 158.032 115.697 159.208ZM115.169 175H111.833V162.184H115.169V175ZM128.05 175H117.13V172.312L123.73 165.064H117.106V162.184H127.858V164.92L121.234 172.096H128.05V175ZM135.262 175.216C131.422 175.216 128.854 172.552 128.854 168.544C128.854 164.728 131.518 161.944 135.214 161.944C139.27 161.944 141.958 165.232 141.358 169.408H132.262C132.478 171.496 133.486 172.648 135.19 172.648C136.654 172.648 137.638 171.928 138.022 170.656H141.334C140.614 173.56 138.382 175.216 135.262 175.216ZM135.142 164.392C133.582 164.392 132.598 165.4 132.31 167.296H137.83C137.734 165.52 136.726 164.392 135.142 164.392ZM155.665 171.76V174.664C154.849 175.072 154.081 175.24 153.097 175.24C150.457 175.24 148.801 173.728 148.801 170.848V165.04H146.209V162.184H148.801V158.392H152.113V162.184H155.785V165.04H152.113V170.08C152.113 171.568 152.785 172.168 153.985 172.168C154.609 172.168 155.185 172.024 155.665 171.76ZM160.702 168.016V175H157.366V157.768H160.702V163.864C161.59 162.688 162.694 161.944 164.374 161.944C166.942 161.944 168.718 163.624 168.718 166.72V175H165.406V167.848C165.406 165.952 164.662 164.896 163.15 164.896C161.83 164.896 160.702 165.952 160.702 168.016ZM176.704 175.216C172.864 175.216 170.296 172.552 170.296 168.544C170.296 164.728 172.96 161.944 176.656 161.944C180.712 161.944 183.4 165.232 182.8 169.408H173.704C173.92 171.496 174.928 172.648 176.632 172.648C178.096 172.648 179.08 171.928 179.464 170.656H182.776C182.056 173.56 179.824 175.216 176.704 175.216ZM176.584 164.392C175.024 164.392 174.04 165.4 173.752 167.296H179.272C179.176 165.52 178.168 164.392 176.584 164.392ZM192.474 168.784V175H189.138V162.184H192.21V164.656C193.146 163.024 195.138 162.04 197.202 162.04V165.496C194.37 165.28 192.474 165.952 192.474 168.784ZM203.953 175.216C200.113 175.216 197.545 172.552 197.545 168.544C197.545 164.728 200.209 161.944 203.905 161.944C207.961 161.944 210.649 165.232 210.049 169.408H200.953C201.169 171.496 202.177 172.648 203.881 172.648C205.345 172.648 206.329 171.928 206.713 170.656H210.025C209.305 173.56 207.073 175.216 203.953 175.216ZM203.833 164.392C202.273 164.392 201.289 165.4 201.001 167.296H206.521C206.425 165.52 205.417 164.392 203.833 164.392ZM219.702 171.76V174.664C218.886 175.072 218.118 175.24 217.134 175.24C214.494 175.24 212.838 173.728 212.838 170.848V165.04H210.246V162.184H212.838V158.392H216.15V162.184H219.822V165.04H216.15V170.08C216.15 171.568 216.822 172.168 218.022 172.168C218.646 172.168 219.222 172.024 219.702 171.76ZM229.203 169.6V162.184H232.515V175H229.467V173.32C228.771 174.448 227.355 175.24 225.723 175.24C223.155 175.24 221.283 173.68 221.283 170.344V162.184H224.619V169.696C224.619 171.496 225.507 172.288 226.851 172.288C228.051 172.288 229.203 171.328 229.203 169.6ZM238.392 168.784V175H235.056V162.184H238.128V164.656C239.064 163.024 241.056 162.04 243.12 162.04V165.496C240.288 165.28 238.392 165.952 238.392 168.784ZM247.733 168.016V175H244.397V162.184H247.469V164.008C248.405 162.736 249.725 161.944 251.405 161.944C253.973 161.944 255.749 163.624 255.749 166.72V175H252.437V167.848C252.437 165.952 251.693 164.896 250.181 164.896C248.861 164.896 247.733 165.952 247.733 168.016ZM268.391 175.24C264.671 175.24 261.887 172.312 261.887 168.592C261.887 164.848 264.671 161.944 268.391 161.944C272.111 161.944 274.895 164.848 274.895 168.592C274.895 172.312 272.111 175.24 268.391 175.24ZM268.391 172.288C270.047 172.288 271.463 170.968 271.463 168.592C271.463 166.216 270.047 164.92 268.391 164.92C266.735 164.92 265.319 166.216 265.319 168.592C265.319 170.968 266.735 172.288 268.391 172.288ZM287.667 162.184L282.963 175H279.315L274.587 162.184H278.187L281.235 171.208L284.307 162.184H287.667ZM293.797 175.216C289.957 175.216 287.389 172.552 287.389 168.544C287.389 164.728 290.053 161.944 293.749 161.944C297.805 161.944 300.493 165.232 299.893 169.408H290.797C291.013 171.496 292.021 172.648 293.725 172.648C295.189 172.648 296.173 171.928 296.557 170.656H299.869C299.149 173.56 296.917 175.216 293.797 175.216ZM293.677 164.392C292.117 164.392 291.133 165.4 290.845 167.296H296.365C296.269 165.52 295.261 164.392 293.677 164.392ZM305.008 168.784V175H301.672V162.184H304.744V164.656C305.68 163.024 307.672 162.04 309.736 162.04V165.496C306.904 165.28 305.008 165.952 305.008 168.784ZM327.116 162.184L320.876 179.632H317.252L319.076 174.856L314.036 162.184H317.636L320.852 170.968L323.78 162.184H327.116ZM333.343 175.24C329.623 175.24 326.839 172.312 326.839 168.592C326.839 164.848 329.623 161.944 333.343 161.944C337.063 161.944 339.847 164.848 339.847 168.592C339.847 172.312 337.063 175.24 333.343 175.24ZM333.343 172.288C334.999 172.288 336.415 170.968 336.415 168.592C336.415 166.216 334.999 164.92 333.343 164.92C331.687 164.92 330.271 166.216 330.271 168.592C330.271 170.968 331.687 172.288 333.343 172.288ZM349.32 169.6V162.184H352.632V175H349.584V173.32C348.888 174.448 347.472 175.24 345.84 175.24C343.272 175.24 341.4 173.68 341.4 170.344V162.184H344.736V169.696C344.736 171.496 345.624 172.288 346.968 172.288C348.168 172.288 349.32 171.328 349.32 169.6ZM358.509 168.784V175H355.173V162.184H358.245V164.656C359.181 163.024 361.173 162.04 363.237 162.04V165.496C360.405 165.28 358.509 165.952 358.509 168.784ZM40.352 191.208C40.352 192.336 39.44 193.176 38.12 193.176C36.824 193.176 35.912 192.336 35.912 191.208C35.912 190.032 36.824 189.192 38.12 189.192C39.44 189.192 40.352 190.032 40.352 191.208ZM39.824 207H36.488V194.184H39.824V207ZM45.6727 200.016V207H42.3367V194.184H45.4087V196.008C46.3447 194.736 47.6647 193.944 49.3447 193.944C51.9127 193.944 53.6887 195.624 53.6887 198.72V207H50.3767V199.848C50.3767 197.952 49.6327 196.896 48.1207 196.896C46.8007 196.896 45.6727 197.952 45.6727 200.016ZM67.1825 194.184L62.4785 207H58.8305L54.1025 194.184H57.7025L60.7505 203.208L63.8225 194.184H67.1825ZM73.313 207.216C69.473 207.216 66.905 204.552 66.905 200.544C66.905 196.728 69.569 193.944 73.265 193.944C77.321 193.944 80.009 197.232 79.409 201.408H70.313C70.529 203.496 71.537 204.648 73.241 204.648C74.705 204.648 75.689 203.928 76.073 202.656H79.385C78.665 205.56 76.433 207.216 73.313 207.216ZM73.193 196.392C71.633 196.392 70.649 197.4 70.361 199.296H75.881C75.785 197.52 74.777 196.392 73.193 196.392ZM92.0114 202.896C92.0114 205.584 89.9714 207.24 86.3234 207.24C82.6754 207.24 80.6354 205.488 80.3714 202.632H83.5634C83.5874 203.952 84.7154 204.792 86.3714 204.792C87.6674 204.792 88.6514 204.384 88.6514 203.472C88.6514 202.656 88.1234 202.32 86.8994 202.08L84.5954 201.648C82.2914 201.24 80.8994 199.968 80.8994 197.976C80.8994 195.6 82.9394 193.944 86.1314 193.944C89.3474 193.944 91.5554 195.648 91.7954 198.408H88.6034C88.4834 197.16 87.5474 196.392 86.1314 196.392C84.9074 196.392 84.0914 196.848 84.0914 197.664C84.0914 198.432 84.6194 198.744 85.7714 198.96L88.2434 199.416C90.7394 199.896 92.0114 201.048 92.0114 202.896ZM101.543 203.76V206.664C100.727 207.072 99.9592 207.24 98.9752 207.24C96.3352 207.24 94.6792 205.728 94.6792 202.848V197.04H92.0872V194.184H94.6792V190.392H97.9912V194.184H101.663V197.04H97.9912V202.08C97.9912 203.568 98.6632 204.168 99.8632 204.168C100.487 204.168 101.063 204.024 101.543 203.76ZM106.58 207H103.244V194.184H106.316V196.008C107.252 194.712 108.452 193.944 110.156 193.944C111.908 193.944 113.252 194.76 113.9 196.224C114.908 194.808 116.204 193.944 118.124 193.944C120.716 193.944 122.468 195.648 122.468 198.72V207H119.156V199.776C119.156 197.976 118.388 196.896 116.924 196.896C115.604 196.896 114.524 197.928 114.524 199.848V207H111.212V199.776C111.212 197.976 110.444 196.896 108.98 196.896C107.636 196.896 106.58 197.928 106.58 199.848V207ZM130.434 207.216C126.594 207.216 124.026 204.552 124.026 200.544C124.026 196.728 126.69 193.944 130.386 193.944C134.442 193.944 137.13 197.232 136.53 201.408H127.434C127.65 203.496 128.658 204.648 130.362 204.648C131.826 204.648 132.81 203.928 133.194 202.656H136.506C135.786 205.56 133.554 207.216 130.434 207.216ZM130.314 196.392C128.754 196.392 127.77 197.4 127.482 199.296H133.002C132.906 197.52 131.898 196.392 130.314 196.392ZM141.645 200.016V207H138.309V194.184H141.381V196.008C142.317 194.736 143.637 193.944 145.317 193.944C147.885 193.944 149.661 195.624 149.661 198.72V207H146.349V199.848C146.349 197.952 145.605 196.896 144.093 196.896C142.773 196.896 141.645 197.952 141.645 200.016ZM159.954 203.76V206.664C159.138 207.072 158.37 207.24 157.386 207.24C154.746 207.24 153.09 205.728 153.09 202.848V197.04H150.498V194.184H153.09V190.392H156.402V194.184H160.074V197.04H156.402V202.08C156.402 203.568 157.074 204.168 158.274 204.168C158.898 204.168 159.474 204.024 159.954 203.76ZM172.385 202.896C172.385 205.584 170.345 207.24 166.697 207.24C163.049 207.24 161.009 205.488 160.745 202.632H163.937C163.961 203.952 165.089 204.792 166.745 204.792C168.041 204.792 169.025 204.384 169.025 203.472C169.025 202.656 168.497 202.32 167.273 202.08L164.969 201.648C162.665 201.24 161.273 199.968 161.273 197.976C161.273 195.6 163.313 193.944 166.505 193.944C169.721 193.944 171.929 195.648 172.169 198.408H168.977C168.857 197.16 167.921 196.392 166.505 196.392C165.281 196.392 164.465 196.848 164.465 197.664C164.465 198.432 164.993 198.744 166.145 198.96L168.617 199.416C171.113 199.896 172.385 201.048 172.385 202.896ZM189.278 207L186.854 198.672L184.454 207H181.118L177.47 194.184H180.71L182.894 202.296L185.246 194.184H188.534L190.814 202.296L192.974 194.184H196.262L192.59 207H189.278ZM201.346 191.208C201.346 192.336 200.434 193.176 199.114 193.176C197.818 193.176 196.906 192.336 196.906 191.208C196.906 190.032 197.818 189.192 199.114 189.192C200.434 189.192 201.346 190.032 201.346 191.208ZM200.818 207H197.482V194.184H200.818V207ZM211.299 203.76V206.664C210.483 207.072 209.715 207.24 208.731 207.24C206.091 207.24 204.435 205.728 204.435 202.848V197.04H201.843V194.184H204.435V190.392H207.747V194.184H211.419V197.04H207.747V202.08C207.747 203.568 208.419 204.168 209.619 204.168C210.243 204.168 210.819 204.024 211.299 203.76ZM216.336 200.016V207H213V189.768H216.336V195.864C217.224 194.688 218.328 193.944 220.008 193.944C222.576 193.944 224.352 195.624 224.352 198.72V207H221.04V199.848C221.04 197.952 220.296 196.896 218.784 196.896C217.464 196.896 216.336 197.952 216.336 200.016ZM237.978 201.384H235.266V207H231.618V189.768H237.978C242.178 189.768 244.794 191.76 244.794 195.504C244.794 199.248 242.178 201.384 237.978 201.384ZM237.954 192.84H235.266V198.312H237.954C240.018 198.312 241.17 197.232 241.17 195.528C241.17 193.824 240.018 192.84 237.954 192.84ZM254.33 201.6V194.184H257.642V207H254.594V205.32C253.898 206.448 252.482 207.24 250.85 207.24C248.282 207.24 246.41 205.68 246.41 202.344V194.184H249.746V201.696C249.746 203.496 250.634 204.288 251.978 204.288C253.178 204.288 254.33 203.328 254.33 201.6ZM263.543 207H260.183V189.768H263.543V207ZM276.903 202.896C276.903 205.584 274.863 207.24 271.215 207.24C267.567 207.24 265.527 205.488 265.263 202.632H268.455C268.479 203.952 269.607 204.792 271.263 204.792C272.559 204.792 273.543 204.384 273.543 203.472C273.543 202.656 273.015 202.32 271.791 202.08L269.487 201.648C267.183 201.24 265.791 199.968 265.791 197.976C265.791 195.6 267.831 193.944 271.023 193.944C274.239 193.944 276.447 195.648 276.687 198.408H273.495C273.375 197.16 272.439 196.392 271.023 196.392C269.799 196.392 268.983 196.848 268.983 197.664C268.983 198.432 269.511 198.744 270.663 198.96L273.135 199.416C275.631 199.896 276.903 201.048 276.903 202.896ZM286.356 207V205.416C285.516 206.616 284.244 207.24 282.492 207.24C279.828 207.24 278.052 205.68 278.052 203.28C278.052 200.784 280.068 199.44 283.812 199.44C284.532 199.44 285.156 199.488 285.948 199.584V198.816C285.948 197.376 285.132 196.536 283.74 196.536C282.3 196.536 281.436 197.376 281.316 198.816H278.316C278.508 195.864 280.644 193.944 283.74 193.944C287.1 193.944 289.068 195.792 289.068 198.936V207H286.356ZM281.196 203.184C281.196 204.264 281.964 204.936 283.212 204.936C284.916 204.936 285.948 204 285.948 202.512V201.6C285.156 201.48 284.604 201.432 284.028 201.432C282.132 201.432 281.196 202.032 281.196 203.184ZM294.823 200.784V207H291.487V194.184H294.559V196.656C295.495 195.024 297.487 194.04 299.551 194.04V197.496C296.719 197.28 294.823 197.952 294.823 200.784ZM313.38 207H309.732V193.056H304.308V189.768H318.828V193.056H313.38V207ZM324.258 207.216C320.418 207.216 317.85 204.552 317.85 200.544C317.85 196.728 320.514 193.944 324.21 193.944C328.266 193.944 330.954 197.232 330.354 201.408H321.258C321.474 203.496 322.482 204.648 324.186 204.648C325.65 204.648 326.634 203.928 327.018 202.656H330.33C329.61 205.56 327.378 207.216 324.258 207.216ZM324.138 196.392C322.578 196.392 321.594 197.4 321.306 199.296H326.826C326.73 197.52 325.722 196.392 324.138 196.392ZM335.468 207H332.132V194.184H335.204V196.008C336.14 194.712 337.34 193.944 339.044 193.944C340.796 193.944 342.14 194.76 342.788 196.224C343.796 194.808 345.092 193.944 347.012 193.944C349.604 193.944 351.356 195.648 351.356 198.72V207H348.044V199.776C348.044 197.976 347.276 196.896 345.812 196.896C344.492 196.896 343.412 197.928 343.412 199.848V207H340.1V199.776C340.1 197.976 339.332 196.896 337.868 196.896C336.524 196.896 335.468 197.928 335.468 199.848V207ZM366.546 200.592C366.546 204.384 364.314 207.24 360.858 207.24C359.346 207.24 358.05 206.592 357.09 205.344V211.632H353.754V194.184H356.826V196.056C357.81 194.688 359.226 193.944 360.858 193.944C364.314 193.944 366.546 196.824 366.546 200.592ZM363.114 200.592C363.114 198.192 361.746 196.896 360.114 196.896C358.482 196.896 357.114 198.168 357.114 200.592C357.114 203.016 358.482 204.264 360.114 204.264C361.746 204.264 363.114 203.04 363.114 200.592ZM371.588 207H368.228V189.768H371.588V207ZM381.755 207V205.416C380.915 206.616 379.643 207.24 377.891 207.24C375.227 207.24 373.451 205.68 373.451 203.28C373.451 200.784 375.467 199.44 379.211 199.44C379.931 199.44 380.555 199.488 381.347 199.584V198.816C381.347 197.376 380.531 196.536 379.139 196.536C377.699 196.536 376.835 197.376 376.715 198.816H373.715C373.907 195.864 376.043 193.944 379.139 193.944C382.499 193.944 384.467 195.792 384.467 198.936V207H381.755ZM376.595 203.184C376.595 204.264 377.363 204.936 378.611 204.936C380.315 204.936 381.347 204 381.347 202.512V201.6C380.555 201.48 380.003 201.432 379.427 201.432C377.531 201.432 376.595 202.032 376.595 203.184ZM394.667 203.76V206.664C393.851 207.072 393.083 207.24 392.099 207.24C389.459 207.24 387.803 205.728 387.803 202.848V197.04H385.211V194.184H387.803V190.392H391.115V194.184H394.787V197.04H391.115V202.08C391.115 203.568 391.787 204.168 392.987 204.168C393.611 204.168 394.187 204.024 394.667 203.76ZM401.654 207.216C397.814 207.216 395.246 204.552 395.246 200.544C395.246 196.728 397.91 193.944 401.606 193.944C405.662 193.944 408.35 197.232 407.75 201.408H398.654C398.87 203.496 399.878 204.648 401.582 204.648C403.046 204.648 404.03 203.928 404.414 202.656H407.726C407.006 205.56 404.774 207.216 401.654 207.216ZM401.534 196.392C399.974 196.392 398.99 197.4 398.702 199.296H404.222C404.126 197.52 403.118 196.392 401.534 196.392Z" fill="white"/>
<defs>
<clipPath id="clip0_256_116">
<rect width="227" height="63" fill="white" transform="translate(35 32)"/>
</clipPath>
</defs>
</svg>
