<svg width="637" height="380" viewBox="0 0 637 380" fill="none" xmlns="http://www.w3.org/2000/svg">
<rect width="637" height="380" rx="20" fill="#F33E33"/>
<path d="M153.745 65.4649C140.946 65.868 128.937 68.9947 118.044 75.9288C116.569 76.8679 115.459 78.2215 114.203 79.4098C113.646 79.9362 113.094 80.9036 112.136 80.1681C111.261 79.4956 111.501 78.5817 111.938 77.7148C113.401 74.8154 115.699 72.6314 118.203 70.6843C126.13 64.5163 135.345 61.4224 145.097 59.7086C157.546 57.5205 169.5 59.3434 181.044 64.2999C181.445 64.4724 181.858 64.9066 182.273 64.5505C182.86 64.0483 182.225 63.6137 182.038 63.1736C180.552 59.6584 177.849 56.9846 175.651 53.9619C174.792 52.7809 173.14 51.3867 174.657 50.1427C176.046 49.0014 177.119 50.8987 178.052 51.8638C181.722 55.6611 184.43 60.2227 187.803 64.2638C189.538 66.3423 188.683 68.7752 186.199 69.7722C182.634 71.2029 178.844 71.3604 175.115 71.7457C167.632 72.5191 160.229 73.9348 152.707 74.3849C150.82 74.4976 148.944 74.557 147.06 74.4862C146.453 74.4634 145.752 74.4511 145.584 73.7257C145.392 72.893 146.034 72.572 146.691 72.2817C150.607 70.5528 154.852 70.3314 158.979 69.5727C161.049 69.1919 163.148 68.955 165.199 68.5053C165.9 68.352 167.193 68.4455 167.06 67.3394C166.956 66.4537 165.812 66.4647 165.004 66.3287C161.279 65.7464 157.515 65.4576 153.745 65.4649Z" fill="#312F2F"/>
<circle cx="230" cy="60.0229" r="20" fill="#FCEDED"/>
<path d="M222.015 62.4979C222.018 62.5656 222.008 62.6333 221.984 62.6969C221.961 62.7605 221.924 62.8186 221.878 62.8677C221.831 62.9168 221.775 62.9559 221.712 62.9826C221.65 63.0093 221.583 63.023 221.515 63.0229H216C215.774 63.0232 215.555 62.9472 215.378 62.8072C215.201 62.6672 215.077 62.4714 215.025 62.2516C214.993 62.1013 214.994 61.9456 215.029 61.7959C215.064 61.6461 215.132 61.5059 215.228 61.3854C216.11 60.2154 217.28 59.2941 218.625 58.7116C218.035 58.1734 217.582 57.5015 217.305 56.7523C217.027 56.0031 216.934 55.1983 217.031 54.4055C217.129 53.6126 217.415 52.8546 217.866 52.1951C218.317 51.5356 218.919 50.9937 219.623 50.6149C220.326 50.236 221.11 50.0312 221.909 50.0176C222.707 50.004 223.498 50.1819 224.214 50.5366C224.929 50.8913 225.55 51.4123 226.023 52.0561C226.496 52.6998 226.808 53.4475 226.933 54.2366C226.949 54.3428 226.93 54.4512 226.878 54.5455C226.827 54.6399 226.747 54.7149 226.649 54.7591C225.262 55.4004 224.087 56.4249 223.263 57.712C222.44 58.999 222.001 60.4948 222 62.0229C222 62.1829 222 62.3404 222.015 62.4979ZM244.765 61.3841C243.885 60.2155 242.717 59.2947 241.375 58.7116C241.965 58.1734 242.418 57.5015 242.695 56.7523C242.973 56.0031 243.066 55.1983 242.969 54.4055C242.871 53.6126 242.585 52.8546 242.134 52.1951C241.683 51.5356 241.081 50.9937 240.377 50.6149C239.674 50.236 238.89 50.0312 238.092 50.0176C237.293 50.004 236.502 50.1819 235.786 50.5366C235.071 50.8913 234.45 51.4123 233.977 52.0561C233.504 52.6998 233.192 53.4475 233.068 54.2366C233.051 54.3428 233.07 54.4512 233.122 54.5455C233.173 54.6399 233.253 54.7149 233.351 54.7591C234.738 55.4004 235.913 56.4249 236.737 57.712C237.56 58.999 237.999 60.4948 238 62.0229C238 62.1829 238 62.3404 237.985 62.4979C237.982 62.5656 237.992 62.6333 238.016 62.6969C238.039 62.7605 238.076 62.8186 238.122 62.8677C238.169 62.9168 238.225 62.9559 238.288 62.9826C238.35 63.0093 238.417 63.023 238.485 63.0229H244C244.226 63.0232 244.445 62.9472 244.622 62.8072C244.799 62.6672 244.923 62.4714 244.975 62.2516C245.007 62.101 245.006 61.945 244.971 61.795C244.935 61.645 244.867 61.5047 244.771 61.3841H244.765ZM233.64 66.7816C234.636 66.0191 235.367 64.9637 235.732 63.7638C236.097 62.564 236.077 61.2799 235.674 60.0921C235.272 58.9044 234.507 57.8726 233.488 57.1419C232.469 56.4111 231.246 56.0181 229.992 56.0181C228.738 56.0181 227.515 56.4111 226.496 57.1419C225.477 57.8726 224.712 58.9044 224.309 60.0921C223.907 61.2799 223.887 62.564 224.251 63.7638C224.616 64.9637 225.348 66.0191 226.344 66.7816C224.577 67.5472 223.102 68.8583 222.134 70.5229C222.046 70.6749 222 70.8474 222 71.023C222 71.1985 222.046 71.371 222.134 71.523C222.222 71.675 222.348 71.8013 222.5 71.889C222.652 71.9768 222.824 72.0229 223 72.0229H237C237.176 72.0229 237.348 71.9768 237.5 71.889C237.652 71.8013 237.778 71.675 237.866 71.523C237.954 71.371 238 71.1985 238 71.023C238 70.8474 237.954 70.6749 237.866 70.5229C236.896 68.8572 235.418 67.546 233.649 66.7816H233.64Z" fill="#343330"/>
<path d="M251.344 37.3667H239.656C239.374 37.3667 239.104 37.4655 238.905 37.6413C238.706 37.8171 238.594 38.0556 238.594 38.3042V46.7417C238.594 46.9903 238.706 47.2288 238.905 47.4046C239.104 47.5804 239.374 47.6792 239.656 47.6792H251.344C251.626 47.6792 251.896 47.5804 252.095 47.4046C252.294 47.2288 252.406 46.9903 252.406 46.7417V38.3042C252.406 38.0556 252.294 37.8171 252.095 37.6413C251.896 37.4655 251.626 37.3667 251.344 37.3667ZM243.163 43.5542C243.275 43.6288 243.35 43.7398 243.37 43.8629C243.39 43.986 243.353 44.111 243.269 44.2104C243.184 44.3099 243.058 44.3757 242.919 44.3932C242.779 44.4108 242.638 44.3788 242.525 44.3042L240.4 42.8979C240.334 42.8543 240.28 42.7977 240.244 42.7326C240.207 42.6675 240.188 42.5957 240.188 42.5229C240.188 42.4502 240.207 42.3784 240.244 42.3133C240.28 42.2482 240.334 42.1916 240.4 42.1479L242.525 40.7417C242.638 40.6671 242.779 40.6351 242.919 40.6527C243.058 40.6702 243.184 40.736 243.269 40.8354C243.353 40.9349 243.39 41.0599 243.37 41.183C243.35 41.3061 243.275 41.4171 243.163 41.4917L241.604 42.5229L243.163 43.5542ZM247.073 39.3706L244.948 45.9331C244.93 45.9933 244.899 46.0498 244.855 46.0991C244.812 46.1485 244.758 46.1898 244.697 46.2205C244.636 46.2513 244.568 46.271 244.498 46.2783C244.428 46.2857 244.356 46.2807 244.289 46.2636C244.221 46.2464 244.157 46.2175 244.102 46.1785C244.047 46.1395 244.001 46.0912 243.968 46.0364C243.934 45.9817 243.913 45.9215 243.906 45.8595C243.899 45.7975 243.906 45.7349 243.927 45.6753L246.052 39.1128C246.093 38.9955 246.184 38.8969 246.306 38.8384C246.429 38.7799 246.572 38.766 246.706 38.7997C246.84 38.8335 246.953 38.9122 247.022 39.019C247.09 39.1257 247.109 39.252 247.073 39.3706ZM250.6 42.8979L248.475 44.3042C248.362 44.3788 248.221 44.4108 248.081 44.3932C247.942 44.3757 247.816 44.3099 247.731 44.2104C247.647 44.111 247.61 43.986 247.63 43.8629C247.65 43.7398 247.725 43.6288 247.837 43.5542L249.396 42.5229L247.837 41.4917C247.782 41.4548 247.735 41.4085 247.699 41.3555C247.664 41.3026 247.64 41.2439 247.63 41.183C247.62 41.1221 247.624 41.06 247.642 41.0004C247.659 40.9407 247.689 40.8847 247.731 40.8354C247.773 40.7862 247.826 40.7447 247.886 40.7134C247.946 40.682 248.012 40.6614 248.081 40.6527C248.15 40.644 248.221 40.6473 248.288 40.6626C248.356 40.6779 248.419 40.7048 248.475 40.7417L250.6 42.1479C250.666 42.1916 250.72 42.2482 250.756 42.3133C250.793 42.3784 250.812 42.4502 250.812 42.5229C250.812 42.5957 250.793 42.6675 250.756 42.7326C250.72 42.7977 250.666 42.8543 250.6 42.8979Z" fill="#343330"/>
<path d="M203.312 47.0542V47.9917C203.312 48.2403 203.201 48.4788 203.001 48.6546C202.802 48.8304 202.532 48.9292 202.25 48.9292V46.1167C202.532 46.1167 202.802 46.2155 203.001 46.3913C203.201 46.5671 203.312 46.8056 203.312 47.0542ZM214.469 44.2417V50.8042C214.469 51.0528 214.357 51.2913 214.158 51.4671C213.958 51.6429 213.688 51.7417 213.406 51.7417H199.594C199.312 51.7417 199.042 51.6429 198.842 51.4671C198.643 51.2913 198.531 51.0528 198.531 50.8042V44.2417C198.531 43.9931 198.643 43.7546 198.842 43.5788C199.042 43.403 199.312 43.3042 199.594 43.3042H213.406C213.688 43.3042 213.958 43.403 214.158 43.5788C214.357 43.7546 214.469 43.9931 214.469 44.2417ZM204.375 47.0542C204.375 46.5569 204.151 46.08 203.753 45.7284C203.354 45.3767 202.814 45.1792 202.25 45.1792H201.719C201.578 45.1792 201.443 45.2286 201.343 45.3165C201.243 45.4044 201.188 45.5236 201.188 45.6479V49.3979C201.188 49.5223 201.243 49.6415 201.343 49.7294C201.443 49.8173 201.578 49.8667 201.719 49.8667H202.25C202.814 49.8667 203.354 49.6692 203.753 49.3175C204.151 48.9659 204.375 48.489 204.375 47.9917V47.0542ZM206.5 47.0542V46.1167H207.562C207.703 46.1167 207.839 46.0673 207.938 45.9794C208.038 45.8915 208.094 45.7723 208.094 45.6479C208.094 45.5236 208.038 45.4044 207.938 45.3165C207.839 45.2286 207.703 45.1792 207.562 45.1792H205.969C205.828 45.1792 205.693 45.2286 205.593 45.3165C205.493 45.4044 205.438 45.5236 205.438 45.6479V49.3979C205.438 49.5223 205.493 49.6415 205.593 49.7294C205.693 49.8173 205.828 49.8667 205.969 49.8667H207.562C207.703 49.8667 207.839 49.8173 207.938 49.7294C208.038 49.6415 208.094 49.5223 208.094 49.3979C208.094 49.2736 208.038 49.1544 207.938 49.0665C207.839 48.9786 207.703 48.9292 207.562 48.9292H206.5V47.9917H207.031C207.172 47.9917 207.307 47.9423 207.407 47.8544C207.507 47.7665 207.562 47.6473 207.562 47.5229C207.562 47.3986 207.507 47.2794 207.407 47.1915C207.307 47.1036 207.172 47.0542 207.031 47.0542H206.5ZM211.957 45.1968C211.821 45.1631 211.676 45.1783 211.553 45.239C211.43 45.2998 211.339 45.4011 211.301 45.5208L210.617 47.6665L209.933 45.5208C209.895 45.4016 209.804 45.3008 209.681 45.2404C209.558 45.18 209.414 45.165 209.278 45.1986C209.143 45.2323 209.028 45.3118 208.96 45.4199C208.891 45.5279 208.873 45.6556 208.911 45.7751L210.106 49.5251C210.137 49.6234 210.204 49.71 210.297 49.7717C210.389 49.8333 210.501 49.8667 210.617 49.8667C210.733 49.8667 210.846 49.8333 210.938 49.7717C211.03 49.71 211.097 49.6234 211.129 49.5251L212.324 45.7751C212.362 45.6554 212.345 45.5273 212.276 45.4188C212.207 45.3104 212.092 45.2305 211.957 45.1968Z" fill="#343330"/>
<path d="M248 70.5229C245.477 70.5229 243.5 72.0604 243.5 74.0229V80.0229C243.5 81.9854 245.477 83.5229 248 83.5229C250.523 83.5229 252.5 81.9854 252.5 80.0229V74.0229C252.5 72.0604 250.523 70.5229 248 70.5229ZM251.75 77.0229C251.75 77.6242 251.381 78.2373 250.737 78.7054C250.012 79.2323 249.04 79.5229 248 79.5229C246.96 79.5229 245.988 79.2323 245.263 78.7054C244.619 78.2373 244.25 77.6242 244.25 77.0229V75.9829C245.05 76.9204 246.417 77.5229 248 77.5229C249.583 77.5229 250.95 76.9179 251.75 75.9829V77.0229ZM250.737 81.7054C250.012 82.2323 249.04 82.5229 248 82.5229C246.96 82.5229 245.988 82.2323 245.263 81.7054C244.619 81.2373 244.25 80.6242 244.25 80.0229V78.9829C245.05 79.9204 246.417 80.5229 248 80.5229C249.583 80.5229 250.95 79.9179 251.75 78.9829V80.0229C251.75 80.6242 251.381 81.2373 250.737 81.7054Z" fill="#343330"/>
<circle cx="85" cy="69.0229" r="20" fill="#F5F3F3"/>
<path d="M88 62.023C88 61.7578 88.1054 61.5034 88.2929 61.3159C88.4804 61.1283 88.7348 61.023 89 61.023H100C100.265 61.023 100.52 61.1283 100.707 61.3159C100.895 61.5034 101 61.7578 101 62.023C101 62.2882 100.895 62.5425 100.707 62.7301C100.52 62.9176 100.265 63.023 100 63.023H89C88.7348 63.023 88.4804 62.9176 88.2929 62.7301C88.1054 62.5425 88 62.2882 88 62.023ZM100 67.023H89C88.7348 67.023 88.4804 67.1283 88.2929 67.3159C88.1054 67.5034 88 67.7578 88 68.023C88 68.2882 88.1054 68.5425 88.2929 68.7301C88.4804 68.9176 88.7348 69.023 89 69.023H100C100.265 69.023 100.52 68.9176 100.707 68.7301C100.895 68.5425 101 68.2882 101 68.023C101 67.7578 100.895 67.5034 100.707 67.3159C100.52 67.1283 100.265 67.023 100 67.023ZM100 73.023H92C91.7348 73.023 91.4804 73.1283 91.2929 73.3159C91.1054 73.5034 91 73.7578 91 74.023C91 74.2882 91.1054 74.5425 91.2929 74.7301C91.4804 74.9176 91.7348 75.023 92 75.023H100C100.265 75.023 100.52 74.9176 100.707 74.7301C100.895 74.5425 101 74.2882 101 74.023C101 73.7578 100.895 73.5034 100.707 73.3159C100.52 73.1283 100.265 73.023 100 73.023ZM82.6613 69.773C83.6537 69.0086 84.382 67.9527 84.744 66.7534C85.106 65.5541 85.0836 64.2716 84.6798 63.0857C84.2761 61.8998 83.5113 60.8701 82.4927 60.1409C81.474 59.4116 80.2527 59.0195 79 59.0195C77.7473 59.0195 76.526 59.4116 75.5074 60.1409C74.4888 60.8701 73.724 61.8998 73.3202 63.0857C72.9164 64.2716 72.894 65.5541 73.256 66.7534C73.618 67.9527 74.3463 69.0086 75.3388 69.773C72.7613 70.8642 70.73 73.0605 70.0313 75.773C69.9931 75.9208 69.9893 76.0754 70.0201 76.2249C70.0509 76.3744 70.1156 76.5149 70.2091 76.6355C70.3026 76.7562 70.4225 76.8539 70.5596 76.921C70.6967 76.9882 70.8474 77.0231 71 77.023H87C87.1527 77.0231 87.3033 76.9882 87.4404 76.921C87.5775 76.8539 87.6974 76.7562 87.7909 76.6355C87.8844 76.5149 87.9491 76.3744 87.9799 76.2249C88.0107 76.0754 88.0069 75.9208 87.9688 75.773C87.27 73.0592 85.2388 70.863 82.6613 69.773Z" fill="#343330"/>
<path d="M38.616 140H36.184V128.512H43.608V130.624H38.616V133.52H42.824V135.616H38.616V140ZM52.8298 137.888V140H45.1018V128.512H52.7178V130.624H47.5338V133.04H52.2378V135.136H47.5338V137.888H52.8298ZM62.2151 140L61.3511 137.536H56.8871L56.0071 140H53.5591L57.8791 128.512H60.5351L64.8231 140H62.2151ZM59.1431 131.168L57.5751 135.6H60.6791L59.1431 131.168ZM70.1983 140H67.7663V130.704H64.1503V128.512H73.8303V130.704H70.1983V140ZM84.529 128.512V135.632C84.529 138.352 82.801 140.24 79.809 140.24C76.769 140.24 75.073 138.352 75.073 135.632V128.512H77.505V135.68C77.505 137.104 78.193 138.064 79.809 138.064C81.409 138.064 82.097 137.104 82.097 135.68V128.512H84.529ZM89.111 140H86.679V128.512H91.175C94.071 128.512 95.751 129.856 95.751 132.24C95.751 133.792 94.791 135.024 93.159 135.568L96.119 140H93.223L90.631 135.936H89.111V140ZM89.111 130.528V133.936H91.063C92.535 133.936 93.319 133.36 93.319 132.24C93.319 131.104 92.535 130.528 91.063 130.528H89.111ZM105.184 137.888V140H97.4561V128.512H105.072V130.624H99.8881V133.04H104.592V135.136H99.8881V137.888H105.184Z" fill="white"/>
<path d="M40.016 155.96V160.16H45.656V162.824H40.016V167.264H46.376V170H36.656V153.224H46.376V155.96H40.016ZM55.5254 159.464H53.1974V170H49.7894V159.464H48.2774V156.704H49.7894V156.032C49.7894 154.4 50.2534 153.2 51.1814 152.432C52.1094 151.664 53.5094 151.304 55.3814 151.352V154.184C54.5654 154.168 53.9974 154.304 53.6774 154.592C53.3574 154.88 53.1974 155.4 53.1974 156.152V156.704H55.5254V159.464ZM63.7989 159.464H61.4709V170H58.0629V159.464H56.5509V156.704H58.0629V156.032C58.0629 154.4 58.5269 153.2 59.4549 152.432C60.3829 151.664 61.7829 151.304 63.6549 151.352V154.184C62.8389 154.168 62.2709 154.304 61.9509 154.592C61.6309 154.88 61.4709 155.4 61.4709 156.152V156.704H63.7989V159.464ZM71.8803 170.216C70.6003 170.216 69.4483 169.936 68.4243 169.376C67.4003 168.8 66.5923 167.992 66.0003 166.952C65.4243 165.912 65.1363 164.712 65.1363 163.352C65.1363 161.992 65.4323 160.792 66.0243 159.752C66.6323 158.712 67.4563 157.912 68.4963 157.352C69.5363 156.776 70.6963 156.488 71.9763 156.488C73.2563 156.488 74.4163 156.776 75.4563 157.352C76.4963 157.912 77.3123 158.712 77.9043 159.752C78.5123 160.792 78.8163 161.992 78.8163 163.352C78.8163 164.712 78.5043 165.912 77.8803 166.952C77.2723 167.992 76.4403 168.8 75.3843 169.376C74.3443 169.936 73.1763 170.216 71.8803 170.216ZM71.8803 167.288C72.4883 167.288 73.0563 167.144 73.5843 166.856C74.1283 166.552 74.5603 166.104 74.8803 165.512C75.2003 164.92 75.3603 164.2 75.3603 163.352C75.3603 162.088 75.0243 161.12 74.3523 160.448C73.6963 159.76 72.8883 159.416 71.9283 159.416C70.9683 159.416 70.1603 159.76 69.5043 160.448C68.8643 161.12 68.5443 162.088 68.5443 163.352C68.5443 164.616 68.8563 165.592 69.4803 166.28C70.1203 166.952 70.9203 167.288 71.8803 167.288ZM84.641 158.768C85.073 158.064 85.633 157.512 86.321 157.112C87.025 156.712 87.825 156.512 88.721 156.512V160.04H87.833C86.777 160.04 85.977 160.288 85.433 160.784C84.905 161.28 84.641 162.144 84.641 163.376V170H81.281V156.704H84.641V158.768ZM94.8961 159.464V165.896C94.8961 166.344 95.0001 166.672 95.2081 166.88C95.4321 167.072 95.8001 167.168 96.3121 167.168H97.8721V170H95.7601C92.9281 170 91.5121 168.624 91.5121 165.872V159.464H89.9281V156.704H91.5121V153.416H94.8961V156.704H97.8721V159.464H94.8961ZM103.649 152.24V170H100.289V152.24H103.649ZM119.329 163.064C119.329 163.544 119.297 163.976 119.233 164.36H109.513C109.593 165.32 109.929 166.072 110.521 166.616C111.113 167.16 111.841 167.432 112.705 167.432C113.953 167.432 114.841 166.896 115.369 165.824H118.993C118.609 167.104 117.873 168.16 116.785 168.992C115.697 169.808 114.361 170.216 112.777 170.216C111.497 170.216 110.345 169.936 109.321 169.376C108.313 168.8 107.521 167.992 106.945 166.952C106.385 165.912 106.104 164.712 106.104 163.352C106.104 161.976 106.385 160.768 106.945 159.728C107.505 158.688 108.289 157.888 109.297 157.328C110.305 156.768 111.465 156.488 112.777 156.488C114.041 156.488 115.169 156.76 116.161 157.304C117.169 157.848 117.945 158.624 118.489 159.632C119.049 160.624 119.329 161.768 119.329 163.064ZM115.849 162.104C115.833 161.24 115.521 160.552 114.913 160.04C114.305 159.512 113.561 159.248 112.681 159.248C111.849 159.248 111.145 159.504 110.569 160.016C110.009 160.512 109.665 161.208 109.537 162.104H115.849ZM126.869 170.216C125.781 170.216 124.805 170.024 123.941 169.64C123.077 169.24 122.389 168.704 121.877 168.032C121.381 167.36 121.109 166.616 121.061 165.8H124.445C124.509 166.312 124.757 166.736 125.189 167.072C125.637 167.408 126.189 167.576 126.845 167.576C127.485 167.576 127.981 167.448 128.333 167.192C128.701 166.936 128.885 166.608 128.885 166.208C128.885 165.776 128.661 165.456 128.213 165.248C127.781 165.024 127.085 164.784 126.125 164.528C125.133 164.288 124.317 164.04 123.677 163.784C123.053 163.528 122.509 163.136 122.045 162.608C121.597 162.08 121.373 161.368 121.373 160.472C121.373 159.736 121.581 159.064 121.997 158.456C122.429 157.848 123.037 157.368 123.821 157.016C124.621 156.664 125.557 156.488 126.629 156.488C128.213 156.488 129.477 156.888 130.421 157.688C131.365 158.472 131.885 159.536 131.981 160.88H128.765C128.717 160.352 128.493 159.936 128.093 159.632C127.709 159.312 127.189 159.152 126.533 159.152C125.925 159.152 125.453 159.264 125.117 159.488C124.797 159.712 124.637 160.024 124.637 160.424C124.637 160.872 124.861 161.216 125.309 161.456C125.757 161.68 126.453 161.912 127.397 162.152C128.357 162.392 129.149 162.64 129.773 162.896C130.397 163.152 130.933 163.552 131.381 164.096C131.845 164.624 132.085 165.328 132.101 166.208C132.101 166.976 131.885 167.664 131.453 168.272C131.037 168.88 130.429 169.36 129.629 169.712C128.845 170.048 127.925 170.216 126.869 170.216ZM139.947 170.216C138.859 170.216 137.883 170.024 137.019 169.64C136.155 169.24 135.467 168.704 134.955 168.032C134.459 167.36 134.187 166.616 134.139 165.8H137.523C137.587 166.312 137.835 166.736 138.267 167.072C138.715 167.408 139.267 167.576 139.923 167.576C140.563 167.576 141.059 167.448 141.411 167.192C141.779 166.936 141.963 166.608 141.963 166.208C141.963 165.776 141.739 165.456 141.291 165.248C140.859 165.024 140.163 164.784 139.203 164.528C138.211 164.288 137.395 164.04 136.755 163.784C136.131 163.528 135.587 163.136 135.123 162.608C134.675 162.08 134.451 161.368 134.451 160.472C134.451 159.736 134.659 159.064 135.075 158.456C135.507 157.848 136.115 157.368 136.899 157.016C137.699 156.664 138.635 156.488 139.707 156.488C141.291 156.488 142.555 156.888 143.499 157.688C144.443 158.472 144.963 159.536 145.059 160.88H141.843C141.795 160.352 141.571 159.936 141.171 159.632C140.787 159.312 140.267 159.152 139.611 159.152C139.003 159.152 138.531 159.264 138.195 159.488C137.875 159.712 137.715 160.024 137.715 160.424C137.715 160.872 137.939 161.216 138.387 161.456C138.835 161.68 139.531 161.912 140.475 162.152C141.435 162.392 142.227 162.64 142.851 162.896C143.475 163.152 144.011 163.552 144.459 164.096C144.923 164.624 145.163 165.328 145.179 166.208C145.179 166.976 144.963 167.664 144.531 168.272C144.115 168.88 143.507 169.36 142.707 169.712C141.923 170.048 141.003 170.216 139.947 170.216ZM151.297 152.24V170H147.937V152.24H151.297ZM167.337 156.704L159.105 176.288H155.529L158.409 169.664L153.081 156.704H156.849L160.281 165.992L163.761 156.704H167.337ZM179.955 170.216C178.867 170.216 177.891 170.024 177.027 169.64C176.163 169.24 175.475 168.704 174.963 168.032C174.467 167.36 174.195 166.616 174.147 165.8H177.531C177.595 166.312 177.843 166.736 178.275 167.072C178.723 167.408 179.275 167.576 179.931 167.576C180.571 167.576 181.067 167.448 181.419 167.192C181.787 166.936 181.971 166.608 181.971 166.208C181.971 165.776 181.747 165.456 181.299 165.248C180.867 165.024 180.171 164.784 179.211 164.528C178.219 164.288 177.403 164.04 176.763 163.784C176.139 163.528 175.595 163.136 175.131 162.608C174.683 162.08 174.459 161.368 174.459 160.472C174.459 159.736 174.667 159.064 175.083 158.456C175.515 157.848 176.123 157.368 176.907 157.016C177.707 156.664 178.643 156.488 179.715 156.488C181.299 156.488 182.563 156.888 183.507 157.688C184.451 158.472 184.971 159.536 185.067 160.88H181.851C181.803 160.352 181.579 159.936 181.179 159.632C180.795 159.312 180.275 159.152 179.619 159.152C179.011 159.152 178.539 159.264 178.203 159.488C177.883 159.712 177.723 160.024 177.723 160.424C177.723 160.872 177.947 161.216 178.395 161.456C178.843 161.68 179.539 161.912 180.483 162.152C181.443 162.392 182.235 162.64 182.859 162.896C183.483 163.152 184.019 163.552 184.467 164.096C184.931 164.624 185.171 165.328 185.187 166.208C185.187 166.976 184.971 167.664 184.539 168.272C184.123 168.88 183.515 169.36 182.715 169.712C181.931 170.048 181.011 170.216 179.955 170.216ZM191.857 159.464V165.896C191.857 166.344 191.961 166.672 192.169 166.88C192.393 167.072 192.761 167.168 193.273 167.168H194.833V170H192.721C189.889 170 188.473 168.624 188.473 165.872V159.464H186.889V156.704H188.473V153.416H191.857V156.704H194.833V159.464H191.857ZM200.61 158.768C201.042 158.064 201.602 157.512 202.29 157.112C202.994 156.712 203.794 156.512 204.69 156.512V160.04H203.802C202.746 160.04 201.946 160.288 201.402 160.784C200.874 161.28 200.61 162.144 200.61 163.376V170H197.25V156.704H200.61V158.768ZM219.313 163.064C219.313 163.544 219.281 163.976 219.217 164.36H209.497C209.577 165.32 209.913 166.072 210.505 166.616C211.097 167.16 211.825 167.432 212.689 167.432C213.937 167.432 214.825 166.896 215.353 165.824H218.977C218.593 167.104 217.857 168.16 216.769 168.992C215.681 169.808 214.345 170.216 212.761 170.216C211.481 170.216 210.329 169.936 209.305 169.376C208.297 168.8 207.505 167.992 206.929 166.952C206.369 165.912 206.089 164.712 206.089 163.352C206.089 161.976 206.369 160.768 206.929 159.728C207.489 158.688 208.273 157.888 209.281 157.328C210.289 156.768 211.449 156.488 212.761 156.488C214.025 156.488 215.153 156.76 216.145 157.304C217.153 157.848 217.929 158.624 218.473 159.632C219.033 160.624 219.313 161.768 219.313 163.064ZM215.833 162.104C215.817 161.24 215.505 160.552 214.897 160.04C214.289 159.512 213.545 159.248 212.665 159.248C211.833 159.248 211.129 159.504 210.553 160.016C209.993 160.512 209.649 161.208 209.521 162.104H215.833ZM220.901 163.304C220.901 161.96 221.165 160.768 221.693 159.728C222.237 158.688 222.965 157.888 223.877 157.328C224.805 156.768 225.837 156.488 226.973 156.488C227.965 156.488 228.829 156.688 229.565 157.088C230.317 157.488 230.917 157.992 231.365 158.6V156.704H234.749V170H231.365V168.056C230.933 168.68 230.333 169.2 229.565 169.616C228.813 170.016 227.941 170.216 226.949 170.216C225.829 170.216 224.805 169.928 223.877 169.352C222.965 168.776 222.237 167.968 221.693 166.928C221.165 165.872 220.901 164.664 220.901 163.304ZM231.365 163.352C231.365 162.536 231.205 161.84 230.885 161.264C230.565 160.672 230.133 160.224 229.589 159.92C229.045 159.6 228.461 159.44 227.837 159.44C227.213 159.44 226.637 159.592 226.109 159.896C225.581 160.2 225.149 160.648 224.813 161.24C224.493 161.816 224.333 162.504 224.333 163.304C224.333 164.104 224.493 164.808 224.813 165.416C225.149 166.008 225.581 166.464 226.109 166.784C226.653 167.104 227.229 167.264 227.837 167.264C228.461 167.264 229.045 167.112 229.589 166.808C230.133 166.488 230.565 166.04 230.885 165.464C231.205 164.872 231.365 164.168 231.365 163.352ZM254.543 156.512C256.175 156.512 257.487 157.016 258.479 158.024C259.487 159.016 259.991 160.408 259.991 162.2V170H256.631V162.656C256.631 161.616 256.367 160.824 255.839 160.28C255.311 159.72 254.591 159.44 253.679 159.44C252.767 159.44 252.039 159.72 251.495 160.28C250.967 160.824 250.703 161.616 250.703 162.656V170H247.343V162.656C247.343 161.616 247.079 160.824 246.551 160.28C246.023 159.72 245.303 159.44 244.391 159.44C243.463 159.44 242.727 159.72 242.183 160.28C241.655 160.824 241.391 161.616 241.391 162.656V170H238.031V156.704H241.391V158.312C241.823 157.752 242.375 157.312 243.047 156.992C243.735 156.672 244.487 156.512 245.303 156.512C246.343 156.512 247.271 156.736 248.087 157.184C248.903 157.616 249.535 158.24 249.983 159.056C250.415 158.288 251.039 157.672 251.855 157.208C252.687 156.744 253.583 156.512 254.543 156.512ZM266.539 152.24V170H263.179V152.24H266.539ZM271.563 155.12C270.971 155.12 270.475 154.936 270.075 154.568C269.691 154.184 269.499 153.712 269.499 153.152C269.499 152.592 269.691 152.128 270.075 151.76C270.475 151.376 270.971 151.184 271.563 151.184C272.155 151.184 272.643 151.376 273.027 151.76C273.427 152.128 273.627 152.592 273.627 153.152C273.627 153.712 273.427 154.184 273.027 154.568C272.643 154.936 272.155 155.12 271.563 155.12ZM273.219 156.704V170H269.859V156.704H273.219ZM283.907 156.512C285.491 156.512 286.771 157.016 287.747 158.024C288.723 159.016 289.211 160.408 289.211 162.2V170H285.851V162.656C285.851 161.6 285.587 160.792 285.059 160.232C284.531 159.656 283.811 159.368 282.899 159.368C281.971 159.368 281.235 159.656 280.691 160.232C280.163 160.792 279.899 161.6 279.899 162.656V170H276.539V156.704H279.899V158.36C280.347 157.784 280.915 157.336 281.603 157.016C282.307 156.68 283.075 156.512 283.907 156.512ZM304.766 163.064C304.766 163.544 304.734 163.976 304.67 164.36H294.95C295.03 165.32 295.366 166.072 295.958 166.616C296.55 167.16 297.278 167.432 298.142 167.432C299.39 167.432 300.278 166.896 300.806 165.824H304.43C304.046 167.104 303.31 168.16 302.222 168.992C301.134 169.808 299.798 170.216 298.214 170.216C296.934 170.216 295.782 169.936 294.758 169.376C293.75 168.8 292.958 167.992 292.382 166.952C291.822 165.912 291.542 164.712 291.542 163.352C291.542 161.976 291.822 160.768 292.382 159.728C292.942 158.688 293.726 157.888 294.734 157.328C295.742 156.768 296.902 156.488 298.214 156.488C299.478 156.488 300.606 156.76 301.598 157.304C302.606 157.848 303.382 158.624 303.926 159.632C304.486 160.624 304.766 161.768 304.766 163.064ZM301.286 162.104C301.27 161.24 300.958 160.552 300.35 160.04C299.742 159.512 298.998 159.248 298.118 159.248C297.286 159.248 296.582 159.504 296.006 160.016C295.446 160.512 295.102 161.208 294.974 162.104H301.286ZM316.849 159.464V165.896C316.849 166.344 316.953 166.672 317.161 166.88C317.385 167.072 317.753 167.168 318.265 167.168H319.825V170H317.713C314.881 170 313.465 168.624 313.465 165.872V159.464H311.881V156.704H313.465V153.416H316.849V156.704H319.825V159.464H316.849ZM334.602 163.064C334.602 163.544 334.57 163.976 334.506 164.36H324.786C324.866 165.32 325.202 166.072 325.794 166.616C326.386 167.16 327.114 167.432 327.978 167.432C329.226 167.432 330.114 166.896 330.642 165.824H334.266C333.882 167.104 333.146 168.16 332.058 168.992C330.97 169.808 329.634 170.216 328.05 170.216C326.77 170.216 325.618 169.936 324.594 169.376C323.586 168.8 322.794 167.992 322.218 166.952C321.658 165.912 321.378 164.712 321.378 163.352C321.378 161.976 321.658 160.768 322.218 159.728C322.778 158.688 323.562 157.888 324.57 157.328C325.578 156.768 326.738 156.488 328.05 156.488C329.314 156.488 330.442 156.76 331.434 157.304C332.442 157.848 333.218 158.624 333.762 159.632C334.322 160.624 334.602 161.768 334.602 163.064ZM331.122 162.104C331.106 161.24 330.794 160.552 330.186 160.04C329.578 159.512 328.834 159.248 327.954 159.248C327.122 159.248 326.418 159.504 325.842 160.016C325.282 160.512 324.938 161.208 324.81 162.104H331.122ZM336.19 163.304C336.19 161.96 336.454 160.768 336.982 159.728C337.526 158.688 338.254 157.888 339.166 157.328C340.094 156.768 341.126 156.488 342.262 156.488C343.254 156.488 344.118 156.688 344.854 157.088C345.606 157.488 346.206 157.992 346.654 158.6V156.704H350.038V170H346.654V168.056C346.222 168.68 345.622 169.2 344.854 169.616C344.102 170.016 343.23 170.216 342.238 170.216C341.118 170.216 340.094 169.928 339.166 169.352C338.254 168.776 337.526 167.968 336.982 166.928C336.454 165.872 336.19 164.664 336.19 163.304ZM346.654 163.352C346.654 162.536 346.494 161.84 346.174 161.264C345.854 160.672 345.422 160.224 344.878 159.92C344.334 159.6 343.75 159.44 343.126 159.44C342.502 159.44 341.926 159.592 341.398 159.896C340.87 160.2 340.438 160.648 340.102 161.24C339.782 161.816 339.622 162.504 339.622 163.304C339.622 164.104 339.782 164.808 340.102 165.416C340.438 166.008 340.87 166.464 341.398 166.784C341.942 167.104 342.518 167.264 343.126 167.264C343.75 167.264 344.334 167.112 344.878 166.808C345.422 166.488 345.854 166.04 346.174 165.464C346.494 164.872 346.654 164.168 346.654 163.352ZM369.832 156.512C371.464 156.512 372.776 157.016 373.768 158.024C374.776 159.016 375.28 160.408 375.28 162.2V170H371.92V162.656C371.92 161.616 371.656 160.824 371.128 160.28C370.6 159.72 369.88 159.44 368.968 159.44C368.056 159.44 367.328 159.72 366.784 160.28C366.256 160.824 365.992 161.616 365.992 162.656V170H362.632V162.656C362.632 161.616 362.368 160.824 361.84 160.28C361.312 159.72 360.592 159.44 359.68 159.44C358.752 159.44 358.016 159.72 357.472 160.28C356.944 160.824 356.68 161.616 356.68 162.656V170H353.32V156.704H356.68V158.312C357.112 157.752 357.664 157.312 358.336 156.992C359.024 156.672 359.776 156.512 360.592 156.512C361.632 156.512 362.56 156.736 363.376 157.184C364.192 157.616 364.824 158.24 365.272 159.056C365.704 158.288 366.328 157.672 367.144 157.208C367.976 156.744 368.872 156.512 369.832 156.512ZM396.901 156.704L393.013 170H389.389L386.965 160.712L384.541 170H380.893L376.981 156.704H380.389L382.741 166.832L385.285 156.704H388.837L391.333 166.808L393.685 156.704H396.901ZM404.623 170.216C403.343 170.216 402.191 169.936 401.167 169.376C400.143 168.8 399.335 167.992 398.743 166.952C398.167 165.912 397.879 164.712 397.879 163.352C397.879 161.992 398.175 160.792 398.767 159.752C399.375 158.712 400.199 157.912 401.239 157.352C402.279 156.776 403.439 156.488 404.719 156.488C405.999 156.488 407.159 156.776 408.199 157.352C409.239 157.912 410.055 158.712 410.647 159.752C411.255 160.792 411.559 161.992 411.559 163.352C411.559 164.712 411.247 165.912 410.622 166.952C410.015 167.992 409.183 168.8 408.127 169.376C407.087 169.936 405.919 170.216 404.623 170.216ZM404.623 167.288C405.231 167.288 405.799 167.144 406.327 166.856C406.871 166.552 407.303 166.104 407.623 165.512C407.943 164.92 408.103 164.2 408.103 163.352C408.103 162.088 407.767 161.12 407.095 160.448C406.439 159.76 405.631 159.416 404.671 159.416C403.711 159.416 402.903 159.76 402.247 160.448C401.607 161.12 401.287 162.088 401.287 163.352C401.287 164.616 401.599 165.592 402.223 166.28C402.863 166.952 403.663 167.288 404.623 167.288ZM417.383 158.768C417.815 158.064 418.375 157.512 419.063 157.112C419.767 156.712 420.567 156.512 421.463 156.512V160.04H420.575C419.519 160.04 418.719 160.288 418.175 160.784C417.647 161.28 417.383 162.144 417.383 163.376V170H414.023V156.704H417.383V158.768ZM431.598 170L427.086 164.336V170H423.726V152.24H427.086V162.344L431.55 156.704H435.918L430.062 163.376L435.966 170H431.598ZM441.414 166.472L438.606 173.216H436.446L438.006 166.472H441.414ZM35.792 187.304C35.792 185.96 36.056 184.768 36.584 183.728C37.128 182.688 37.856 181.888 38.768 181.328C39.696 180.768 40.728 180.488 41.864 180.488C42.856 180.488 43.72 180.688 44.456 181.088C45.208 181.488 45.808 181.992 46.256 182.6V180.704H49.64V194H46.256V192.056C45.824 192.68 45.224 193.2 44.456 193.616C43.704 194.016 42.832 194.216 41.84 194.216C40.72 194.216 39.696 193.928 38.768 193.352C37.856 192.776 37.128 191.968 36.584 190.928C36.056 189.872 35.792 188.664 35.792 187.304ZM46.256 187.352C46.256 186.536 46.096 185.84 45.776 185.264C45.456 184.672 45.024 184.224 44.48 183.92C43.936 183.6 43.352 183.44 42.728 183.44C42.104 183.44 41.528 183.592 41 183.896C40.472 184.2 40.04 184.648 39.704 185.24C39.384 185.816 39.224 186.504 39.224 187.304C39.224 188.104 39.384 188.808 39.704 189.416C40.04 190.008 40.472 190.464 41 190.784C41.544 191.104 42.12 191.264 42.728 191.264C43.352 191.264 43.936 191.112 44.48 190.808C45.024 190.488 45.456 190.04 45.776 189.464C46.096 188.872 46.256 188.168 46.256 187.352ZM69.4336 180.512C71.0656 180.512 72.3776 181.016 73.3696 182.024C74.3776 183.016 74.8816 184.408 74.8816 186.2V194H71.5216V186.656C71.5216 185.616 71.2576 184.824 70.7296 184.28C70.2016 183.72 69.4816 183.44 68.5696 183.44C67.6576 183.44 66.9296 183.72 66.3856 184.28C65.8576 184.824 65.5936 185.616 65.5936 186.656V194H62.2336V186.656C62.2336 185.616 61.9696 184.824 61.4416 184.28C60.9136 183.72 60.1936 183.44 59.2816 183.44C58.3536 183.44 57.6176 183.72 57.0736 184.28C56.5456 184.824 56.2816 185.616 56.2816 186.656V194H52.9216V180.704H56.2816V182.312C56.7136 181.752 57.2656 181.312 57.9376 180.992C58.6256 180.672 59.3776 180.512 60.1936 180.512C61.2336 180.512 62.1616 180.736 62.9776 181.184C63.7936 181.616 64.4256 182.24 64.8736 183.056C65.3056 182.288 65.9296 181.672 66.7456 181.208C67.5776 180.744 68.4736 180.512 69.4336 180.512ZM81.4301 182.624C81.8621 182.016 82.4541 181.512 83.2061 181.112C83.9741 180.696 84.8461 180.488 85.8221 180.488C86.9581 180.488 87.9821 180.768 88.8941 181.328C89.8221 181.888 90.5501 182.688 91.0781 183.728C91.6221 184.752 91.8941 185.944 91.8941 187.304C91.8941 188.664 91.6221 189.872 91.0781 190.928C90.5501 191.968 89.8221 192.776 88.8941 193.352C87.9821 193.928 86.9581 194.216 85.8221 194.216C84.8461 194.216 83.9821 194.016 83.2301 193.616C82.4941 193.216 81.8941 192.712 81.4301 192.104V200.336H78.0701V180.704H81.4301V182.624ZM88.4621 187.304C88.4621 186.504 88.2941 185.816 87.9581 185.24C87.6381 184.648 87.2061 184.2 86.6621 183.896C86.1341 183.592 85.5581 183.44 84.9341 183.44C84.3261 183.44 83.7501 183.6 83.2061 183.92C82.6781 184.224 82.2461 184.672 81.9101 185.264C81.5901 185.856 81.4301 186.552 81.4301 187.352C81.4301 188.152 81.5901 188.848 81.9101 189.44C82.2461 190.032 82.6781 190.488 83.2061 190.808C83.7501 191.112 84.3261 191.264 84.9341 191.264C85.5581 191.264 86.1341 191.104 86.6621 190.784C87.2061 190.464 87.6381 190.008 87.9581 189.416C88.2941 188.824 88.4621 188.12 88.4621 187.304ZM97.6957 176.24V194H94.3357V176.24H97.6957ZM102.719 179.12C102.127 179.12 101.631 178.936 101.231 178.568C100.847 178.184 100.655 177.712 100.655 177.152C100.655 176.592 100.847 176.128 101.231 175.76C101.631 175.376 102.127 175.184 102.719 175.184C103.311 175.184 103.799 175.376 104.183 175.76C104.583 176.128 104.783 176.592 104.783 177.152C104.783 177.712 104.583 178.184 104.183 178.568C103.799 178.936 103.311 179.12 102.719 179.12ZM104.375 180.704V194H101.015V180.704H104.375ZM113.791 183.464H111.463V194H108.055V183.464H106.543V180.704H108.055V180.032C108.055 178.4 108.519 177.2 109.447 176.432C110.375 175.664 111.775 175.304 113.647 175.352V178.184C112.831 178.168 112.263 178.304 111.943 178.592C111.623 178.88 111.463 179.4 111.463 180.152V180.704H113.791V183.464ZM128.689 180.704L120.457 200.288H116.881L119.761 193.664L114.433 180.704H118.201L121.633 189.992L125.113 180.704H128.689ZM139.579 182.624C140.011 182.016 140.603 181.512 141.355 181.112C142.123 180.696 142.995 180.488 143.971 180.488C145.107 180.488 146.131 180.768 147.043 181.328C147.971 181.888 148.699 182.688 149.227 183.728C149.771 184.752 150.043 185.944 150.043 187.304C150.043 188.664 149.771 189.872 149.227 190.928C148.699 191.968 147.971 192.776 147.043 193.352C146.131 193.928 145.107 194.216 143.971 194.216C142.995 194.216 142.131 194.016 141.379 193.616C140.643 193.216 140.043 192.712 139.579 192.104V200.336H136.219V180.704H139.579V182.624ZM146.611 187.304C146.611 186.504 146.443 185.816 146.107 185.24C145.787 184.648 145.355 184.2 144.811 183.896C144.283 183.592 143.707 183.44 143.083 183.44C142.475 183.44 141.899 183.6 141.355 183.92C140.827 184.224 140.395 184.672 140.059 185.264C139.739 185.856 139.579 186.552 139.579 187.352C139.579 188.152 139.739 188.848 140.059 189.44C140.395 190.032 140.827 190.488 141.355 190.808C141.899 191.112 142.475 191.264 143.083 191.264C143.707 191.264 144.283 191.104 144.811 190.784C145.355 190.464 145.787 190.008 146.107 189.416C146.443 188.824 146.611 188.12 146.611 187.304ZM155.844 182.768C156.276 182.064 156.836 181.512 157.524 181.112C158.228 180.712 159.028 180.512 159.924 180.512V184.04H159.036C157.98 184.04 157.18 184.288 156.636 184.784C156.108 185.28 155.844 186.144 155.844 187.376V194H152.484V180.704H155.844V182.768ZM168.091 194.216C166.811 194.216 165.659 193.936 164.635 193.376C163.611 192.8 162.803 191.992 162.211 190.952C161.635 189.912 161.347 188.712 161.347 187.352C161.347 185.992 161.643 184.792 162.235 183.752C162.843 182.712 163.667 181.912 164.707 181.352C165.747 180.776 166.907 180.488 168.187 180.488C169.467 180.488 170.627 180.776 171.667 181.352C172.707 181.912 173.523 182.712 174.115 183.752C174.723 184.792 175.027 185.992 175.027 187.352C175.027 188.712 174.715 189.912 174.091 190.952C173.483 191.992 172.651 192.8 171.595 193.376C170.555 193.936 169.387 194.216 168.091 194.216ZM168.091 191.288C168.699 191.288 169.267 191.144 169.795 190.856C170.339 190.552 170.771 190.104 171.091 189.512C171.411 188.92 171.571 188.2 171.571 187.352C171.571 186.088 171.235 185.12 170.563 184.448C169.907 183.76 169.099 183.416 168.139 183.416C167.179 183.416 166.371 183.76 165.715 184.448C165.075 185.12 164.755 186.088 164.755 187.352C164.755 188.616 165.067 189.592 165.691 190.28C166.331 190.952 167.131 191.288 168.091 191.288ZM176.628 187.304C176.628 185.96 176.892 184.768 177.42 183.728C177.964 182.688 178.7 181.888 179.628 181.328C180.556 180.768 181.588 180.488 182.724 180.488C183.588 180.488 184.412 180.68 185.196 181.064C185.98 181.432 186.604 181.928 187.068 182.552V176.24H190.476V194H187.068V192.032C186.652 192.688 186.068 193.216 185.316 193.616C184.564 194.016 183.692 194.216 182.7 194.216C181.58 194.216 180.556 193.928 179.628 193.352C178.7 192.776 177.964 191.968 177.42 190.928C176.892 189.872 176.628 188.664 176.628 187.304ZM187.092 187.352C187.092 186.536 186.932 185.84 186.612 185.264C186.292 184.672 185.86 184.224 185.316 183.92C184.772 183.6 184.188 183.44 183.564 183.44C182.94 183.44 182.364 183.592 181.836 183.896C181.308 184.2 180.876 184.648 180.54 185.24C180.22 185.816 180.06 186.504 180.06 187.304C180.06 188.104 180.22 188.808 180.54 189.416C180.876 190.008 181.308 190.464 181.836 190.784C182.38 191.104 182.956 191.264 183.564 191.264C184.188 191.264 184.772 191.112 185.316 190.808C185.86 190.488 186.292 190.04 186.612 189.464C186.932 188.872 187.092 188.168 187.092 187.352ZM206.31 180.704V194H202.926V192.32C202.494 192.896 201.926 193.352 201.222 193.688C200.534 194.008 199.782 194.168 198.966 194.168C197.926 194.168 197.006 193.952 196.206 193.52C195.406 193.072 194.774 192.424 194.31 191.576C193.862 190.712 193.638 189.688 193.638 188.504V180.704H196.998V188.024C196.998 189.08 197.262 189.896 197.79 190.472C198.318 191.032 199.038 191.312 199.95 191.312C200.878 191.312 201.606 191.032 202.134 190.472C202.662 189.896 202.926 189.08 202.926 188.024V180.704H206.31ZM208.761 187.352C208.761 185.976 209.041 184.776 209.601 183.752C210.161 182.712 210.937 181.912 211.929 181.352C212.921 180.776 214.057 180.488 215.337 180.488C216.985 180.488 218.345 180.904 219.417 181.736C220.505 182.552 221.233 183.704 221.601 185.192H217.977C217.785 184.616 217.457 184.168 216.993 183.848C216.545 183.512 215.985 183.344 215.313 183.344C214.353 183.344 213.593 183.696 213.033 184.4C212.473 185.088 212.193 186.072 212.193 187.352C212.193 188.616 212.473 189.6 213.033 190.304C213.593 190.992 214.353 191.336 215.313 191.336C216.673 191.336 217.561 190.728 217.977 189.512H221.601C221.233 190.952 220.505 192.096 219.417 192.944C218.329 193.792 216.969 194.216 215.337 194.216C214.057 194.216 212.921 193.936 211.929 193.376C210.937 192.8 210.161 192 209.601 190.976C209.041 189.936 208.761 188.728 208.761 187.352ZM227.974 183.464V189.896C227.974 190.344 228.078 190.672 228.286 190.88C228.51 191.072 228.878 191.168 229.39 191.168H230.95V194H228.838C226.006 194 224.59 192.624 224.59 189.872V183.464H223.006V180.704H224.59V177.416H227.974V180.704H230.95V183.464H227.974ZM235.071 179.12C234.479 179.12 233.983 178.936 233.583 178.568C233.199 178.184 233.007 177.712 233.007 177.152C233.007 176.592 233.199 176.128 233.583 175.76C233.983 175.376 234.479 175.184 235.071 175.184C235.663 175.184 236.151 175.376 236.535 175.76C236.935 176.128 237.135 176.592 237.135 177.152C237.135 177.712 236.935 178.184 236.535 178.568C236.151 178.936 235.663 179.12 235.071 179.12ZM236.727 180.704V194H233.367V180.704H236.727ZM245.591 190.904L248.951 180.704H252.527L247.607 194H243.527L238.631 180.704H242.231L245.591 190.904ZM256.118 179.12C255.526 179.12 255.03 178.936 254.63 178.568C254.246 178.184 254.054 177.712 254.054 177.152C254.054 176.592 254.246 176.128 254.63 175.76C255.03 175.376 255.526 175.184 256.118 175.184C256.71 175.184 257.198 175.376 257.582 175.76C257.982 176.128 258.182 176.592 258.182 177.152C258.182 177.712 257.982 178.184 257.582 178.568C257.198 178.936 256.71 179.12 256.118 179.12ZM257.774 180.704V194H254.414V180.704H257.774ZM265.006 183.464V189.896C265.006 190.344 265.11 190.672 265.318 190.88C265.542 191.072 265.91 191.168 266.422 191.168H267.982V194H265.87C263.038 194 261.622 192.624 261.622 189.872V183.464H260.038V180.704H261.622V177.416H265.006V180.704H267.982V183.464H265.006ZM283.118 180.704L274.886 200.288H271.31L274.19 193.664L268.862 180.704H272.63L276.062 189.992L279.542 180.704H283.118ZM288.601 190.472L285.793 197.216H283.633L285.193 190.472H288.601ZM295.878 187.304C295.878 185.96 296.142 184.768 296.67 183.728C297.214 182.688 297.942 181.888 298.854 181.328C299.782 180.768 300.814 180.488 301.95 180.488C302.942 180.488 303.806 180.688 304.542 181.088C305.294 181.488 305.894 181.992 306.342 182.6V180.704H309.726V194H306.342V192.056C305.91 192.68 305.31 193.2 304.542 193.616C303.79 194.016 302.918 194.216 301.926 194.216C300.806 194.216 299.782 193.928 298.854 193.352C297.942 192.776 297.214 191.968 296.67 190.928C296.142 189.872 295.878 188.664 295.878 187.304ZM306.342 187.352C306.342 186.536 306.182 185.84 305.862 185.264C305.542 184.672 305.11 184.224 304.566 183.92C304.022 183.6 303.438 183.44 302.814 183.44C302.19 183.44 301.614 183.592 301.086 183.896C300.558 184.2 300.126 184.648 299.79 185.24C299.47 185.816 299.31 186.504 299.31 187.304C299.31 188.104 299.47 188.808 299.79 189.416C300.126 190.008 300.558 190.464 301.086 190.784C301.63 191.104 302.206 191.264 302.814 191.264C303.438 191.264 304.022 191.112 304.566 190.808C305.11 190.488 305.542 190.04 305.862 189.464C306.182 188.872 306.342 188.168 306.342 187.352ZM320.376 180.512C321.96 180.512 323.24 181.016 324.216 182.024C325.192 183.016 325.68 184.408 325.68 186.2V194H322.32V186.656C322.32 185.6 322.056 184.792 321.528 184.232C321 183.656 320.28 183.368 319.368 183.368C318.44 183.368 317.704 183.656 317.16 184.232C316.632 184.792 316.368 185.6 316.368 186.656V194H313.008V180.704H316.368V182.36C316.816 181.784 317.384 181.336 318.072 181.016C318.776 180.68 319.544 180.512 320.376 180.512ZM328.011 187.304C328.011 185.96 328.275 184.768 328.803 183.728C329.347 182.688 330.083 181.888 331.011 181.328C331.939 180.768 332.971 180.488 334.107 180.488C334.971 180.488 335.795 180.68 336.579 181.064C337.363 181.432 337.987 181.928 338.451 182.552V176.24H341.859V194H338.451V192.032C338.035 192.688 337.451 193.216 336.699 193.616C335.947 194.016 335.075 194.216 334.083 194.216C332.963 194.216 331.939 193.928 331.011 193.352C330.083 192.776 329.347 191.968 328.803 190.928C328.275 189.872 328.011 188.664 328.011 187.304ZM338.475 187.352C338.475 186.536 338.315 185.84 337.995 185.264C337.675 184.672 337.243 184.224 336.699 183.92C336.155 183.6 335.571 183.44 334.947 183.44C334.323 183.44 333.747 183.592 333.219 183.896C332.691 184.2 332.259 184.648 331.923 185.24C331.603 185.816 331.443 186.504 331.443 187.304C331.443 188.104 331.603 188.808 331.923 189.416C332.259 190.008 332.691 190.464 333.219 190.784C333.763 191.104 334.339 191.264 334.947 191.264C335.571 191.264 336.155 191.112 336.699 190.808C337.243 190.488 337.675 190.04 337.995 189.464C338.315 188.872 338.475 188.168 338.475 187.352ZM349.995 187.304C349.995 185.96 350.259 184.768 350.787 183.728C351.331 182.688 352.059 181.888 352.971 181.328C353.899 180.768 354.931 180.488 356.067 180.488C357.059 180.488 357.923 180.688 358.659 181.088C359.411 181.488 360.011 181.992 360.459 182.6V180.704H363.843V194H360.459V192.056C360.027 192.68 359.427 193.2 358.659 193.616C357.907 194.016 357.035 194.216 356.043 194.216C354.923 194.216 353.899 193.928 352.971 193.352C352.059 192.776 351.331 191.968 350.787 190.928C350.259 189.872 349.995 188.664 349.995 187.304ZM360.459 187.352C360.459 186.536 360.299 185.84 359.979 185.264C359.659 184.672 359.227 184.224 358.683 183.92C358.139 183.6 357.555 183.44 356.931 183.44C356.307 183.44 355.731 183.592 355.203 183.896C354.675 184.2 354.243 184.648 353.907 185.24C353.587 185.816 353.427 186.504 353.427 187.304C353.427 188.104 353.587 188.808 353.907 189.416C354.243 190.008 354.675 190.464 355.203 190.784C355.747 191.104 356.323 191.264 356.931 191.264C357.555 191.264 358.139 191.112 358.683 190.808C359.227 190.488 359.659 190.04 359.979 189.464C360.299 188.872 360.459 188.168 360.459 187.352ZM366.261 187.352C366.261 185.976 366.541 184.776 367.101 183.752C367.661 182.712 368.437 181.912 369.429 181.352C370.421 180.776 371.557 180.488 372.837 180.488C374.485 180.488 375.845 180.904 376.917 181.736C378.005 182.552 378.733 183.704 379.101 185.192H375.477C375.285 184.616 374.957 184.168 374.493 183.848C374.045 183.512 373.485 183.344 372.813 183.344C371.853 183.344 371.093 183.696 370.533 184.4C369.973 185.088 369.693 186.072 369.693 187.352C369.693 188.616 369.973 189.6 370.533 190.304C371.093 190.992 371.853 191.336 372.813 191.336C374.173 191.336 375.061 190.728 375.477 189.512H379.101C378.733 190.952 378.005 192.096 376.917 192.944C375.829 193.792 374.469 194.216 372.837 194.216C371.557 194.216 370.421 193.936 369.429 193.376C368.437 192.8 367.661 192 367.101 190.976C366.541 189.936 366.261 188.728 366.261 187.352ZM389.05 180.512C390.058 180.512 390.954 180.736 391.738 181.184C392.522 181.616 393.13 182.264 393.562 183.128C394.01 183.976 394.234 185 394.234 186.2V194H390.874V186.656C390.874 185.6 390.61 184.792 390.082 184.232C389.554 183.656 388.834 183.368 387.922 183.368C386.994 183.368 386.258 183.656 385.714 184.232C385.186 184.792 384.922 185.6 384.922 186.656V194H381.562V176.24H384.922V182.36C385.354 181.784 385.93 181.336 386.65 181.016C387.37 180.68 388.17 180.512 389.05 180.512ZM399.133 179.12C398.541 179.12 398.045 178.936 397.645 178.568C397.261 178.184 397.069 177.712 397.069 177.152C397.069 176.592 397.261 176.128 397.645 175.76C398.045 175.376 398.541 175.184 399.133 175.184C399.725 175.184 400.213 175.376 400.597 175.76C400.997 176.128 401.197 176.592 401.197 177.152C401.197 177.712 400.997 178.184 400.597 178.568C400.213 178.936 399.725 179.12 399.133 179.12ZM400.789 180.704V194H397.429V180.704H400.789ZM416.469 187.064C416.469 187.544 416.437 187.976 416.373 188.36H406.653C406.733 189.32 407.069 190.072 407.661 190.616C408.253 191.16 408.981 191.432 409.845 191.432C411.093 191.432 411.981 190.896 412.509 189.824H416.133C415.749 191.104 415.013 192.16 413.925 192.992C412.837 193.808 411.501 194.216 409.917 194.216C408.637 194.216 407.485 193.936 406.461 193.376C405.453 192.8 404.661 191.992 404.085 190.952C403.525 189.912 403.245 188.712 403.245 187.352C403.245 185.976 403.525 184.768 404.085 183.728C404.645 182.688 405.429 181.888 406.437 181.328C407.445 180.768 408.605 180.488 409.917 180.488C411.181 180.488 412.309 180.76 413.301 181.304C414.309 181.848 415.085 182.624 415.629 183.632C416.189 184.624 416.469 185.768 416.469 187.064ZM412.989 186.104C412.973 185.24 412.661 184.552 412.053 184.04C411.445 183.512 410.701 183.248 409.821 183.248C408.989 183.248 408.285 183.504 407.709 184.016C407.149 184.512 406.805 185.208 406.677 186.104H412.989ZM424.466 190.904L427.826 180.704H431.402L426.482 194H422.402L417.506 180.704H421.106L424.466 190.904ZM445.649 187.064C445.649 187.544 445.617 187.976 445.553 188.36H435.833C435.913 189.32 436.249 190.072 436.841 190.616C437.433 191.16 438.161 191.432 439.025 191.432C440.273 191.432 441.161 190.896 441.689 189.824H445.313C444.929 191.104 444.193 192.16 443.105 192.992C442.017 193.808 440.681 194.216 439.097 194.216C437.817 194.216 436.665 193.936 435.641 193.376C434.633 192.8 433.841 191.992 433.265 190.952C432.705 189.912 432.425 188.712 432.425 187.352C432.425 185.976 432.705 184.768 433.265 183.728C433.825 182.688 434.609 181.888 435.617 181.328C436.625 180.768 437.785 180.488 439.097 180.488C440.361 180.488 441.489 180.76 442.481 181.304C443.489 181.848 444.265 182.624 444.809 183.632C445.369 184.624 445.649 185.768 445.649 187.064ZM442.169 186.104C442.153 185.24 441.841 184.552 441.233 184.04C440.625 183.512 439.881 183.248 439.001 183.248C438.169 183.248 437.465 183.504 436.889 184.016C436.329 184.512 435.985 185.208 435.857 186.104H442.169ZM49.376 204.704L41.144 224.288H37.568L40.448 217.664L35.12 204.704H38.888L42.32 213.992L45.8 204.704H49.376ZM57.0913 218.216C55.8113 218.216 54.6593 217.936 53.6353 217.376C52.6113 216.8 51.8033 215.992 51.2113 214.952C50.6353 213.912 50.3473 212.712 50.3473 211.352C50.3473 209.992 50.6433 208.792 51.2353 207.752C51.8433 206.712 52.6673 205.912 53.7073 205.352C54.7473 204.776 55.9073 204.488 57.1873 204.488C58.4673 204.488 59.6273 204.776 60.6673 205.352C61.7073 205.912 62.5233 206.712 63.1153 207.752C63.7233 208.792 64.0273 209.992 64.0273 211.352C64.0273 212.712 63.7153 213.912 63.0912 214.952C62.4833 215.992 61.6513 216.8 60.5953 217.376C59.5553 217.936 58.3873 218.216 57.0913 218.216ZM57.0913 215.288C57.6993 215.288 58.2673 215.144 58.7953 214.856C59.3393 214.552 59.7713 214.104 60.0913 213.512C60.4113 212.92 60.5713 212.2 60.5713 211.352C60.5713 210.088 60.2353 209.12 59.5633 208.448C58.9073 207.76 58.0993 207.416 57.1393 207.416C56.1793 207.416 55.3713 207.76 54.7153 208.448C54.0753 209.12 53.7553 210.088 53.7553 211.352C53.7553 212.616 54.0673 213.592 54.6913 214.28C55.3313 214.952 56.1313 215.288 57.0913 215.288ZM79.0439 204.704V218H75.6599V216.32C75.2279 216.896 74.6599 217.352 73.9559 217.688C73.2679 218.008 72.5159 218.168 71.6999 218.168C70.6599 218.168 69.7399 217.952 68.9399 217.52C68.1399 217.072 67.5079 216.424 67.0439 215.576C66.5959 214.712 66.3719 213.688 66.3719 212.504V204.704H69.7319V212.024C69.7319 213.08 69.9959 213.896 70.5239 214.472C71.0519 215.032 71.7719 215.312 72.6839 215.312C73.6119 215.312 74.3399 215.032 74.8679 214.472C75.3959 213.896 75.6599 213.08 75.6599 212.024V204.704H79.0439ZM85.7191 206.768C86.1511 206.064 86.7111 205.512 87.3991 205.112C88.1031 204.712 88.9031 204.512 89.7991 204.512V208.04H88.9111C87.8551 208.04 87.0551 208.288 86.5111 208.784C85.9831 209.28 85.7191 210.144 85.7191 211.376V218H82.3591V204.704H85.7191V206.768ZM102.989 204.488C103.981 204.488 104.853 204.688 105.605 205.088C106.357 205.472 106.949 205.976 107.381 206.6V204.704H110.765V218.096C110.765 219.328 110.517 220.424 110.021 221.384C109.525 222.36 108.781 223.128 107.789 223.688C106.797 224.264 105.597 224.552 104.189 224.552C102.301 224.552 100.749 224.112 99.533 223.232C98.333 222.352 97.653 221.152 97.493 219.632H100.829C101.005 220.24 101.381 220.72 101.957 221.072C102.549 221.44 103.261 221.624 104.093 221.624C105.069 221.624 105.861 221.328 106.469 220.736C107.077 220.16 107.381 219.28 107.381 218.096V216.032C106.949 216.656 106.349 217.176 105.581 217.592C104.829 218.008 103.965 218.216 102.989 218.216C101.869 218.216 100.845 217.928 99.917 217.352C98.989 216.776 98.253 215.968 97.709 214.928C97.181 213.872 96.917 212.664 96.917 211.304C96.917 209.96 97.181 208.768 97.709 207.728C98.253 206.688 98.981 205.888 99.893 205.328C100.821 204.768 101.853 204.488 102.989 204.488ZM107.381 211.352C107.381 210.536 107.221 209.84 106.901 209.264C106.581 208.672 106.149 208.224 105.605 207.92C105.061 207.6 104.477 207.44 103.853 207.44C103.229 207.44 102.653 207.592 102.125 207.896C101.597 208.2 101.165 208.648 100.829 209.24C100.509 209.816 100.349 210.504 100.349 211.304C100.349 212.104 100.509 212.808 100.829 213.416C101.165 214.008 101.597 214.464 102.125 214.784C102.669 215.104 103.245 215.264 103.853 215.264C104.477 215.264 105.061 215.112 105.605 214.808C106.149 214.488 106.581 214.04 106.901 213.464C107.221 212.872 107.381 212.168 107.381 211.352ZM119.951 218.216C118.671 218.216 117.519 217.936 116.495 217.376C115.471 216.8 114.663 215.992 114.071 214.952C113.495 213.912 113.207 212.712 113.207 211.352C113.207 209.992 113.503 208.792 114.095 207.752C114.703 206.712 115.527 205.912 116.567 205.352C117.607 204.776 118.767 204.488 120.047 204.488C121.327 204.488 122.487 204.776 123.527 205.352C124.567 205.912 125.383 206.712 125.975 207.752C126.583 208.792 126.887 209.992 126.887 211.352C126.887 212.712 126.575 213.912 125.951 214.952C125.343 215.992 124.511 216.8 123.455 217.376C122.415 217.936 121.247 218.216 119.951 218.216ZM119.951 215.288C120.559 215.288 121.127 215.144 121.655 214.856C122.199 214.552 122.631 214.104 122.951 213.512C123.271 212.92 123.431 212.2 123.431 211.352C123.431 210.088 123.095 209.12 122.423 208.448C121.767 207.76 120.959 207.416 119.999 207.416C119.039 207.416 118.231 207.76 117.575 208.448C116.935 209.12 116.615 210.088 116.615 211.352C116.615 212.616 116.927 213.592 117.551 214.28C118.191 214.952 118.991 215.288 119.951 215.288ZM128.487 211.304C128.487 209.96 128.751 208.768 129.279 207.728C129.823 206.688 130.551 205.888 131.463 205.328C132.391 204.768 133.423 204.488 134.559 204.488C135.551 204.488 136.415 204.688 137.151 205.088C137.903 205.488 138.503 205.992 138.951 206.6V204.704H142.335V218H138.951V216.056C138.519 216.68 137.919 217.2 137.151 217.616C136.399 218.016 135.527 218.216 134.535 218.216C133.415 218.216 132.391 217.928 131.463 217.352C130.551 216.776 129.823 215.968 129.279 214.928C128.751 213.872 128.487 212.664 128.487 211.304ZM138.951 211.352C138.951 210.536 138.791 209.84 138.471 209.264C138.151 208.672 137.719 208.224 137.175 207.92C136.631 207.6 136.047 207.44 135.423 207.44C134.799 207.44 134.223 207.592 133.695 207.896C133.167 208.2 132.735 208.648 132.399 209.24C132.079 209.816 131.919 210.504 131.919 211.304C131.919 212.104 132.079 212.808 132.399 213.416C132.735 214.008 133.167 214.464 133.695 214.784C134.239 215.104 134.815 215.264 135.423 215.264C136.047 215.264 136.631 215.112 137.175 214.808C137.719 214.488 138.151 214.04 138.471 213.464C138.791 212.872 138.951 212.168 138.951 211.352ZM148.977 200.24V218H145.617V200.24H148.977ZM157.385 218.216C156.297 218.216 155.321 218.024 154.457 217.64C153.593 217.24 152.905 216.704 152.393 216.032C151.897 215.36 151.625 214.616 151.577 213.8H154.961C155.025 214.312 155.273 214.736 155.705 215.072C156.153 215.408 156.705 215.576 157.361 215.576C158.001 215.576 158.497 215.448 158.849 215.192C159.217 214.936 159.401 214.608 159.401 214.208C159.401 213.776 159.177 213.456 158.729 213.248C158.297 213.024 157.601 212.784 156.641 212.528C155.649 212.288 154.833 212.04 154.193 211.784C153.569 211.528 153.025 211.136 152.561 210.608C152.113 210.08 151.889 209.368 151.889 208.472C151.889 207.736 152.097 207.064 152.513 206.456C152.945 205.848 153.553 205.368 154.337 205.016C155.137 204.664 156.073 204.488 157.145 204.488C158.729 204.488 159.993 204.888 160.937 205.688C161.881 206.472 162.401 207.536 162.497 208.88H159.281C159.233 208.352 159.009 207.936 158.609 207.632C158.225 207.312 157.705 207.152 157.049 207.152C156.441 207.152 155.969 207.264 155.633 207.488C155.313 207.712 155.153 208.024 155.153 208.424C155.153 208.872 155.377 209.216 155.825 209.456C156.273 209.68 156.969 209.912 157.913 210.152C158.873 210.392 159.665 210.64 160.289 210.896C160.913 211.152 161.449 211.552 161.897 212.096C162.361 212.624 162.601 213.328 162.617 214.208C162.617 214.976 162.401 215.664 161.969 216.272C161.553 216.88 160.945 217.36 160.145 217.712C159.361 218.048 158.441 218.216 157.385 218.216ZM189.526 204.704L185.638 218H182.014L179.59 208.712L177.166 218H173.518L169.606 204.704H173.014L175.366 214.832L177.91 204.704H181.462L183.958 214.808L186.31 204.704H189.526ZM193.048 203.12C192.456 203.12 191.96 202.936 191.56 202.568C191.176 202.184 190.984 201.712 190.984 201.152C190.984 200.592 191.176 200.128 191.56 199.76C191.96 199.376 192.456 199.184 193.048 199.184C193.64 199.184 194.128 199.376 194.512 199.76C194.912 200.128 195.112 200.592 195.112 201.152C195.112 201.712 194.912 202.184 194.512 202.568C194.128 202.936 193.64 203.12 193.048 203.12ZM194.704 204.704V218H191.344V204.704H194.704ZM201.935 207.464V213.896C201.935 214.344 202.039 214.672 202.247 214.88C202.471 215.072 202.839 215.168 203.351 215.168H204.911V218H202.799C199.967 218 198.551 216.624 198.551 213.872V207.464H196.967V204.704H198.551V201.416H201.935V204.704H204.911V207.464H201.935ZM214.816 204.512C215.824 204.512 216.72 204.736 217.504 205.184C218.288 205.616 218.896 206.264 219.328 207.128C219.776 207.976 220 209 220 210.2V218H216.64V210.656C216.64 209.6 216.376 208.792 215.848 208.232C215.32 207.656 214.6 207.368 213.688 207.368C212.76 207.368 212.024 207.656 211.48 208.232C210.952 208.792 210.688 209.6 210.688 210.656V218H207.328V200.24H210.688V206.36C211.12 205.784 211.696 205.336 212.416 205.016C213.136 204.68 213.936 204.512 214.816 204.512ZM241.274 211.064C241.274 211.544 241.242 211.976 241.178 212.36H231.458C231.538 213.32 231.874 214.072 232.466 214.616C233.058 215.16 233.786 215.432 234.65 215.432C235.898 215.432 236.786 214.896 237.314 213.824H240.938C240.554 215.104 239.818 216.16 238.73 216.992C237.642 217.808 236.306 218.216 234.722 218.216C233.442 218.216 232.29 217.936 231.266 217.376C230.258 216.8 229.466 215.992 228.89 214.952C228.33 213.912 228.05 212.712 228.05 211.352C228.05 209.976 228.33 208.768 228.89 207.728C229.45 206.688 230.234 205.888 231.242 205.328C232.25 204.768 233.41 204.488 234.722 204.488C235.986 204.488 237.114 204.76 238.106 205.304C239.114 205.848 239.89 206.624 240.434 207.632C240.994 208.624 241.274 209.768 241.274 211.064ZM237.794 210.104C237.778 209.24 237.466 208.552 236.858 208.04C236.25 207.512 235.506 207.248 234.626 207.248C233.794 207.248 233.09 207.504 232.514 208.016C231.954 208.512 231.61 209.208 231.482 210.104H237.794ZM242.862 211.304C242.862 209.96 243.126 208.768 243.654 207.728C244.198 206.688 244.926 205.888 245.838 205.328C246.766 204.768 247.798 204.488 248.934 204.488C249.926 204.488 250.79 204.688 251.526 205.088C252.278 205.488 252.878 205.992 253.326 206.6V204.704H256.71V218H253.326V216.056C252.894 216.68 252.294 217.2 251.526 217.616C250.774 218.016 249.902 218.216 248.91 218.216C247.79 218.216 246.766 217.928 245.838 217.352C244.926 216.776 244.198 215.968 243.654 214.928C243.126 213.872 242.862 212.664 242.862 211.304ZM253.326 211.352C253.326 210.536 253.166 209.84 252.846 209.264C252.526 208.672 252.094 208.224 251.55 207.92C251.006 207.6 250.422 207.44 249.798 207.44C249.174 207.44 248.598 207.592 248.07 207.896C247.542 208.2 247.11 208.648 246.774 209.24C246.454 209.816 246.294 210.504 246.294 211.304C246.294 212.104 246.454 212.808 246.774 213.416C247.11 214.008 247.542 214.464 248.07 214.784C248.614 215.104 249.19 215.264 249.798 215.264C250.422 215.264 251.006 215.112 251.55 214.808C252.094 214.488 252.526 214.04 252.846 213.464C253.166 212.872 253.326 212.168 253.326 211.352ZM265.08 218.216C263.992 218.216 263.016 218.024 262.152 217.64C261.288 217.24 260.6 216.704 260.088 216.032C259.592 215.36 259.32 214.616 259.272 213.8H262.656C262.72 214.312 262.968 214.736 263.4 215.072C263.848 215.408 264.4 215.576 265.056 215.576C265.696 215.576 266.192 215.448 266.544 215.192C266.912 214.936 267.096 214.608 267.096 214.208C267.096 213.776 266.872 213.456 266.424 213.248C265.992 213.024 265.296 212.784 264.336 212.528C263.344 212.288 262.528 212.04 261.888 211.784C261.264 211.528 260.72 211.136 260.256 210.608C259.808 210.08 259.584 209.368 259.584 208.472C259.584 207.736 259.792 207.064 260.208 206.456C260.64 205.848 261.248 205.368 262.032 205.016C262.832 204.664 263.768 204.488 264.84 204.488C266.424 204.488 267.688 204.888 268.632 205.688C269.576 206.472 270.096 207.536 270.192 208.88H266.976C266.928 208.352 266.704 207.936 266.304 207.632C265.92 207.312 265.4 207.152 264.744 207.152C264.136 207.152 263.664 207.264 263.328 207.488C263.008 207.712 262.848 208.024 262.848 208.424C262.848 208.872 263.072 209.216 263.52 209.456C263.968 209.68 264.664 209.912 265.608 210.152C266.568 210.392 267.36 210.64 267.984 210.896C268.608 211.152 269.144 211.552 269.592 212.096C270.056 212.624 270.296 213.328 270.312 214.208C270.312 214.976 270.096 215.664 269.664 216.272C269.248 216.88 268.64 217.36 267.84 217.712C267.056 218.048 266.136 218.216 265.08 218.216ZM285.43 211.064C285.43 211.544 285.398 211.976 285.334 212.36H275.614C275.694 213.32 276.03 214.072 276.622 214.616C277.214 215.16 277.942 215.432 278.806 215.432C280.054 215.432 280.942 214.896 281.47 213.824H285.094C284.71 215.104 283.974 216.16 282.886 216.992C281.798 217.808 280.462 218.216 278.878 218.216C277.598 218.216 276.446 217.936 275.422 217.376C274.414 216.8 273.622 215.992 273.046 214.952C272.486 213.912 272.206 212.712 272.206 211.352C272.206 209.976 272.486 208.768 273.046 207.728C273.606 206.688 274.39 205.888 275.398 205.328C276.406 204.768 277.566 204.488 278.878 204.488C280.142 204.488 281.27 204.76 282.262 205.304C283.27 205.848 284.046 206.624 284.59 207.632C285.15 208.624 285.43 209.768 285.43 211.064ZM281.95 210.104C281.934 209.24 281.622 208.552 281.014 208.04C280.406 207.512 279.662 207.248 278.782 207.248C277.95 207.248 277.246 207.504 276.67 208.016C276.11 208.512 275.766 209.208 275.638 210.104H281.95Z" fill="white"/>
</svg>
