<svg version="1.1" id="Layer_1" xmlns="http://www.w3.org/2000/svg" xmlns:xlink="http://www.w3.org/1999/xlink" x="0px" y="0px"
	 width="100%" viewBox="0 0 2933 323" enable-background="new 0 0 2933 323" xml:space="preserve">
<path fill="#FFFFFF" opacity="1.000000" stroke="none" 
	d="
M2783.000000,324.000000 
	C1855.333496,324.000000 928.166992,324.000000 1.000373,324.000000 
	C1.000249,216.333511 1.000249,108.667038 1.000124,1.000417 
	C978.666321,1.000278 1956.332642,1.000278 2933.999268,1.000139 
	C2933.999512,108.666290 2933.999512,216.332581 2933.999756,323.999451 
	C2883.833252,324.000000 2833.666748,324.000000 2783.000000,324.000000 
M601.601135,69.940170 
	C601.584839,131.630096 601.567139,193.320007 601.564758,255.009933 
	C601.564697,255.995789 601.753235,256.981628 601.689453,258.504608 
	C601.759277,258.678375 601.829102,258.852112 602.317139,259.801697 
	C621.565735,259.801697 640.814331,259.801697 660.460266,259.801697 
	C660.460266,234.954697 660.460266,210.683197 660.460266,186.000732 
	C667.821167,186.000732 674.795898,185.775253 681.741699,186.124527 
	C684.133301,186.244781 686.936951,187.236145 688.732727,188.781784 
	C715.116272,211.489670 741.322571,234.403442 767.719604,257.095459 
	C769.625122,258.733521 772.673523,259.815369 775.201355,259.836182 
	C799.692261,260.037933 824.185486,259.961578 848.678040,259.946045 
	C850.059265,259.945160 851.440308,259.781372 853.773315,259.632751 
	C814.785339,226.650208 776.568604,194.320114 738.083008,161.762604 
	C772.661255,130.517212 806.808472,99.661224 841.906921,67.945740 
	C839.044312,67.945740 837.455933,67.945732 835.867615,67.945740 
	C812.874634,67.945869 789.881165,68.016708 766.889099,67.872192 
	C763.317139,67.849731 760.713562,68.760429 758.085571,71.281120 
	C735.846680,92.611916 713.477844,113.807350 691.090088,134.982224 
	C689.724365,136.273926 687.895630,137.862885 686.233154,137.921570 
	C677.782349,138.219894 669.315308,138.059113 660.338501,138.059113 
	C660.338501,114.564301 660.338501,91.500130 660.338501,68.130241 
	C640.871277,68.130241 621.924072,68.130241 602.357666,68.068657 
	C602.189697,68.390968 602.021667,68.713280 601.601135,69.940170 
M1772.433350,68.061874 
	C1772.316528,68.368958 1772.199585,68.676033 1771.902466,69.907501 
	C1771.902466,133.149170 1771.902466,196.390839 1771.902466,259.709900 
	C1791.700439,259.709900 1810.945435,259.709900 1830.753906,259.709900 
	C1830.753906,235.094406 1830.753906,210.719467 1830.753906,186.005005 
	C1838.949341,186.005005 1846.585815,185.941452 1854.219116,186.072098 
	C1855.392334,186.092194 1856.754028,186.764740 1857.681641,187.547043 
	C1863.025269,192.053497 1868.263306,196.685104 1873.539551,201.271667 
	C1894.900391,219.840576 1916.201538,238.479218 1937.717651,256.866333 
	C1939.845825,258.685120 1943.281738,259.800232 1946.124023,259.826996 
	C1970.445435,260.056061 1994.770142,259.963104 2019.093750,259.946289 
	C2020.452393,259.945343 2021.811157,259.767059 2023.899658,259.619904 
	C1985.035767,226.698883 1946.848389,194.350830 1908.366333,161.753326 
	C1942.935181,130.499802 1977.088501,99.621864 2012.126099,67.944489 
	C2009.447144,67.944489 2007.870728,67.944466 2006.294434,67.944481 
	C1983.303589,67.944725 1960.312012,68.034737 1937.322632,67.856407 
	C1933.513672,67.826866 1930.775391,68.955055 1928.080933,71.531555 
	C1905.935059,92.708275 1883.699097,113.790916 1861.456787,134.866730 
	C1860.177856,136.078461 1858.634277,137.839478 1857.166260,137.887222 
	C1848.411499,138.171967 1839.642822,138.028091 1830.405029,138.028091 
	C1830.405029,114.299850 1830.405029,91.238777 1830.405029,68.129631 
	C1810.935059,68.129631 1791.956177,68.129631 1772.433350,68.061874 
M882.287598,154.499939 
	C882.287598,189.581909 882.287598,224.663879 882.287598,259.957214 
	C884.863159,259.957214 886.688416,259.957214 888.513672,259.957214 
	C948.832825,259.957214 1009.152100,260.028412 1069.470825,259.869415 
	C1077.230469,259.848969 1085.092407,259.220825 1092.723389,257.851593 
	C1109.190186,254.896957 1121.087402,246.074295 1125.624634,229.259079 
	C1129.332520,215.518036 1129.251221,201.638916 1125.674316,187.900558 
	C1122.578857,176.011307 1114.835571,168.379395 1102.991333,165.004974 
	C1099.985474,164.148605 1096.939453,163.433060 1093.366089,162.512115 
	C1095.509521,161.749405 1097.045654,161.178070 1098.597778,160.654495 
	C1110.166626,156.751755 1117.506592,148.904785 1119.326538,136.810654 
	C1120.531860,128.802353 1121.457153,120.565552 1120.964111,112.525749 
	C1119.843018,94.248802 1112.803711,79.205948 1091.119385,73.161652 
	C1080.236816,70.128212 1068.656494,68.321800 1057.371826,68.222130 
	C1000.556396,67.720322 943.734436,67.962074 886.914734,67.957840 
	C885.483032,67.957733 884.051270,68.131317 882.287659,68.245354 
	C882.287659,96.902954 882.287659,125.201439 882.287598,154.499939 
M1523.317993,231.500092 
	C1523.317993,194.948730 1523.317993,158.397385 1523.317993,121.846031 
	C1526.377319,124.021095 1528.372681,126.424965 1530.312744,128.872620 
	C1564.101929,171.501663 1597.908081,214.117310 1631.604736,256.819458 
	C1633.473389,259.187500 1635.321167,260.030701 1638.257080,260.019806 
	C1665.752930,259.917603 1693.249268,259.962524 1720.745483,259.949951 
	C1722.203003,259.949280 1723.660522,259.813721 1725.314209,259.731171 
	C1725.314209,195.735962 1725.314209,132.006485 1725.314209,68.176323 
	C1705.740845,68.176323 1686.473633,68.176323 1666.727295,68.176323 
	C1666.727295,114.436829 1666.727295,160.468506 1666.727295,207.856873 
	C1664.641235,205.428146 1663.351318,204.031021 1662.176514,202.543121 
	C1627.648682,158.814926 1593.119385,115.088028 1558.649048,71.314552 
	C1556.746826,68.898697 1554.773071,67.840454 1551.556885,67.858093 
	C1524.061523,68.008911 1496.564819,67.940369 1469.068604,67.956085 
	C1467.630493,67.956909 1466.192261,68.126816 1464.747314,68.218445 
	C1464.747314,132.282166 1464.747314,195.999435 1464.747314,259.680267 
	C1484.389893,259.680267 1503.660889,259.680267 1523.318115,259.680267 
	C1523.318115,250.437820 1523.318115,241.468964 1523.317993,231.500092 
M437.500000,226.001038 
	C453.657135,226.001068 469.814819,226.068985 485.970917,225.939621 
	C488.938049,225.915848 490.650269,226.556015 492.113098,229.473053 
	C496.652283,238.524475 501.771423,247.283524 506.404236,256.290436 
	C507.800079,259.004181 509.324799,260.065887 512.463562,260.039246 
	C531.617554,259.876465 550.773499,259.964813 569.928833,259.941223 
	C571.131531,259.939728 572.333984,259.699493 573.618591,259.561523 
	C573.394043,258.795776 573.356750,258.458679 573.205872,258.183868 
	C539.012268,195.879471 504.792694,133.589310 470.672699,71.244621 
	C469.251862,68.648430 467.623047,67.877464 464.806702,67.889725 
	C441.987305,67.989120 419.166779,68.022850 396.348114,67.859634 
	C393.049103,67.836037 391.415405,68.846603 389.849792,71.751907 
	C358.934998,129.121063 327.888580,186.419312 296.884399,243.740341 
	C294.088257,248.909927 291.397736,254.136642 288.334656,259.950897 
	C310.154510,259.950897 331.102631,260.008118 352.048279,259.808716 
	C353.304535,259.796753 354.991180,257.970276 355.713867,256.588654 
	C360.330872,247.761780 364.805634,238.857910 369.165039,229.900467 
	C370.532684,227.090302 372.112976,225.856079 375.537262,225.892975 
	C395.856201,226.111877 416.178711,226.001038 437.500000,226.001038 
M1242.601074,226.000595 
	C1278.090942,226.000595 1313.581055,226.056290 1349.070312,225.909332 
	C1352.401489,225.895538 1354.043701,226.950363 1355.510498,229.829285 
	C1360.172852,238.980042 1365.072144,248.013382 1370.070557,256.985931 
	C1370.788818,258.275482 1372.549194,259.819672 1373.839478,259.830658 
	C1394.631470,260.008087 1415.425537,259.956024 1436.678833,259.956024 
	C1436.045898,258.558655 1435.651245,257.508087 1435.117188,256.533844 
	C1401.263672,194.772476 1367.385010,133.024811 1333.584106,71.234634 
	C1332.214111,68.730385 1330.651367,67.860962 1327.792480,67.876625 
	C1304.966187,68.001701 1282.138550,68.023399 1259.312744,67.861954 
	C1255.952515,67.838188 1254.426758,69.057068 1252.888916,71.910118 
	C1222.696289,127.922081 1192.372314,183.863235 1162.095581,239.829849 
	C1158.587402,246.314682 1155.199707,252.864746 1151.454102,259.956329 
	C1173.151123,259.956329 1193.954834,260.022797 1214.755493,259.809387 
	C1216.168945,259.794891 1218.093750,257.959839 1218.874146,256.490112 
	C1223.063721,248.600723 1227.329712,240.714233 1230.835815,232.513153 
	C1233.059570,227.311600 1236.044067,224.876892 1242.601074,226.000595 
M2592.916260,87.304161 
	C2613.663818,90.369362 2618.528809,104.669525 2617.317871,123.041321 
	C2625.911377,123.041321 2633.813232,123.041321 2642.132568,123.041321 
	C2642.132568,119.510101 2642.187988,116.212471 2642.123291,112.917198 
	C2641.726807,92.757996 2630.974609,77.422737 2612.211914,69.984863 
	C2599.975342,65.134071 2587.145996,63.679302 2574.176514,63.561722 
	C2543.020020,63.279259 2511.859863,63.150074 2480.702881,63.282269 
	C2471.078125,63.323105 2461.334961,63.642132 2451.858887,65.160675 
	C2426.986572,69.146439 2413.317871,80.445541 2407.430420,104.518372 
	C2405.321533,113.142647 2404.247314,122.231209 2404.217773,131.112930 
	C2404.131104,157.075516 2403.819824,183.105148 2405.507812,208.983841 
	C2406.799072,228.780579 2415.102783,246.062927 2435.202637,253.718903 
	C2444.325439,257.193848 2454.432861,259.599182 2464.139404,259.762299 
	C2504.457764,260.439972 2544.794189,260.177948 2585.122559,259.997223 
	C2591.704346,259.967743 2598.402344,259.170166 2604.835449,257.762848 
	C2622.718750,253.850723 2635.627686,243.905640 2640.252197,225.490189 
	C2642.258057,217.501495 2643.894287,209.268784 2644.335693,201.073502 
	C2645.013184,188.497223 2644.513672,175.857544 2644.513672,163.130829 
	C2603.116455,163.130829 2561.773926,163.130829 2520.502441,163.130829 
	C2520.502441,170.300751 2520.502441,177.040665 2520.502441,184.001785 
	C2537.172119,184.001785 2553.492920,184.001785 2569.813721,184.001785 
	C2586.091553,184.001785 2602.369385,184.001785 2618.828857,184.001785 
	C2618.828857,191.665665 2619.168213,198.811234 2618.759033,205.913696 
	C2617.884277,221.096237 2611.115479,232.270447 2595.743164,236.468948 
	C2590.355957,237.940369 2584.639648,238.851166 2579.065918,238.888123 
	C2545.903320,239.108032 2512.738281,239.035812 2479.574219,238.955948 
	C2474.436035,238.943573 2469.275391,238.601379 2464.165283,238.044708 
	C2442.576904,235.693100 2430.324951,222.316742 2430.163818,200.561905 
	C2429.974609,175.065277 2429.991455,149.565491 2430.143555,124.068428 
	C2430.303467,97.247818 2446.396973,85.655937 2467.745361,85.382507 
	C2509.174561,84.851929 2550.683594,82.959244 2592.916260,87.304161 
M2189.500000,218.213257 
	C2229.989014,218.213104 2270.478271,218.251831 2310.967041,218.141602 
	C2314.335938,218.132431 2316.366211,219.003265 2318.095947,222.057922 
	C2324.650391,233.632706 2331.476318,245.054993 2338.297852,256.476318 
	C2339.085205,257.794586 2340.454346,259.691803 2341.598877,259.724121 
	C2350.951904,259.988159 2360.315430,259.872833 2370.207764,259.872833 
	C2369.149902,257.840027 2368.529785,256.496002 2367.779297,255.229294 
	C2349.214600,223.898102 2330.643311,192.570694 2312.057861,161.251785 
	C2293.716553,130.343964 2275.291016,99.485519 2257.093506,68.493248 
	C2254.875000,64.715279 2252.523193,63.134769 2248.067627,63.383766 
	C2240.592773,63.801495 2233.072266,63.666588 2225.582275,63.421394 
	C2222.186279,63.310223 2220.185059,64.336594 2218.408203,67.340630 
	C2181.392578,129.915176 2144.268799,192.425583 2107.177734,254.955383 
	C2106.316162,256.408051 2105.587646,257.939758 2104.545410,259.910278 
	C2113.784180,259.910278 2122.115967,259.755554 2130.436768,259.989990 
	C2133.560303,260.077942 2135.227539,258.923523 2136.718750,256.329254 
	C2143.431641,244.651382 2150.397461,233.118561 2157.078613,221.422974 
	C2158.525391,218.890488 2160.188232,218.089890 2163.008301,218.148972 
	C2171.502197,218.326950 2180.002197,218.213257 2189.500000,218.213257 
z"/>
<path fill="#ED1D25" opacity="1.000000" stroke="none" 
	d="
M882.287598,153.999939 
	C882.287659,125.201439 882.287659,96.902954 882.287659,68.245354 
	C884.051270,68.131317 885.483032,67.957733 886.914734,67.957840 
	C943.734436,67.962074 1000.556396,67.720322 1057.371826,68.222130 
	C1068.656494,68.321800 1080.236816,70.128212 1091.119385,73.161652 
	C1112.803711,79.205948 1119.843018,94.248802 1120.964111,112.525749 
	C1121.457153,120.565552 1120.531860,128.802353 1119.326538,136.810654 
	C1117.506592,148.904785 1110.166626,156.751755 1098.597778,160.654495 
	C1097.045654,161.178070 1095.509521,161.749405 1093.366089,162.512115 
	C1096.939453,163.433060 1099.985474,164.148605 1102.991333,165.004974 
	C1114.835571,168.379395 1122.578857,176.011307 1125.674316,187.900558 
	C1129.251221,201.638916 1129.332520,215.518036 1125.624634,229.259079 
	C1121.087402,246.074295 1109.190186,254.896957 1092.723389,257.851593 
	C1085.092407,259.220825 1077.230469,259.848969 1069.470825,259.869415 
	C1009.152100,260.028412 948.832825,259.957214 888.513672,259.957214 
	C886.688416,259.957214 884.863159,259.957214 882.287598,259.957214 
	C882.287598,224.663879 882.287598,189.581909 882.287598,153.999939 
M941.252869,208.277863 
	C941.252869,209.896744 941.252869,211.515640 941.252869,213.412781 
	C942.867981,213.526657 943.991638,213.674698 945.115295,213.675110 
	C979.107666,213.687500 1013.100037,213.704346 1047.092407,213.652374 
	C1050.075806,213.647812 1053.088623,213.363602 1056.035522,212.886612 
	C1063.434814,211.688980 1067.366821,207.253525 1067.606323,200.134811 
	C1067.887817,191.769943 1064.423950,186.710159 1056.952271,185.008682 
	C1054.222778,184.387085 1051.368774,184.038544 1048.570679,184.033203 
	C1014.578491,183.968292 980.586060,183.990753 946.593689,183.990524 
	C944.973145,183.990524 943.352661,183.990524 941.252930,183.990524 
	C941.252930,192.084976 941.252930,199.707275 941.252869,208.277863 
M941.370056,114.929550 
	C941.370056,124.521049 941.370056,134.112549 941.370056,143.792450 
	C942.687195,143.884872 943.502014,143.991837 944.316772,143.992050 
	C978.262878,144.000732 1012.209045,144.011673 1046.155151,143.967163 
	C1047.956055,143.964798 1049.781982,143.598892 1051.552734,143.205826 
	C1059.658081,141.406570 1062.279663,137.579697 1062.149902,127.897133 
	C1062.048584,120.329369 1058.699707,115.699516 1051.177368,115.013878 
	C1041.442261,114.126564 1031.612061,114.062973 1021.822021,114.042854 
	C995.204529,113.988152 968.586548,114.143135 941.370056,114.929550 
z"/>
<path fill="#ED1D25" opacity="1.000000" stroke="none" 
	d="
M1523.318115,232.000092 
	C1523.318115,241.468964 1523.318115,250.437820 1523.318115,259.680267 
	C1503.660889,259.680267 1484.389893,259.680267 1464.747314,259.680267 
	C1464.747314,195.999435 1464.747314,132.282166 1464.747314,68.218445 
	C1466.192261,68.126816 1467.630493,67.956909 1469.068604,67.956085 
	C1496.564819,67.940369 1524.061523,68.008911 1551.556885,67.858093 
	C1554.773071,67.840454 1556.746826,68.898697 1558.649048,71.314552 
	C1593.119385,115.088028 1627.648682,158.814926 1662.176514,202.543121 
	C1663.351318,204.031021 1664.641235,205.428146 1666.727295,207.856873 
	C1666.727295,160.468506 1666.727295,114.436829 1666.727295,68.176323 
	C1686.473633,68.176323 1705.740845,68.176323 1725.314209,68.176323 
	C1725.314209,132.006485 1725.314209,195.735962 1725.314209,259.731171 
	C1723.660522,259.813721 1722.203003,259.949280 1720.745483,259.949951 
	C1693.249268,259.962524 1665.752930,259.917603 1638.257080,260.019806 
	C1635.321167,260.030701 1633.473389,259.187500 1631.604736,256.819458 
	C1597.908081,214.117310 1564.101929,171.501663 1530.312744,128.872620 
	C1528.372681,126.424965 1526.377319,124.021095 1523.317993,121.846031 
	C1523.317993,158.397385 1523.317993,194.948730 1523.318115,232.000092 
z"/>
<path fill="#ED1D25" opacity="1.000000" stroke="none" 
	d="
M437.000000,226.001038 
	C416.178711,226.001038 395.856201,226.111877 375.537262,225.892975 
	C372.112976,225.856079 370.532684,227.090302 369.165039,229.900467 
	C364.805634,238.857910 360.330872,247.761780 355.713867,256.588654 
	C354.991180,257.970276 353.304535,259.796753 352.048279,259.808716 
	C331.102631,260.008118 310.154510,259.950897 288.334656,259.950897 
	C291.397736,254.136642 294.088257,248.909927 296.884399,243.740341 
	C327.888580,186.419312 358.934998,129.121063 389.849792,71.751907 
	C391.415405,68.846603 393.049103,67.836037 396.348114,67.859634 
	C419.166779,68.022850 441.987305,67.989120 464.806702,67.889725 
	C467.623047,67.877464 469.251862,68.648430 470.672699,71.244621 
	C504.792694,133.589310 539.012268,195.879471 573.205872,258.183868 
	C573.356750,258.458679 573.394043,258.795776 573.618591,259.561523 
	C572.333984,259.699493 571.131531,259.939728 569.928833,259.941223 
	C550.773499,259.964813 531.617554,259.876465 512.463562,260.039246 
	C509.324799,260.065887 507.800079,259.004181 506.404236,256.290436 
	C501.771423,247.283524 496.652283,238.524475 492.113098,229.473053 
	C490.650269,226.556015 488.938049,225.915848 485.970917,225.939621 
	C469.814819,226.068985 453.657135,226.001068 437.000000,226.001038 
M400.751556,170.193649 
	C398.349640,174.802597 395.947723,179.411545 393.379150,184.340286 
	C418.751648,184.340286 443.125458,184.340286 468.127197,184.340286 
	C455.441833,160.297318 443.040497,136.792664 430.313416,112.670624 
	C420.287903,132.076843 410.625610,150.779922 400.751556,170.193649 
z"/>
<path fill="#ED1D25" opacity="1.000000" stroke="none" 
	d="
M1242.121094,226.000595 
	C1236.044067,224.876892 1233.059570,227.311600 1230.835815,232.513153 
	C1227.329712,240.714233 1223.063721,248.600723 1218.874146,256.490112 
	C1218.093750,257.959839 1216.168945,259.794891 1214.755493,259.809387 
	C1193.954834,260.022797 1173.151123,259.956329 1151.454102,259.956329 
	C1155.199707,252.864746 1158.587402,246.314682 1162.095581,239.829849 
	C1192.372314,183.863235 1222.696289,127.922081 1252.888916,71.910118 
	C1254.426758,69.057068 1255.952515,67.838188 1259.312744,67.861954 
	C1282.138550,68.023399 1304.966187,68.001701 1327.792480,67.876625 
	C1330.651367,67.860962 1332.214111,68.730385 1333.584106,71.234634 
	C1367.385010,133.024811 1401.263672,194.772476 1435.117188,256.533844 
	C1435.651245,257.508087 1436.045898,258.558655 1436.678833,259.956024 
	C1415.425537,259.956024 1394.631470,260.008087 1373.839478,259.830658 
	C1372.549194,259.819672 1370.788818,258.275482 1370.070557,256.985931 
	C1365.072144,248.013382 1360.172852,238.980042 1355.510498,229.829285 
	C1354.043701,226.950363 1352.401489,225.895538 1349.070312,225.909332 
	C1313.581055,226.056290 1278.090942,226.000595 1242.121094,226.000595 
M1300.360962,126.125107 
	C1298.094604,121.866516 1295.828369,117.607918 1293.208008,112.684013 
	C1280.787842,136.902115 1268.742554,160.389313 1256.479492,184.300964 
	C1281.806519,184.300964 1306.275146,184.300964 1331.208618,184.300964 
	C1320.884644,164.785202 1310.823975,145.767319 1300.360962,126.125107 
z"/>
<path fill="#ED1D25" opacity="1.000000" stroke="none" 
	d="
M1772.977295,68.129631 
	C1791.956177,68.129631 1810.935059,68.129631 1830.405029,68.129631 
	C1830.405029,91.238777 1830.405029,114.299850 1830.405029,138.028091 
	C1839.642822,138.028091 1848.411499,138.171967 1857.166260,137.887222 
	C1858.634277,137.839478 1860.177856,136.078461 1861.456787,134.866730 
	C1883.699097,113.790916 1905.935059,92.708275 1928.080933,71.531555 
	C1930.775391,68.955055 1933.513672,67.826866 1937.322632,67.856407 
	C1960.312012,68.034737 1983.303589,67.944725 2006.294434,67.944481 
	C2007.870728,67.944466 2009.447144,67.944489 2012.126099,67.944489 
	C1977.088501,99.621864 1942.935181,130.499802 1908.366333,161.753326 
	C1946.848389,194.350830 1985.035767,226.698883 2023.899658,259.619904 
	C2021.811157,259.767059 2020.452393,259.945343 2019.093750,259.946289 
	C1994.770142,259.963104 1970.445435,260.056061 1946.124023,259.826996 
	C1943.281738,259.800232 1939.845825,258.685120 1937.717651,256.866333 
	C1916.201538,238.479218 1894.900391,219.840576 1873.539551,201.271667 
	C1868.263306,196.685104 1863.025269,192.053497 1857.681641,187.547043 
	C1856.754028,186.764740 1855.392334,186.092194 1854.219116,186.072098 
	C1846.585815,185.941452 1838.949341,186.005005 1830.753906,186.005005 
	C1830.753906,210.719467 1830.753906,235.094406 1830.753906,259.709900 
	C1810.945435,259.709900 1791.700439,259.709900 1771.902466,259.709900 
	C1771.902466,196.390839 1771.902466,133.149170 1772.187256,69.356613 
	C1772.715210,68.636185 1772.883667,68.410812 1772.977295,68.129631 
z"/>
<path fill="#ED1D25" opacity="1.000000" stroke="none" 
	d="
M601.853760,257.967468 
	C601.753235,256.981628 601.564697,255.995789 601.564758,255.009933 
	C601.567139,193.320007 601.584839,131.630096 601.958130,69.395012 
	C602.621704,68.689117 602.842346,68.449249 602.976929,68.130241 
	C621.924072,68.130241 640.871277,68.130241 660.338501,68.130241 
	C660.338501,91.500130 660.338501,114.564301 660.338501,138.059113 
	C669.315308,138.059113 677.782349,138.219894 686.233154,137.921570 
	C687.895630,137.862885 689.724365,136.273926 691.090088,134.982224 
	C713.477844,113.807350 735.846680,92.611916 758.085571,71.281120 
	C760.713562,68.760429 763.317139,67.849731 766.889099,67.872192 
	C789.881165,68.016708 812.874634,67.945869 835.867615,67.945740 
	C837.455933,67.945732 839.044312,67.945740 841.906921,67.945740 
	C806.808472,99.661224 772.661255,130.517212 738.083008,161.762604 
	C776.568604,194.320114 814.785339,226.650208 853.773315,259.632751 
	C851.440308,259.781372 850.059265,259.945160 848.678040,259.946045 
	C824.185486,259.961578 799.692261,260.037933 775.201355,259.836182 
	C772.673523,259.815369 769.625122,258.733521 767.719604,257.095459 
	C741.322571,234.403442 715.116272,211.489670 688.732727,188.781784 
	C686.936951,187.236145 684.133301,186.244781 681.741699,186.124527 
	C674.795898,185.775253 667.821167,186.000732 660.460266,186.000732 
	C660.460266,210.683197 660.460266,234.954697 660.460266,259.801697 
	C640.814331,259.801697 621.565735,259.801697 602.287903,259.313049 
	C602.123718,258.538757 601.988770,258.253113 601.853760,257.967468 
z"/>
<path fill="#ED1E26" opacity="1.000000" stroke="none" 
	d="
M2592.491699,87.216919 
	C2550.683594,82.959244 2509.174561,84.851929 2467.745361,85.382507 
	C2446.396973,85.655937 2430.303467,97.247818 2430.143555,124.068428 
	C2429.991455,149.565491 2429.974609,175.065277 2430.163818,200.561905 
	C2430.324951,222.316742 2442.576904,235.693100 2464.165283,238.044708 
	C2469.275391,238.601379 2474.436035,238.943573 2479.574219,238.955948 
	C2512.738281,239.035812 2545.903320,239.108032 2579.065918,238.888123 
	C2584.639648,238.851166 2590.355957,237.940369 2595.743164,236.468948 
	C2611.115479,232.270447 2617.884277,221.096237 2618.759033,205.913696 
	C2619.168213,198.811234 2618.828857,191.665665 2618.828857,184.001785 
	C2602.369385,184.001785 2586.091553,184.001785 2569.813721,184.001785 
	C2553.492920,184.001785 2537.172119,184.001785 2520.502441,184.001785 
	C2520.502441,177.040665 2520.502441,170.300751 2520.502441,163.130829 
	C2561.773926,163.130829 2603.116455,163.130829 2644.513672,163.130829 
	C2644.513672,175.857544 2645.013184,188.497223 2644.335693,201.073502 
	C2643.894287,209.268784 2642.258057,217.501495 2640.252197,225.490189 
	C2635.627686,243.905640 2622.718750,253.850723 2604.835449,257.762848 
	C2598.402344,259.170166 2591.704346,259.967743 2585.122559,259.997223 
	C2544.794189,260.177948 2504.457764,260.439972 2464.139404,259.762299 
	C2454.432861,259.599182 2444.325439,257.193848 2435.202637,253.718903 
	C2415.102783,246.062927 2406.799072,228.780579 2405.507812,208.983841 
	C2403.819824,183.105148 2404.131104,157.075516 2404.217773,131.112930 
	C2404.247314,122.231209 2405.321533,113.142647 2407.430420,104.518372 
	C2413.317871,80.445541 2426.986572,69.146439 2451.858887,65.160675 
	C2461.334961,63.642132 2471.078125,63.323105 2480.702881,63.282269 
	C2511.859863,63.150074 2543.020020,63.279259 2574.176514,63.561722 
	C2587.145996,63.679302 2599.975342,65.134071 2612.211914,69.984863 
	C2630.974609,77.422737 2641.726807,92.757996 2642.123291,112.917198 
	C2642.187988,116.212471 2642.132568,119.510101 2642.132568,123.041321 
	C2633.813232,123.041321 2625.911377,123.041321 2617.317871,123.041321 
	C2618.528809,104.669525 2613.663818,90.369362 2592.491699,87.216919 
z"/>
<path fill="#ED1F27" opacity="1.000000" stroke="none" 
	d="
M2189.000000,218.213287 
	C2180.002197,218.213257 2171.502197,218.326950 2163.008301,218.148972 
	C2160.188232,218.089890 2158.525391,218.890488 2157.078613,221.422974 
	C2150.397461,233.118561 2143.431641,244.651382 2136.718750,256.329254 
	C2135.227539,258.923523 2133.560303,260.077942 2130.436768,259.989990 
	C2122.115967,259.755554 2113.784180,259.910278 2104.545410,259.910278 
	C2105.587646,257.939758 2106.316162,256.408051 2107.177734,254.955383 
	C2144.268799,192.425583 2181.392578,129.915176 2218.408203,67.340630 
	C2220.185059,64.336594 2222.186279,63.310223 2225.582275,63.421394 
	C2233.072266,63.666588 2240.592773,63.801495 2248.067627,63.383766 
	C2252.523193,63.134769 2254.875000,64.715279 2257.093506,68.493248 
	C2275.291016,99.485519 2293.716553,130.343964 2312.057861,161.251785 
	C2330.643311,192.570694 2349.214600,223.898102 2367.779297,255.229294 
	C2368.529785,256.496002 2369.149902,257.840027 2370.207764,259.872833 
	C2360.315430,259.872833 2350.951904,259.988159 2341.598877,259.724121 
	C2340.454346,259.691803 2339.085205,257.794586 2338.297852,256.476318 
	C2331.476318,245.054993 2324.650391,233.632706 2318.095947,222.057922 
	C2316.366211,219.003265 2314.335938,218.132431 2310.967041,218.141602 
	C2270.478271,218.251831 2229.989014,218.213104 2189.000000,218.213287 
M2284.825684,165.717621 
	C2269.125488,139.141083 2253.425293,112.564537 2237.375244,85.396187 
	C2215.454834,122.516937 2193.939453,158.951675 2172.037842,196.040619 
	C2215.949219,196.040619 2258.915771,196.040619 2302.684326,196.040619 
	C2296.617188,185.728943 2290.913818,176.035172 2284.825684,165.717621 
z"/>
<path fill="#EC0D16" opacity="1.000000" stroke="none" 
	d="
M1772.705322,68.095749 
	C1772.883667,68.410812 1772.715210,68.636185 1772.277344,68.894424 
	C1772.199585,68.676033 1772.316528,68.368958 1772.705322,68.095749 
z"/>
<path fill="#EC0E17" opacity="1.000000" stroke="none" 
	d="
M602.667297,68.099449 
	C602.842346,68.449249 602.621704,68.689117 602.084351,68.942726 
	C602.021667,68.713280 602.189697,68.390968 602.667297,68.099449 
z"/>
<path fill="#EC0E17" opacity="1.000000" stroke="none" 
	d="
M601.771606,258.236023 
	C601.988770,258.253113 602.123718,258.538757 602.078796,258.925110 
	C601.829102,258.852112 601.759277,258.678375 601.771606,258.236023 
z"/>
<path fill="#FFFBFC" opacity="1.000000" stroke="none" 
	d="
M941.252930,207.803711 
	C941.252930,199.707275 941.252930,192.084976 941.252930,183.990524 
	C943.352661,183.990524 944.973145,183.990524 946.593689,183.990524 
	C980.586060,183.990753 1014.578491,183.968292 1048.570679,184.033203 
	C1051.368774,184.038544 1054.222778,184.387085 1056.952271,185.008682 
	C1064.423950,186.710159 1067.887817,191.769943 1067.606323,200.134811 
	C1067.366821,207.253525 1063.434814,211.688980 1056.035522,212.886612 
	C1053.088623,213.363602 1050.075806,213.647812 1047.092407,213.652374 
	C1013.100037,213.704346 979.107666,213.687500 945.115295,213.675110 
	C943.991638,213.674698 942.867981,213.526657 941.252869,213.412781 
	C941.252869,211.515640 941.252869,209.896744 941.252930,207.803711 
z"/>
<path fill="#FFFEFE" opacity="1.000000" stroke="none" 
	d="
M941.669434,114.572281 
	C968.586548,114.143135 995.204529,113.988152 1021.822021,114.042854 
	C1031.612061,114.062973 1041.442261,114.126564 1051.177368,115.013878 
	C1058.699707,115.699516 1062.048584,120.329369 1062.149902,127.897133 
	C1062.279663,137.579697 1059.658081,141.406570 1051.552734,143.205826 
	C1049.781982,143.598892 1047.956055,143.964798 1046.155151,143.967163 
	C1012.209045,144.011673 978.262878,144.000732 944.316772,143.992050 
	C943.502014,143.991837 942.687195,143.884872 941.370056,143.792450 
	C941.370056,134.112549 941.370056,124.521049 941.669434,114.572281 
z"/>
<path fill="#FFFAFB" opacity="1.000000" stroke="none" 
	d="
M400.857422,169.838318 
	C410.625610,150.779922 420.287903,132.076843 430.313416,112.670624 
	C443.040497,136.792664 455.441833,160.297318 468.127197,184.340286 
	C443.125458,184.340286 418.751648,184.340286 393.379150,184.340286 
	C395.947723,179.411545 398.349640,174.802597 400.857422,169.838318 
z"/>
<path fill="#FFFBFB" opacity="1.000000" stroke="none" 
	d="
M1300.562256,126.437286 
	C1310.823975,145.767319 1320.884644,164.785202 1331.208618,184.300964 
	C1306.275146,184.300964 1281.806519,184.300964 1256.479492,184.300964 
	C1268.742554,160.389313 1280.787842,136.902115 1293.208008,112.684013 
	C1295.828369,117.607918 1298.094604,121.866516 1300.562256,126.437286 
z"/>
<path fill="#FFFEFE" opacity="1.000000" stroke="none" 
	d="
M2285.018066,166.029510 
	C2290.913818,176.035172 2296.617188,185.728943 2302.684326,196.040619 
	C2258.915771,196.040619 2215.949219,196.040619 2172.037842,196.040619 
	C2193.939453,158.951675 2215.454834,122.516937 2237.375244,85.396187 
	C2253.425293,112.564537 2269.125488,139.141083 2285.018066,166.029510 
z"/>
</svg>