<svg width="1200" height="411" viewBox="0 0 1200 411" fill="none" xmlns="http://www.w3.org/2000/svg">
<g clip-path="url(#clip0_10_41)">
<path d="M1201 206C1201 274.643 1201 343.287 1201 412C850.976 412 500.952 412 150.131 411.688C149.826 410.951 150.261 410.262 150.82 410.14C170.997 405.751 189.481 397.138 207.189 386.897C237.308 369.479 263.922 347.425 288.973 323.441C295.185 317.493 300.995 311.104 306.745 304.697C316.43 293.905 326.564 283.429 335.355 271.938C352.733 249.221 368.594 225.488 380.425 199.239C390.62 176.623 398.347 153.556 397.013 128.29C396.469 117.995 394.369 108.139 388.108 99.7361C384.288 94.6079 379.849 89.9347 375.621 85.1162C363.438 71.2324 351.207 57.3905 339.022 43.5084C332.395 35.9593 325.874 28.3178 319.209 20.8037C315.578 16.7106 311.746 12.7966 308.004 8.80186C312.455 16.5746 314.081 25.2421 313.499 33.3476C312.668 44.9316 310.158 56.5745 306.907 67.7688C299.779 92.312 286.346 113.889 273.037 135.425C250.605 171.725 222.455 203.394 192.687 233.695C185.75 240.756 178.286 247.344 170.693 253.705C158.75 263.711 146.822 273.789 134.292 283.028C112.591 299.03 90.086 313.97 64.8357 323.824C53.3935 328.29 41.2774 331.404 29.1984 333.745C19.5962 335.606 9.98432 333.101 1 329C1 219.749 1 110.498 1 1C81.3572 1 161.715 1 242.709 1.37408C238.582 3.31714 233.757 4.72016 229.067 6.48307C205.401 15.3791 183.202 27.1162 163.131 42.4802C144.587 56.6759 125.871 70.7915 108.57 86.4253C93.0843 100.42 79.4233 116.434 64.9614 131.561C62.6706 133.957 63.0733 135.908 65.5399 138.119C76.873 148.279 88.1565 158.497 99.3081 168.856C111.216 179.916 122.99 191.122 134.742 202.348C137.286 204.778 139.131 205.009 141.47 202.013C145.021 197.465 148.695 192.966 152.729 188.851C169.919 171.32 187.376 154.095 206.63 138.742C224.986 124.106 244.156 110.595 265.977 102.006C275.619 98.2109 280.354 92.4023 283.018 83.4345C283.298 82.4939 283.708 81.59 284.084 80.6801C290.465 65.234 295.491 49.4092 294.912 32.4822C294.446 18.8487 289.317 7.84663 275.329 2.90414C274.736 2.6946 274.436 1.65364 274 1C583 1 892 1 1201 1C1201 36.1012 1201 71.0867 1200.53 106.536C1192.81 107.001 1185.56 107.001 1177.77 107.001C1177.77 129.246 1177.77 150.734 1177.77 173.489C1164.51 154.93 1151.32 137.934 1139.87 119.84C1134.01 110.586 1127.78 106.411 1116.97 107.842C1110.5 108.699 1103.83 107.999 1097.92 107.999C1097.92 140.812 1097.92 172.789 1097.92 204.656C1107.1 204.656 1115.35 204.656 1124.13 204.656C1124.13 182.145 1124.13 159.974 1124.13 137.106C1125.3 138.038 1125.9 138.343 1126.26 138.831C1141.53 159.98 1156.79 181.137 1172.02 202.322C1173.9 204.942 1176.12 206.2 1179.52 206.077C1186.67 205.82 1193.84 206 1201 206ZM516.493 240.013C496.415 240.013 476.338 240.013 456.36 240.013C456.36 273.12 456.36 305.367 456.36 337.6C457.184 337.769 457.661 337.957 458.136 337.951C484.578 337.641 511.034 337.695 537.456 336.771C545.959 336.474 554.407 333.299 559.917 325.996C567.42 316.052 566.453 296.772 550.301 288.303C551.533 287.393 552.62 286.37 553.889 285.687C563.734 280.387 568.037 264.539 561.341 253.695C557.067 246.773 550.368 243.524 543.086 242.204C534.697 240.683 526.033 240.677 516.493 240.013ZM530.371 108C505.651 108 480.93 108 456.351 108C456.351 140.796 456.351 172.699 456.351 205C459.332 205 461.968 205 464.604 205C483.258 205 501.922 204.636 520.562 205.151C530.143 205.416 539.457 205.17 548.546 201.978C558.788 198.382 565.908 188.475 564.805 178.178C563.784 168.652 559.942 160.532 549.886 156.453C551.904 155.118 553.574 154.113 555.138 152.964C565.226 145.554 569.031 128.869 558.768 118.274C551.251 110.513 541.503 108.683 530.371 108ZM915.415 187C906.143 186.665 896.833 186.737 887.614 185.858C880.91 185.218 875.315 182.016 871.851 175.641C867.428 167.501 867.44 158.703 868.137 150.02C869.38 134.532 880.382 125.53 894.587 125.899C911.239 126.331 927.911 126.008 944.574 125.99C946.321 125.988 948.068 125.84 949.631 125.769C949.631 119.188 949.631 113.267 949.631 107.978C925.185 107.978 901.052 106.944 877.055 108.309C858.237 109.379 845.296 120.854 840.224 139.05C837.887 147.435 837.644 156.777 838.346 165.534C839.074 174.632 842.365 183.254 848.847 190.509C859.031 201.91 872.367 205.008 886.578 205.888C892.144 206.233 897.785 205.102 903.397 205.046C917.392 204.908 931.39 205.001 945.387 205.001C947.145 205.001 948.902 205.001 950.704 205.001C950.704 185.001 950.704 165.752 950.704 146.396C930.371 146.396 910.337 146.396 890.324 146.396C890.324 152.716 890.324 158.633 890.324 165.197C901.35 165.197 912.062 165.197 922.649 165.197C922.649 172.774 922.649 179.694 922.649 187C920.331 187 918.36 187 915.415 187ZM809 285.5C809 270.087 809 254.674 809 239.342C800.247 239.342 792.327 239.342 783.983 239.342C783.983 261.403 783.983 283.129 783.983 305.752C782.289 303.84 781.103 302.734 780.189 301.437C766.384 281.838 752.639 262.197 738.775 242.64C737.929 241.446 736.219 240.153 734.887 240.127C724.44 239.921 713.987 240.013 703.82 240.013C703.82 272.549 703.82 304.547 703.82 336.576C712.686 336.576 720.724 336.576 729.344 336.576C729.344 313.692 729.344 291.227 729.344 267.671C746.262 290.849 762.436 313.029 778.659 335.173C779.458 336.264 780.666 337.819 781.715 337.844C790.652 338.058 799.597 337.967 809 337.967C809 320.419 809 303.46 809 285.5ZM770.5 108C752.421 108 734.342 108 716.333 108C716.333 141.073 716.333 173.322 716.333 205.565C725.043 205.565 733.415 205.565 742.246 205.565C742.246 192.877 742.246 180.619 742.246 168.011C751.688 168.011 760.662 167.947 769.632 168.099C770.642 168.116 771.922 169.137 772.586 170.05C778.762 178.542 785.51 186.721 790.728 195.776C795.452 203.973 801.197 207.478 810.619 206.145C816.217 205.353 822.018 206 828.636 206C818.244 191.97 808.607 178.958 798.873 165.815C799.808 165.215 800.424 164.62 801.156 164.381C813.415 160.386 820.184 152.264 821.132 139.139C822.24 123.793 815.552 112.414 798.761 109.249C789.91 107.58 780.602 108.338 770.5 108ZM913.501 310.999C905.5 302.852 897.5 294.704 890.814 287.895C906.193 271.142 920.953 255.064 935.702 238.999C927.695 238.999 919.241 239.248 910.812 238.9C906.208 238.711 902.942 240.525 899.915 243.562C888.039 255.484 876.132 267.375 864.222 279.262C863.109 280.372 861.891 281.376 859.911 283.16C859.911 267.898 859.911 253.681 859.911 239.412C850.335 239.412 841.3 239.412 832.77 239.412C832.77 272.372 832.77 304.91 832.77 337.606C842.244 337.606 850.942 337.606 860.231 337.606C860.231 322.383 860.231 307.544 860.231 295.151C869.196 303.362 879.188 312.367 889.001 321.562C894.293 326.52 898.445 333.829 904.635 336.376C910.911 338.958 919.064 336.984 926.394 336.999C930.044 337.007 933.694 337 938.322 337C929.588 327.842 921.794 319.671 913.501 310.999ZM679.51 337.001C684.733 337.001 689.957 337.001 696.106 337.001C693.669 332.541 691.677 328.984 689.766 325.385C675.047 297.658 660.382 269.902 645.531 242.246C644.728 240.75 642.45 239.22 640.794 239.147C633.317 238.815 625.811 238.843 618.331 239.138C616.853 239.196 614.82 240.668 614.096 242.043C603.751 261.702 593.599 281.463 583.371 301.184C581.102 305.558 578.637 309.831 576.411 314.226C572.508 321.93 568.72 329.692 564.61 337.984C573.999 337.984 582.485 338.104 590.96 337.86C592.31 337.821 594.178 336.439 594.839 335.172C597.727 329.638 600.392 323.976 602.856 318.239C603.93 315.736 605.315 314.895 608.04 314.932C619.692 315.092 631.417 315.781 642.98 314.759C652.706 313.898 658.545 316.71 661.102 326.242C663.494 335.153 669.207 339.091 679.51 337.001ZM1032.36 107C1026.53 107 1020.69 106.783 1014.89 107.138C1013.22 107.24 1010.94 108.606 1010.15 110.053C1005.09 119.283 1000.33 128.678 995.54 138.054C985.657 157.408 975.832 176.792 965.945 196.145C964.349 199.271 962.558 202.298 960.514 205.992C970.117 205.992 978.763 206.093 987.402 205.882C988.678 205.851 990.479 204.638 991.078 203.477C993.867 198.077 996.67 192.632 998.751 186.941C999.874 183.871 1001.22 182.91 1004.34 182.94C1018.66 183.08 1032.98 183.184 1047.3 182.879C1051.09 182.798 1052.49 184.498 1053.77 187.416C1055.95 192.379 1058.26 197.282 1060.66 202.141C1061.19 203.218 1062.3 204.787 1063.17 204.806C1072.35 205 1081.55 204.926 1091.59 204.926C1085.97 194.437 1080.8 184.939 1075.76 175.375C1064.8 154.571 1053.75 133.809 1043.09 112.847C1040.83 108.385 1038.36 105.984 1032.36 107ZM660.259 184.902C657.724 185.941 655.237 187.709 652.645 187.878C646.137 188.304 639.531 188.521 633.057 187.883C622.851 186.877 613.609 180.676 613.902 167.163C614.297 149.011 614 130.845 614 112.684C614 110.92 614 109.155 614 107.272C605.05 107.272 596.8 107.272 588.243 107.272C588.154 109.147 588.011 110.768 588.01 112.39C587.995 133.216 587.968 154.042 588.013 174.868C588.037 185.864 593.509 194.046 602.86 198.817C625.652 210.444 649.438 209.463 672.86 201.332C685.911 196.801 694.493 186.083 694.102 169.622C693.659 150.973 694 132.304 694 113.644C694 111.884 694 110.123 694 108.287C684.687 108.287 676.104 108.287 667 108.287C667 110.355 667 112.143 667 113.931C667 132.091 666.972 150.252 667.015 168.412C667.03 174.592 665.156 179.991 660.259 184.902ZM381.081 364.51C383.045 357.861 385.915 351.32 386.727 344.534C387.598 337.241 386.055 329.881 380.593 324.077C372.558 315.537 362.516 315.091 352.107 317.477C333.489 321.744 319.919 333.279 309.164 348.524C301.107 359.946 296.94 372.504 297.945 386.669C298.452 393.813 304.636 402.534 311.261 405.01C323.039 409.412 334.229 406.808 344.754 401.523C360.718 393.509 372.439 380.904 381.081 364.51Z" fill="white"/>
<path d="M1 329.25C9.98432 333.101 19.5962 335.606 29.1984 333.745C41.2774 331.404 53.3935 328.29 64.8357 323.824C90.086 313.969 112.591 299.03 134.292 283.028C146.822 273.789 158.75 263.71 170.693 253.705C178.286 247.343 185.75 240.756 192.687 233.695C222.455 203.394 250.605 171.725 273.037 135.424C286.346 113.888 299.779 92.3119 306.907 67.7687C310.158 56.5744 312.668 44.9315 313.499 33.3475C314.081 25.242 312.455 16.5745 308.004 8.80176C311.746 12.7965 315.578 16.7105 319.209 20.8036C325.874 28.3177 332.395 35.9592 339.022 43.5083C351.207 57.3904 363.438 71.2323 375.621 85.1161C379.849 89.9346 384.288 94.6078 388.108 99.736C394.369 108.139 396.469 117.995 397.013 128.29C398.347 153.556 390.62 176.623 380.425 199.239C368.594 225.488 352.733 249.221 335.355 271.938C326.564 283.429 316.43 293.905 306.745 304.697C300.995 311.104 295.185 317.493 288.973 323.441C263.922 347.425 237.308 369.478 207.189 386.897C189.481 397.138 170.997 405.751 150.82 410.14C150.261 410.262 149.826 410.951 149.667 411.687C136.312 412 122.625 412 108.792 411.704C105.722 410.077 102.498 409.171 99.9284 407.343C89.6852 400.057 79.4312 392.756 69.5746 384.963C46.5954 366.795 23.8438 348.339 1 330C1 330 1 329.5 1 329.25Z" fill="#1093CF"/>
<path d="M273.531 1C274.436 1.65364 274.736 2.6946 275.329 2.90414C289.317 7.84663 294.446 18.8487 294.912 32.4822C295.491 49.4092 290.465 65.234 284.084 80.6801C283.708 81.59 283.298 82.4939 283.019 83.4345C280.354 92.4023 275.619 98.2109 265.977 102.006C244.156 110.595 224.986 124.106 206.63 138.742C187.376 154.095 169.919 171.32 152.729 188.851C148.695 192.966 145.021 197.465 141.47 202.013C139.131 205.009 137.286 204.778 134.742 202.348C122.99 191.122 111.216 179.916 99.3081 168.856C88.1565 158.497 76.873 148.279 65.5399 138.119C63.0733 135.908 62.6706 133.957 64.9614 131.561C79.4233 116.434 93.0843 100.42 108.57 86.4253C125.871 70.7915 144.587 56.6759 163.131 42.4802C183.202 27.1162 205.401 15.3791 229.067 6.48307C233.757 4.72016 238.582 3.31714 243.173 1.37408C253.021 1 263.042 1 273.531 1Z" fill="#086AAC"/>
<path d="M1201 205.531C1193.84 205.999 1186.67 205.82 1179.52 206.077C1176.12 206.2 1173.9 204.942 1172.02 202.322C1156.79 181.137 1141.53 159.98 1126.26 138.83C1125.9 138.343 1125.3 138.038 1124.13 137.106C1124.13 159.974 1124.13 182.145 1124.13 204.655C1115.35 204.655 1107.1 204.655 1097.92 204.655C1097.92 172.789 1097.92 140.812 1097.92 107.999C1103.83 107.999 1110.5 108.698 1116.97 107.842C1127.78 106.411 1134.01 110.586 1139.87 119.84C1151.32 137.933 1164.51 154.929 1177.77 173.489C1177.77 150.734 1177.77 129.246 1177.77 107.001C1185.56 107.001 1192.81 107.001 1200.53 107C1201 139.687 1201 172.375 1201 205.531Z" fill="#086AAC"/>
<path d="M1 330.469C23.8438 348.339 46.5954 366.795 69.5746 384.963C79.4312 392.756 89.6852 400.057 99.9284 407.343C102.498 409.171 105.722 410.077 108.323 411.704C72.4161 412 36.8322 412 1 412C1 384.98 1 357.959 1 330.469Z" fill="white"/>
<path d="M516.991 240.013C526.033 240.677 534.697 240.683 543.086 242.204C550.368 243.524 557.067 246.773 561.341 253.695C568.037 264.539 563.734 280.387 553.889 285.687C552.62 286.37 551.533 287.392 550.301 288.303C566.453 296.771 567.42 316.052 559.917 325.996C554.407 333.299 545.959 336.474 537.456 336.771C511.034 337.695 484.578 337.641 458.136 337.951C457.661 337.956 457.184 337.769 456.36 337.6C456.36 305.367 456.36 273.12 456.36 240.013C476.338 240.013 496.415 240.013 516.991 240.013ZM534.576 311.894C534.841 310.197 535.534 308.436 535.293 306.815C534.437 301.072 530.452 298.095 523.571 298.028C513.248 297.928 502.922 298.001 492.597 298C489.505 298 486.413 298 483.299 298C483.299 305.008 483.299 311.256 483.299 318C486.048 318 488.505 317.996 490.961 318C501.119 318.016 511.308 317.564 521.422 318.236C527.141 318.617 531.31 317.592 534.576 311.894ZM532.994 262.526C529.979 259.434 526.454 257.862 521.992 257.944C512.185 258.124 502.372 258 492.561 258.001C489.476 258.001 486.391 258.001 483.295 258.001C483.295 265.018 483.295 271.261 483.295 278.013C487.027 278.013 490.48 277.933 493.929 278.028C503.843 278.301 513.754 278.866 523.666 278.852C527.734 278.847 531.875 277.576 533.963 273.466C535.709 270.028 536.432 266.401 532.994 262.526Z" fill="#086AAC"/>
<path d="M530.851 108C541.503 108.683 551.251 110.513 558.769 118.274C569.031 128.869 565.226 145.554 555.138 152.964C553.574 154.113 551.904 155.118 549.886 156.453C559.942 160.532 563.784 168.652 564.805 178.178C565.908 188.475 558.788 198.382 548.546 201.979C539.457 205.17 530.143 205.416 520.562 205.152C501.922 204.636 483.258 205 464.604 205C461.968 205 459.332 205 456.351 205C456.351 172.699 456.351 140.796 456.351 108C480.93 108 505.651 108 530.851 108ZM500.501 186C507.65 186.038 514.842 185.599 521.934 186.251C528.821 186.884 534.569 183.33 535.796 176.442C536.633 171.744 531.913 166.992 525.408 166.062C524.266 165.899 523.084 166.003 521.92 166.002C510.779 165.999 499.637 166.001 488.495 166.001C486.752 166.001 485.008 166.001 483.324 166.001C483.324 173.073 483.324 179.315 483.324 186C488.929 186 494.215 186 500.501 186ZM521.281 126.001C509.012 126.001 496.743 126.001 484.392 126.001C484.392 132.982 484.392 139.349 484.392 145.993C498.77 145.993 512.749 146.183 526.716 145.883C531.194 145.786 534.297 142.878 534.987 138.18C536.062 130.858 531.094 126.176 521.281 126.001Z" fill="#086AAC"/>
<path d="M915.902 187C918.36 187 920.331 187 922.649 187C922.649 179.694 922.649 172.774 922.649 165.197C912.063 165.197 901.35 165.197 890.324 165.197C890.324 158.633 890.324 152.716 890.324 146.396C910.338 146.396 930.371 146.396 950.704 146.396C950.704 165.752 950.704 185.001 950.704 205.001C948.902 205.001 947.145 205 945.387 205C931.39 205.001 917.392 204.908 903.397 205.046C897.786 205.102 892.144 206.233 886.578 205.888C872.367 205.008 859.031 201.91 848.847 190.509C842.366 183.254 839.074 174.632 838.346 165.534C837.644 156.777 837.887 147.435 840.224 139.05C845.296 120.854 858.237 109.379 877.055 108.309C901.052 106.944 925.185 107.978 949.631 107.978C949.631 113.267 949.631 119.188 949.631 125.769C948.068 125.84 946.321 125.988 944.574 125.99C927.911 126.007 911.239 126.331 894.588 125.899C880.382 125.53 869.38 134.532 868.137 150.02C867.44 158.703 867.429 167.501 871.851 175.641C875.315 182.016 880.91 185.218 887.614 185.858C896.833 186.737 906.143 186.665 915.902 187Z" fill="#086AAC"/>
<path d="M809 286C809 303.46 809 320.419 809 337.966C799.597 337.966 790.652 338.058 781.715 337.844C780.666 337.819 779.458 336.264 778.659 335.173C762.436 313.029 746.262 290.849 729.344 267.671C729.344 291.227 729.344 313.692 729.344 336.576C720.724 336.576 712.686 336.576 703.82 336.576C703.82 304.547 703.82 272.549 703.82 240.013C713.987 240.013 724.44 239.921 734.887 240.127C736.219 240.153 737.929 241.446 738.775 242.64C752.639 262.197 766.384 281.838 780.189 301.437C781.103 302.734 782.289 303.84 783.983 305.752C783.983 283.129 783.983 261.403 783.983 239.342C792.327 239.342 800.247 239.342 809 239.342C809 254.673 809 270.087 809 286Z" fill="#086AAC"/>
<path d="M771 108C780.602 108.338 789.91 107.58 798.761 109.249C815.552 112.414 822.24 123.793 821.132 139.14C820.184 152.264 813.415 160.386 801.156 164.382C800.424 164.62 799.808 165.215 798.873 165.815C808.607 178.958 818.245 191.97 828.636 206C822.018 206 816.217 205.354 810.619 206.145C801.197 207.478 795.452 203.973 790.729 195.776C785.51 186.721 778.762 178.542 772.586 170.05C771.922 169.137 770.642 168.116 769.632 168.099C760.662 167.947 751.688 168.011 742.246 168.011C742.246 180.619 742.246 192.877 742.246 205.565C733.415 205.565 725.043 205.565 716.333 205.565C716.333 173.322 716.333 141.074 716.333 108C734.342 108 752.421 108 771 108ZM756.506 125.999C751.755 125.999 747.004 125.999 742.325 125.999C742.325 133.735 742.325 140.651 742.325 148.013C744.44 148.013 746.237 147.969 748.031 148.021C758.798 148.331 769.568 148.585 780.33 149.016C788.138 149.328 794.112 144.197 794.013 136.997C793.921 130.355 789.202 126.129 781.479 126.025C773.489 125.918 765.496 126 756.506 125.999Z" fill="#086AAC"/>
<path d="M913.751 311.249C921.794 319.671 929.588 327.842 938.322 337C933.694 337 930.044 337.007 926.394 336.999C919.063 336.984 910.911 338.958 904.635 336.376C898.445 333.829 894.293 326.52 889.001 321.562C879.188 312.367 869.196 303.362 860.231 295.151C860.231 307.544 860.231 322.383 860.231 337.606C850.942 337.606 842.244 337.606 832.77 337.606C832.77 304.909 832.77 272.372 832.77 239.412C841.3 239.412 850.335 239.412 859.911 239.412C859.911 253.681 859.911 267.898 859.911 283.16C861.891 281.376 863.109 280.372 864.221 279.262C876.132 267.375 888.039 255.484 899.915 243.562C902.942 240.525 906.208 238.71 910.811 238.9C919.241 239.248 927.695 238.999 935.702 238.999C920.953 255.064 906.193 271.142 890.814 287.895C897.5 294.704 905.5 302.852 913.751 311.249Z" fill="#086AAC"/>
<path d="M679.014 337.001C669.207 339.091 663.494 335.153 661.102 326.242C658.545 316.71 652.706 313.898 642.98 314.759C631.417 315.781 619.692 315.092 608.04 314.932C605.315 314.895 603.93 315.736 602.855 318.239C600.391 323.976 597.727 329.638 594.839 335.172C594.178 336.439 592.31 337.821 590.96 337.86C582.485 338.104 573.999 337.984 564.61 337.984C568.72 329.692 572.508 321.93 576.411 314.226C578.637 309.831 581.102 305.558 583.371 301.184C593.599 281.463 603.751 261.702 614.096 242.043C614.82 240.668 616.853 239.196 618.331 239.138C625.811 238.843 633.317 238.815 640.794 239.147C642.45 239.22 644.728 240.75 645.531 242.246C660.382 269.902 675.047 297.658 689.766 325.385C691.677 328.984 693.669 332.541 696.106 337.001C689.957 337.001 684.733 337.001 679.014 337.001ZM629.502 295.999C634.735 295.999 639.968 295.999 645.864 295.999C640.3 284.361 635.075 273.432 629.468 261.703C623.924 273.547 618.83 284.433 613.416 295.999C619.222 295.999 623.864 295.999 629.502 295.999Z" fill="#086AAC"/>
<path d="M1032.84 107C1038.36 105.984 1040.83 108.385 1043.1 112.847C1053.75 133.809 1064.8 154.571 1075.76 175.375C1080.8 184.939 1085.97 194.437 1091.59 204.926C1081.55 204.926 1072.35 205 1063.17 204.806C1062.3 204.787 1061.19 203.218 1060.66 202.141C1058.26 197.282 1055.95 192.379 1053.77 187.417C1052.49 184.498 1051.09 182.798 1047.3 182.879C1032.98 183.184 1018.66 183.08 1004.34 182.94C1001.22 182.91 999.874 183.871 998.751 186.941C996.67 192.632 993.867 198.077 991.078 203.477C990.479 204.638 988.678 205.851 987.402 205.882C978.763 206.093 970.117 205.992 960.514 205.992C962.558 202.298 964.349 199.271 965.946 196.145C975.832 176.792 985.657 157.408 995.54 138.054C1000.33 128.678 1005.09 119.283 1010.15 110.053C1010.94 108.606 1013.22 107.24 1014.89 107.138C1020.69 106.783 1026.53 107 1032.84 107ZM1031.43 163.999C1034.69 163.999 1037.95 163.999 1041.91 163.999C1036.51 152.557 1031.45 141.81 1025.9 130.048C1020.3 141.801 1015.13 152.627 1009.71 163.999C1017.16 163.999 1023.81 163.999 1031.43 163.999Z" fill="#086AAC"/>
<path d="M660.586 184.714C665.156 179.991 667.03 174.592 667.015 168.412C666.972 150.252 667 132.091 667 113.931C667 112.143 667 110.355 667 108.287C676.104 108.287 684.687 108.287 694 108.287C694 110.123 694 111.884 694 113.644C694 132.304 693.659 150.973 694.102 169.622C694.493 186.083 685.911 196.801 672.86 201.332C649.438 209.463 625.652 210.444 602.86 198.817C593.509 194.046 588.037 185.864 588.013 174.868C587.968 154.042 587.995 133.216 588.01 112.39C588.011 110.768 588.154 109.147 588.243 107.272C596.8 107.272 605.05 107.272 614 107.272C614 109.155 614 110.92 614 112.684C614 130.845 614.297 149.011 613.902 167.163C613.609 180.677 622.851 186.877 633.057 187.883C639.532 188.521 646.137 188.304 652.645 187.878C655.237 187.709 657.724 185.942 660.586 184.714Z" fill="#086AAC"/>
<path d="M381.016 364.889C372.439 380.904 360.718 393.509 344.754 401.523C334.229 406.808 323.039 409.412 311.261 405.01C304.636 402.534 298.452 393.813 297.945 386.669C296.94 372.504 301.107 359.945 309.164 348.524C319.919 333.279 333.489 321.744 352.107 317.477C362.516 315.091 372.558 315.537 380.593 324.077C386.055 329.881 387.598 337.241 386.727 344.534C385.915 351.32 383.045 357.861 381.016 364.889Z" fill="#F78E20"/>
<path d="M534.348 312.197C531.31 317.592 527.141 318.617 521.422 318.237C511.308 317.564 501.119 318.017 490.961 318C488.505 317.996 486.048 318 483.299 318C483.299 311.256 483.299 305.008 483.299 298C486.413 298 489.505 298 492.597 298C502.922 298.001 513.247 297.928 523.571 298.028C530.452 298.095 534.437 301.072 535.293 306.815C535.534 308.436 534.841 310.197 534.348 312.197Z" fill="white"/>
<path d="M533.262 262.786C536.432 266.401 535.709 270.028 533.963 273.466C531.875 277.576 527.734 278.847 523.666 278.852C513.754 278.866 503.843 278.301 493.929 278.028C490.48 277.933 487.027 278.013 483.295 278.013C483.295 271.261 483.295 265.018 483.295 258.001C486.391 258.001 489.476 258.001 492.561 258.001C502.372 258 512.185 258.124 521.992 257.944C526.454 257.862 529.979 259.434 533.262 262.786Z" fill="white"/>
<path d="M500.002 186C494.215 186 488.929 186 483.324 186C483.324 179.315 483.324 173.073 483.324 166.001C485.008 166.001 486.752 166.001 488.495 166.001C499.637 166.001 510.779 165.999 521.92 166.002C523.084 166.003 524.266 165.899 525.409 166.062C531.913 166.992 536.633 171.744 535.796 176.442C534.569 183.33 528.821 186.884 521.934 186.251C514.842 185.599 507.65 186.038 500.002 186Z" fill="white"/>
<path d="M521.749 126.001C531.094 126.176 536.062 130.858 534.987 138.179C534.297 142.878 531.194 145.786 526.716 145.883C512.749 146.183 498.77 145.993 484.392 145.993C484.392 139.349 484.392 132.982 484.392 126.001C496.743 126.001 509.012 126.001 521.749 126.001Z" fill="white"/>
<path d="M757.005 125.999C765.496 126 773.489 125.918 781.479 126.025C789.202 126.129 793.922 130.355 794.013 136.997C794.112 144.197 788.138 149.328 780.33 149.016C769.568 148.585 758.798 148.331 748.031 148.021C746.237 147.969 744.44 148.013 742.325 148.013C742.325 140.651 742.325 133.735 742.325 125.999C747.004 125.999 751.755 125.999 757.005 125.999Z" fill="white"/>
<path d="M629.004 295.999C623.865 295.999 619.222 295.999 613.417 295.999C618.83 284.433 623.925 273.547 629.468 261.703C635.075 273.432 640.3 284.361 645.864 295.999C639.969 295.999 634.735 295.999 629.004 295.999Z" fill="white"/>
<path d="M1030.94 163.999C1023.81 163.999 1017.16 163.999 1009.71 163.999C1015.13 152.627 1020.3 141.802 1025.9 130.048C1031.45 141.81 1036.51 152.557 1041.91 163.999C1037.95 163.999 1034.69 163.999 1030.94 163.999Z" fill="white"/>
</g>
<defs>
<clipPath id="clip0_10_41">
<rect width="1200" height="411" fill="white"/>
</clipPath>
</defs>
</svg>
