<svg version="1.1" id="Layer_1" xmlns="http://www.w3.org/2000/svg" xmlns:xlink="http://www.w3.org/1999/xlink" x="0px" y="0px"
	 width="60%" viewBox="0 0 2560 563" enable-background="new 0 0 2560 563" xml:space="preserve">
<path fill="#fffff" opacity="1.000000" stroke="none" 
	d="
M1.000000,155.000000 
	C1.000000,103.675194 1.000000,52.350388 1.000000,1.000000 
	C756.032715,1.000000 1511.065430,1.000000 2266.837646,1.297381 
	C2267.128662,2.046488 2266.751953,2.619479 2266.221436,2.932264 
	C2252.120850,11.248940 2245.079834,23.258001 2245.904297,39.934307 
	C2246.412354,50.213554 2245.998291,60.538380 2245.998291,70.883667 
	C2214.317383,76.234680 2185.659180,88.120750 2159.197510,105.894318 
	C2152.427246,98.717514 2145.846924,91.495682 2138.993652,84.542595 
	C2131.172607,76.607643 2121.382324,72.044395 2110.396729,72.223526 
	C2099.744385,72.397240 2090.132324,76.121277 2082.138428,84.155083 
	C2067.233887,99.133789 2067.347656,124.557304 2082.368896,139.843185 
	C2089.840088,147.446060 2097.481934,154.881592 2104.762939,162.111450 
	C2101.151611,168.029343 2097.435059,173.509094 2094.331299,179.316330 
	C2083.448486,199.678436 2074.818848,220.887726 2070.953369,243.814484 
	C2070.553955,246.183548 2069.132568,247.101471 2066.507568,247.069702 
	C2053.512207,246.912354 2040.512817,246.892044 2027.517334,247.039291 
	C2020.157471,247.122665 2013.558838,250.138138 2008.055542,254.611786 
	C1997.620483,263.094604 1992.609253,274.098053 1992.840576,287.961914 
	C1993.162231,307.239471 2010.714478,325.197723 2029.942261,325.021912 
	C2041.772095,324.913757 2053.604248,325.061157 2065.434326,324.960144 
	C2068.373779,324.935059 2069.629395,325.515778 2070.173340,328.943512 
	C2071.226807,335.580200 2073.182861,342.086609 2074.964111,348.592499 
	C2081.256836,371.575470 2091.574951,392.679626 2105.511963,412.689117 
	C2098.441895,419.856140 2091.566650,427.022400 2084.470703,433.962646 
	C2077.585693,440.696625 2074.510254,449.199646 2074.148193,458.351196 
	C2073.543213,473.639618 2079.341064,485.817810 2092.729492,494.486115 
	C2106.454590,503.372437 2128.387939,501.397949 2139.489990,490.022095 
	C2146.703125,482.630920 2154.022705,475.343750 2160.247559,469.065979 
	C2174.435791,476.256958 2187.656738,483.949677 2201.655518,489.773254 
	C2215.608887,495.577759 2230.341797,499.507751 2244.998291,504.347229 
	C2244.998291,513.949646 2245.010498,524.108826 2244.994873,534.267944 
	C2244.978760,544.889893 2247.917236,554.368347 2255.560303,562.091553 
	C2255.950928,562.486328 2255.864258,563.353027 2256.000000,564.000000 
	C1504.333374,564.000000 752.666687,564.000000 1.000000,564.000000 
	C1.000000,541.560791 1.000000,519.231262 1.468656,496.452026 
	C34.916851,496.002441 67.897545,496.157806 100.875244,495.911774 
	C111.265114,495.834290 121.701294,495.140900 132.020981,493.922363 
	C152.549667,491.498444 170.571854,482.871979 185.995453,469.344666 
	C201.326141,455.898773 212.648209,439.439606 220.827606,420.649750 
	C232.527954,393.771515 237.274323,365.441956 237.703842,336.535706 
	C237.972351,318.465332 236.036911,300.269073 233.856567,282.278839 
	C231.089523,259.447876 224.179642,237.761703 212.394531,217.780045 
	C201.362518,199.075241 186.790100,183.775162 167.964600,173.045029 
	C146.523132,160.823837 123.072647,155.204575 98.439240,155.050201 
	C65.960663,154.846619 33.479851,155.000046 1.000000,155.000000 
M595.043762,378.745178 
	C595.082825,379.497009 595.121826,380.248871 595.040283,381.930847 
	C595.080261,418.954132 595.120300,455.977448 595.056274,493.850403 
	C596.387207,494.567688 597.709290,495.887634 599.050476,495.907379 
	C610.350098,496.073822 621.653259,496.002472 632.955322,496.002472 
	C647.249146,496.002472 661.543091,496.018219 675.836792,495.983948 
	C677.819031,495.979187 680.602173,496.795532 679.959534,492.069336 
	C679.973022,471.121796 680.011536,450.174194 679.994080,429.226685 
	C679.967957,397.807343 679.902588,366.388000 679.826660,334.465759 
	C679.562683,334.268921 679.298767,334.072083 679.008911,332.987244 
	C678.710083,329.645447 678.411316,326.303619 678.027161,322.096008 
	C677.995117,320.063934 677.963013,318.031891 677.948120,315.455811 
	C677.661194,315.251831 677.374268,315.047821 677.022827,314.054810 
	C676.628113,312.035248 676.233398,310.015656 675.955200,307.318787 
	C675.648193,306.524902 675.341248,305.731018 675.008972,304.214905 
	C674.709045,303.130188 674.409119,302.045471 674.027466,300.229187 
	C673.750916,299.117981 673.474365,298.006805 673.042969,296.145203 
	C671.990967,293.097656 670.939026,290.050110 669.821228,286.380066 
	C669.232788,285.555603 668.644409,284.731140 667.991638,283.307404 
	C667.678650,282.838531 667.365662,282.369659 666.981995,281.247711 
	C666.357422,280.149200 665.732788,279.050659 664.989502,277.456726 
	C664.944153,277.293121 664.898743,277.129486 664.832397,276.465088 
	C664.569946,276.269653 664.307556,276.074219 663.742554,275.271515 
	C661.527405,272.497009 659.312256,269.722504 656.826294,266.394562 
	C655.918823,265.580841 655.011353,264.767120 653.796814,263.356018 
	C651.881592,261.870789 649.966370,260.385559 647.731018,258.289703 
	C644.211426,256.492950 640.691772,254.696167 636.968628,252.405075 
	C636.653870,252.295593 636.339050,252.186111 635.246765,252.015335 
	C633.497070,251.730820 631.747375,251.446320 629.354248,251.035004 
	C628.919678,250.989090 628.485046,250.943161 627.581604,250.295715 
	C626.055481,250.251068 624.529419,250.206406 622.338440,250.053818 
	C621.892273,250.089737 621.446167,250.125656 620.172363,250.039993 
	C618.781555,250.080536 617.390808,250.121063 615.254333,250.044739 
	C614.502869,250.083725 613.751465,250.122711 612.346497,250.066589 
	C611.566772,250.432175 610.787048,250.797745 609.281372,251.045334 
	C608.174438,251.326859 607.067566,251.608383 605.197327,251.978653 
	C602.120667,253.280869 599.044006,254.583084 595.323425,255.995148 
	C594.515564,256.646423 593.707703,257.297668 592.274231,258.014923 
	C591.499634,258.643097 590.725037,259.271271 589.336548,260.203033 
	C585.539551,264.103821 581.742554,268.004608 577.354187,272.201355 
	C576.869629,273.117096 576.385071,274.032837 575.328003,275.233032 
	C574.850830,276.140045 574.373657,277.047028 573.331665,278.231171 
	C572.869019,279.122498 572.406372,280.013824 571.330383,281.226410 
	C568.591003,285.135040 565.851624,289.043701 563.112305,292.952332 
	C562.841431,292.832581 562.570618,292.712830 562.299744,292.593079 
	C562.547485,287.421631 562.795227,282.250153 563.631348,276.637268 
	C563.699951,275.426514 563.768616,274.215759 563.956848,272.147156 
	C564.033997,270.133850 564.111145,268.120544 564.847046,265.567657 
	C564.847046,262.150757 564.847046,258.733856 564.847046,255.314423 
	C536.973633,255.314423 509.724854,255.314423 482.407104,255.314423 
	C482.407104,335.662323 482.407104,415.695374 482.407104,496.000153 
	C509.797546,496.000153 536.782837,495.957245 563.767578,496.055420 
	C567.073914,496.067444 567.293579,494.467773 566.959412,491.069153 
	C567.306335,448.246857 567.561035,405.423492 568.052246,362.602875 
	C568.214539,348.459930 575.836731,342.718445 588.221069,347.660309 
	C590.201782,351.771667 592.182434,355.883026 594.043213,360.823608 
	C594.082642,362.216766 594.122070,363.609955 594.042847,365.744873 
	C594.415771,367.161163 594.788696,368.577484 595.084534,370.514832 
	C595.109741,370.688568 595.135010,370.862335 595.038940,371.857178 
	C595.079712,373.238403 595.120422,374.619598 595.047607,376.663727 
	C595.085388,377.108856 595.123169,377.553986 595.043762,378.745178 
M1513.487793,495.729828 
	C1514.310913,495.820374 1515.134155,495.989655 1515.957275,495.990021 
	C1544.620239,496.003052 1573.283081,496.003448 1601.946045,495.984589 
	C1602.884644,495.983978 1603.823120,495.764282 1605.000000,495.616791 
	C1605.000000,493.525177 1605.000000,491.712677 1605.000000,489.900177 
	C1605.000000,449.738739 1604.968872,409.577240 1605.046997,369.415955 
	C1605.054932,365.318237 1605.437256,361.172607 1606.141235,357.135620 
	C1607.373413,350.070801 1612.437500,345.061401 1617.876099,345.003540 
	C1624.109863,344.937195 1628.533203,349.047607 1629.910767,357.097382 
	C1630.989258,363.398468 1631.879272,369.823059 1631.909912,376.197327 
	C1632.092407,414.024841 1632.000000,451.853729 1632.000000,489.682129 
	C1632.000000,491.625519 1632.000000,493.568909 1632.000000,495.591492 
	C1660.649658,495.591492 1688.681763,495.591492 1717.000000,495.591492 
	C1717.000000,493.197754 1717.000000,491.211212 1717.000000,489.224670 
	C1717.000000,441.230927 1716.884766,393.236755 1717.068848,345.243713 
	C1717.125610,330.449066 1715.473145,315.932526 1711.944214,301.623535 
	C1708.261353,286.690094 1702.198730,272.750427 1690.602173,262.312897 
	C1671.291138,244.931686 1640.080811,244.822235 1620.855469,264.886017 
	C1613.665649,272.389313 1608.435547,281.769958 1602.306641,290.290833 
	C1601.661377,291.188019 1600.981689,292.060425 1599.523682,294.002106 
	C1600.473755,280.185120 1601.319580,267.883728 1602.182983,255.326294 
	C1600.682739,255.170898 1599.888306,255.017075 1599.093872,255.016663 
	C1571.430786,255.002472 1543.767822,254.992508 1516.104858,255.040314 
	C1515.051025,255.042130 1513.998291,255.621719 1512.270264,256.462067 
	C1512.180298,257.452209 1512.011719,258.442383 1512.011597,259.432526 
	C1511.999268,336.596832 1511.995239,413.761108 1512.039307,490.925385 
	C1512.040039,492.307190 1512.628418,493.688660 1513.487793,495.729828 
M1210.028687,175.470276 
	C1207.125732,173.593658 1204.308960,171.564972 1201.305542,169.865906 
	C1185.740723,161.060760 1169.294678,155.053391 1151.156860,155.021545 
	C1111.499023,154.951920 1071.841064,155.000000 1032.183105,155.000000 
	C1030.252319,155.000000 1028.321533,155.000000 1025.675293,155.000000 
	C1025.675293,269.018494 1025.675293,382.333466 1025.675293,496.002808 
	C1027.655640,496.002808 1029.629639,496.002777 1031.603638,496.002777 
	C1073.427734,496.002777 1115.253418,496.209595 1157.074951,495.884583 
	C1170.711792,495.778595 1184.408447,495.282532 1197.694092,491.084320 
	C1215.005371,485.613953 1229.693481,476.658600 1240.211304,461.507446 
	C1249.639038,447.926514 1254.689331,432.914795 1256.135986,416.452759 
	C1257.724121,398.383789 1258.150146,380.572693 1251.033936,363.338562 
	C1246.875610,353.268127 1240.845703,344.323090 1233.151733,336.983032 
	C1226.261963,330.410217 1217.778076,325.508484 1210.340942,320.118256 
	C1214.860352,317.032990 1220.289307,313.837616 1225.129272,309.915405 
	C1234.876831,302.015930 1243.435669,292.819214 1246.711670,280.410522 
	C1250.402100,266.432465 1251.222412,252.024796 1248.905884,237.665573 
	C1244.734863,211.809174 1231.931519,191.183365 1210.028687,175.470276 
M1826.000000,237.500000 
	C1826.000000,210.756042 1826.000000,184.012085 1826.000000,157.339554 
	C1797.254395,157.339554 1769.338257,157.339554 1741.431519,157.339554 
	C1741.431519,270.373962 1741.431519,383.068146 1741.431519,495.672546 
	C1770.451538,495.672546 1799.038940,495.672546 1828.099854,495.672546 
	C1828.099854,457.231781 1828.099854,419.118103 1828.099854,381.004425 
	C1828.301392,380.991241 1828.502930,380.978088 1828.704468,380.964905 
	C1841.629761,419.232788 1854.555054,457.500671 1867.475586,495.754578 
	C1901.700928,495.754578 1935.625244,495.754578 1969.954956,495.754578 
	C1968.708740,492.552368 1967.773682,489.604584 1966.453125,486.840912 
	C1954.641724,462.120331 1942.760498,437.433044 1930.903320,412.734314 
	C1923.267212,396.828339 1915.550781,380.959442 1908.132568,364.952423 
	C1907.366699,363.299805 1907.782349,360.489105 1908.699097,358.777893 
	C1911.876465,352.847412 1915.582031,347.202850 1918.970459,341.381989 
	C1934.026001,315.519257 1949.048340,289.637177 1964.060547,263.749390 
	C1965.566162,261.153229 1966.923828,258.471313 1968.797607,255.000305 
	C1955.778320,255.000305 1943.970947,255.000275 1932.163452,255.000305 
	C1912.498779,255.000366 1892.833740,254.939056 1873.170410,255.107239 
	C1871.439453,255.122040 1868.658081,256.224792 1868.154053,257.519043 
	C1857.958130,283.702515 1848.031982,309.990875 1838.032104,336.250732 
	C1835.803833,342.102295 1833.501587,347.925659 1831.233521,353.761993 
	C1830.475464,353.728058 1829.717529,353.694122 1828.959595,353.660217 
	C1827.973022,348.103394 1826.178589,342.553253 1826.132812,336.988678 
	C1825.863037,304.160980 1826.000000,271.329926 1826.000000,237.500000 
M1376.629272,489.111450 
	C1384.022339,481.042572 1391.415405,472.973724 1398.824097,464.887817 
	C1398.004883,475.173309 1397.188721,485.420715 1396.379028,495.587402 
	C1426.918091,495.587402 1457.308838,495.587402 1487.663574,495.587402 
	C1487.663574,415.257965 1487.663574,335.344421 1487.663574,255.403915 
	C1456.969360,255.403915 1426.613403,255.403915 1396.419800,255.403915 
	C1397.290405,264.875458 1398.125366,273.958649 1398.976196,283.213257 
	C1394.620483,277.198120 1391.291748,270.871826 1386.405029,266.161926 
	C1368.402100,248.810226 1344.062744,245.186996 1321.341309,255.347580 
	C1302.774658,263.650238 1292.789917,279.623566 1285.051147,297.343689 
	C1275.693604,318.770294 1272.363647,341.608154 1271.255615,364.627991 
	C1270.566528,378.942291 1271.286499,393.525391 1273.282471,407.719452 
	C1276.071899,427.556335 1281.479980,446.865753 1291.760010,464.419647 
	C1302.282593,482.387848 1315.376465,497.005554 1337.484131,500.282745 
	C1351.996582,502.434021 1364.901001,499.253754 1376.629272,489.111450 
M277.983154,284.539459 
	C277.686005,284.938141 277.394379,285.341064 277.090881,285.734863 
	C258.731232,309.557648 251.188553,337.249542 249.174210,366.591583 
	C248.121521,381.925507 248.793411,397.347839 251.959290,412.565582 
	C257.327881,438.371155 267.671448,461.239594 288.728943,478.292023 
	C311.019531,496.342926 336.343658,503.226105 364.701050,500.067535 
	C383.846741,497.934998 400.820374,491.025513 415.807343,478.819580 
	C433.185669,464.666046 444.778809,446.987000 450.077209,425.197815 
	C450.779999,422.307556 451.497314,419.420807 452.277283,416.250488 
	C423.649994,416.250488 396.045288,416.250488 369.083557,416.250488 
	C367.261993,420.453583 365.928925,424.370728 363.950043,427.928589 
	C359.171753,436.519409 345.433502,437.784943 339.779083,430.181915 
	C332.006531,419.730804 332.238892,407.558777 332.045166,394.908234 
	C373.302460,394.908234 413.882721,394.908234 454.595367,394.908234 
	C454.771576,393.843536 454.942902,393.216858 454.970306,392.583923 
	C455.898956,371.156372 454.126190,349.999268 447.660797,329.469940 
	C442.068268,311.712067 433.696564,295.351410 420.986267,281.530182 
	C406.257812,265.514313 388.236084,255.183762 366.729797,251.420380 
	C348.282318,248.192245 330.235992,249.517258 313.011780,257.496185 
	C299.520203,263.746033 287.693909,272.186462 277.983154,284.539459 
M842.500000,496.002808 
	C893.238525,496.002808 943.977051,496.002808 994.670654,496.002808 
	C994.670654,469.609100 994.670654,444.027222 994.670654,417.884918 
	C972.963562,418.729980 951.502930,416.042480 930.145081,421.028015 
	C930.145081,419.744690 929.985657,419.181854 930.167786,418.770050 
	C941.947632,392.138184 953.411804,365.359253 965.666382,338.947144 
	C975.885437,316.922150 986.916565,295.269257 997.847046,273.582092 
	C1000.912659,267.499573 999.752563,261.475037 999.809143,255.316177 
	C939.625122,255.316177 880.049622,255.316177 820.415039,255.316177 
	C820.415039,281.000336 820.415039,306.366425 820.415039,332.709625 
	C840.459106,331.857941 860.048767,331.025543 879.728760,330.189331 
	C879.151917,331.435486 878.341980,333.191986 877.526367,334.945862 
	C871.138245,348.684052 864.706665,362.402222 858.368958,376.163605 
	C845.003906,405.183868 831.903076,434.328522 818.237427,463.206146 
	C813.302246,473.634918 810.171387,483.997253 812.729797,496.002808 
	C822.246216,496.002808 831.873108,496.002808 842.500000,496.002808 
M709.000000,420.500000 
	C709.000000,445.570160 709.000000,470.640350 709.000000,495.666992 
	C737.768738,495.666992 765.677185,495.666992 793.587097,495.666992 
	C793.587097,415.313202 793.587097,335.295959 793.587097,255.332153 
	C765.261780,255.332153 737.350708,255.332153 709.000000,255.332153 
	C709.000000,310.275269 709.000000,364.887634 709.000000,420.500000 
M738.500000,160.000000 
	C730.418030,160.000000 722.336121,160.000000 714.323792,160.000000 
	C714.323792,185.064896 714.323792,209.305176 714.323792,233.588287 
	C739.674133,233.588287 764.698547,233.588287 789.676880,233.588287 
	C789.676880,208.934921 789.676880,184.694656 789.676880,160.000000 
	C772.738281,160.000000 756.119141,160.000000 738.500000,160.000000 
z"/>
<path fill="#004C91" opacity="1.000000" stroke="none" 
	d="
M1.000000,155.468658 
	C33.479851,155.000046 65.960663,154.846619 98.439240,155.050201 
	C123.072647,155.204575 146.523132,160.823837 167.964600,173.045029 
	C186.790100,183.775162 201.362518,199.075241 212.394531,217.780045 
	C224.179642,237.761703 231.089523,259.447876 233.856567,282.278839 
	C236.036911,300.269073 237.972351,318.465332 237.703842,336.535706 
	C237.274323,365.441956 232.527954,393.771515 220.827606,420.649750 
	C212.648209,439.439606 201.326141,455.898773 185.995453,469.344666 
	C170.571854,482.871979 152.549667,491.498444 132.020981,493.922363 
	C121.701294,495.140900 111.265114,495.834290 100.875244,495.911774 
	C67.897545,496.157806 34.916851,496.002441 1.468656,496.001129 
	C1.000000,382.645782 1.000000,269.291534 1.000000,155.468658 
M90.999603,389.499878 
	C90.999603,396.589050 90.999603,403.678192 90.999603,410.792908 
	C108.068710,411.707275 120.169235,403.736115 129.504776,391.650513 
	C141.499863,376.121979 146.514297,357.701508 147.894150,338.416412 
	C149.089783,321.706116 147.372589,305.083282 142.914749,288.921600 
	C138.405884,272.574829 131.797546,257.275299 117.866882,246.365326 
	C110.051956,240.244949 101.292831,237.537903 90.999603,238.237701 
	C90.999603,288.642670 90.999603,338.571320 90.999603,389.499878 
z"/>
<path fill="#FFFEFE" opacity="1.000000" stroke="none" 
	d="
M2256.468750,564.000000 
	C2255.864258,563.353027 2255.950928,562.486328 2255.560303,562.091553 
	C2247.917236,554.368347 2244.978760,544.889893 2244.994873,534.267944 
	C2245.010498,524.108826 2244.998291,513.949646 2244.998291,504.347229 
	C2230.341797,499.507751 2215.608887,495.577759 2201.655518,489.773254 
	C2187.656738,483.949677 2174.435791,476.256958 2160.247559,469.065979 
	C2154.022705,475.343750 2146.703125,482.630920 2139.489990,490.022095 
	C2128.387939,501.397949 2106.454590,503.372437 2092.729492,494.486115 
	C2079.341064,485.817810 2073.543213,473.639618 2074.148193,458.351196 
	C2074.510254,449.199646 2077.585693,440.696625 2084.470703,433.962646 
	C2091.566650,427.022400 2098.441895,419.856140 2105.511963,412.689117 
	C2091.574951,392.679626 2081.256836,371.575470 2074.964111,348.592499 
	C2073.182861,342.086609 2071.226807,335.580200 2070.173340,328.943512 
	C2069.629395,325.515778 2068.373779,324.935059 2065.434326,324.960144 
	C2053.604248,325.061157 2041.772095,324.913757 2029.942261,325.021912 
	C2010.714478,325.197723 1993.162231,307.239471 1992.840576,287.961914 
	C1992.609253,274.098053 1997.620483,263.094604 2008.055542,254.611786 
	C2013.558838,250.138138 2020.157471,247.122665 2027.517334,247.039291 
	C2040.512817,246.892044 2053.512207,246.912354 2066.507568,247.069702 
	C2069.132568,247.101471 2070.553955,246.183548 2070.953369,243.814484 
	C2074.818848,220.887726 2083.448486,199.678436 2094.331299,179.316330 
	C2097.435059,173.509094 2101.151611,168.029343 2104.762939,162.111450 
	C2097.481934,154.881592 2089.840088,147.446060 2082.368896,139.843185 
	C2067.347656,124.557304 2067.233887,99.133789 2082.138428,84.155083 
	C2090.132324,76.121277 2099.744385,72.397240 2110.396729,72.223526 
	C2121.382324,72.044395 2131.172607,76.607643 2138.993652,84.542595 
	C2145.846924,91.495682 2152.427246,98.717514 2159.197510,105.894318 
	C2185.659180,88.120750 2214.317383,76.234680 2245.998291,70.883667 
	C2245.998291,60.538380 2246.412354,50.213554 2245.904297,39.934307 
	C2245.079834,23.258001 2252.120850,11.248940 2266.221436,2.932264 
	C2266.751953,2.619479 2267.128662,2.046488 2267.288574,1.297381 
	C2278.354248,1.000000 2289.708252,1.000000 2301.242432,1.297904 
	C2303.885010,3.390480 2306.360596,5.167511 2308.807861,6.982852 
	C2319.268311,14.742167 2323.369873,25.851801 2323.792480,38.164581 
	C2324.153076,48.664444 2323.031250,59.215183 2322.574463,69.528618 
	C2355.355957,75.444054 2384.552002,87.790672 2411.225098,106.460251 
	C2417.901123,99.720154 2424.525879,93.597694 2430.496826,86.892998 
	C2445.653809,69.873299 2475.244873,71.186119 2489.456787,89.817665 
	C2501.645508,105.796532 2500.274414,127.541557 2486.778076,141.658035 
	C2480.005859,148.741470 2472.897705,155.503662 2466.105713,162.247986 
	C2470.723877,170.080215 2475.544678,177.344315 2479.454834,185.069595 
	C2488.992188,203.912003 2496.275879,223.597366 2500.018799,244.478622 
	C2500.422119,246.728638 2501.243408,248.179871 2504.157227,248.082047 
	C2511.648193,247.830505 2519.161621,247.777496 2526.651367,248.047073 
	C2539.555664,248.511490 2550.695557,252.762711 2558.440918,263.814636 
	C2558.907471,264.480682 2560.129395,264.617096 2561.000000,265.000000 
	C2561.000000,279.687561 2561.000000,294.375122 2560.713135,309.243958 
	C2559.902832,309.831421 2559.242432,310.140533 2558.875488,310.657867 
	C2550.800293,322.041199 2539.470947,326.850403 2525.860107,326.988708 
	C2518.529053,327.063232 2511.190186,326.846069 2503.870361,327.144836 
	C2502.542236,327.199036 2500.512451,328.890991 2500.133301,330.208435 
	C2498.180664,336.998718 2496.900879,343.983032 2494.938477,350.770142 
	C2490.834473,364.966064 2485.598633,378.722870 2478.125488,391.552368 
	C2473.705322,399.140778 2469.410400,406.802124 2465.067383,414.416412 
	C2470.314941,420.049927 2475.212402,425.906006 2480.722900,431.113342 
	C2498.591797,447.999329 2496.902588,477.097656 2477.820312,491.734619 
	C2465.263184,501.366516 2446.276855,503.167999 2433.170166,493.417053 
	C2423.947998,486.555878 2415.799072,478.252228 2407.167725,470.589722 
	C2402.462891,473.341858 2397.315918,476.271820 2392.247559,479.331940 
	C2372.083008,491.506866 2350.198975,499.209106 2327.229736,503.825134 
	C2323.679688,504.538605 2322.897705,505.584839 2322.952148,508.772705 
	C2323.098145,517.268616 2322.989746,525.768616 2323.004883,534.267029 
	C2323.023438,544.889221 2320.082764,554.367920 2312.439697,562.091492 
	C2312.049072,562.486084 2312.135742,563.353088 2312.000000,564.000000 
	C2293.645752,564.000000 2275.291748,564.000000 2256.468750,564.000000 
M2460.721924,378.169556 
	C2472.049561,356.259674 2478.915283,332.950775 2481.997070,308.315460 
	C2484.343994,308.315460 2486.162354,308.314880 2487.980713,308.315582 
	C2499.646484,308.319977 2511.316406,308.515350 2522.977295,308.275757 
	C2534.703369,308.034821 2544.905762,298.719604 2545.931152,287.806824 
	C2546.797119,278.587402 2537.902588,267.896942 2527.166260,265.482361 
	C2524.925293,264.978394 2522.540527,264.989868 2520.221191,264.981659 
	C2507.583740,264.936951 2494.946289,264.960388 2482.117676,264.960388 
	C2477.669678,226.883148 2463.817139,192.969315 2440.512207,162.939545 
	C2442.073730,161.275650 2443.300293,159.929306 2444.568848,158.623398 
	C2453.276367,149.657501 2462.090820,140.792725 2470.675293,131.710617 
	C2477.472168,124.519867 2478.890137,115.978989 2475.938477,106.662926 
	C2473.378174,98.583008 2467.038330,95.323380 2459.304688,94.435440 
	C2451.561768,93.546455 2445.004883,96.312355 2439.448975,101.819527 
	C2429.417725,111.763168 2419.249268,121.568031 2409.003662,131.561874 
	C2379.128662,107.538788 2344.667725,93.399307 2306.459961,88.921631 
	C2306.459961,73.613693 2305.896729,58.939732 2306.631348,44.331051 
	C2307.263428,31.762098 2298.666992,20.546970 2286.365723,19.891294 
	C2273.075439,19.182907 2262.772461,28.932253 2262.873291,42.063816 
	C2262.980957,56.060917 2263.038086,70.058395 2263.114746,84.055733 
	C2263.123535,85.666069 2263.115723,87.276497 2263.115723,88.969353 
	C2224.426025,93.361641 2190.317627,107.524765 2159.706787,131.867310 
	C2158.421143,130.294815 2157.467285,128.919708 2156.309814,127.745346 
	C2146.717285,118.012093 2137.160645,108.241341 2127.443115,98.633926 
	C2120.527100,91.796539 2112.207275,90.264580 2102.987061,92.938667 
	C2094.822754,95.306549 2091.389160,101.512032 2090.343262,109.233414 
	C2089.246338,117.331589 2091.960205,124.330376 2097.776611,130.075928 
	C2108.551514,140.720184 2119.349609,151.341492 2130.169922,162.003876 
	C2106.261719,192.764526 2092.523682,226.900513 2088.183105,264.907654 
	C2071.377197,264.907654 2055.056396,264.794037 2038.737671,264.947052 
	C2027.615845,265.051331 2017.505005,273.930023 2015.989380,284.505524 
	C2014.651733,293.839508 2022.497192,304.364258 2033.215698,307.278992 
	C2035.737671,307.964813 2038.469849,308.091675 2041.107056,308.104523 
	C2055.439453,308.174408 2069.773193,308.209198 2084.104492,308.060242 
	C2087.371582,308.026276 2088.689209,308.837006 2089.128906,312.373077 
	C2092.348633,338.269287 2100.363037,362.664490 2113.423828,385.254547 
	C2118.885010,394.700226 2125.262451,403.616394 2131.340332,412.953278 
	C2130.200439,414.144531 2128.959473,415.480042 2127.677246,416.774750 
	C2118.412842,426.129852 2109.068848,435.407013 2099.892822,444.847839 
	C2092.259766,452.701263 2090.837891,464.036713 2096.033691,473.450195 
	C2099.799316,480.272400 2108.894775,484.214905 2118.240234,481.783936 
	C2122.824707,480.591461 2127.478271,477.847198 2130.964355,474.589294 
	C2141.764648,464.496552 2152.019287,453.820343 2162.666504,443.189941 
	C2192.382324,466.472015 2225.827393,480.187439 2262.877930,484.870697 
	C2262.877930,500.727753 2262.886475,516.041748 2262.875244,531.355713 
	C2262.865967,543.822205 2272.687988,553.486755 2285.176025,553.273865 
	C2297.303955,553.066956 2306.990967,542.935791 2306.745361,530.961792 
	C2306.454834,516.810913 2306.432129,502.654358 2306.112549,488.504333 
	C2306.041504,485.356781 2306.953857,484.282593 2310.201416,483.900513 
	C2330.852539,481.470764 2350.774414,476.037170 2369.274414,466.585724 
	C2382.677979,459.738037 2395.356445,451.471771 2407.935791,444.086029 
	C2417.286621,453.080475 2427.515869,462.167297 2436.845215,472.099030 
	C2446.763428,482.657593 2460.750488,484.134979 2470.239258,474.611725 
	C2479.656494,465.160248 2478.490967,451.217987 2468.026855,441.547241 
	C2457.899658,432.188049 2448.227295,422.336731 2438.993652,413.325104 
	C2446.544678,401.100006 2453.432617,389.948425 2460.721924,378.169556 
z"/>
<path fill="#fffff" opacity="1.000000" stroke="none" 
	d="
M2561.000000,264.531342 
	C2560.129395,264.617096 2558.907471,264.480682 2558.440918,263.814636 
	C2550.695557,252.762711 2539.555664,248.511490 2526.651367,248.047073 
	C2519.161621,247.777496 2511.648193,247.830505 2504.157227,248.082047 
	C2501.243408,248.179871 2500.422119,246.728638 2500.018799,244.478622 
	C2496.275879,223.597366 2488.992188,203.912003 2479.454834,185.069595 
	C2475.544678,177.344315 2470.723877,170.080215 2466.105713,162.247986 
	C2472.897705,155.503662 2480.005859,148.741470 2486.778076,141.658035 
	C2500.274414,127.541557 2501.645508,105.796532 2489.456787,89.817665 
	C2475.244873,71.186119 2445.653809,69.873299 2430.496826,86.892998 
	C2424.525879,93.597694 2417.901123,99.720154 2411.225098,106.460251 
	C2384.552002,87.790672 2355.355957,75.444054 2322.574463,69.528618 
	C2323.031250,59.215183 2324.153076,48.664444 2323.792480,38.164581 
	C2323.369873,25.851801 2319.268311,14.742167 2308.807861,6.982852 
	C2306.360596,5.167511 2303.885010,3.390480 2301.711182,1.297904 
	C2388.260986,1.000000 2474.522217,1.000000 2561.000000,1.000000 
	C2561.000000,88.687439 2561.000000,176.375061 2561.000000,264.531342 
z"/>
<path fill="#fffff" opacity="1.000000" stroke="none" 
	d="
M2312.468750,564.000000 
	C2312.135742,563.353088 2312.049072,562.486084 2312.439697,562.091492 
	C2320.082764,554.367920 2323.023438,544.889221 2323.004883,534.267029 
	C2322.989746,525.768616 2323.098145,517.268616 2322.952148,508.772705 
	C2322.897705,505.584839 2323.679688,504.538605 2327.229736,503.825134 
	C2350.198975,499.209106 2372.083008,491.506866 2392.247559,479.331940 
	C2397.315918,476.271820 2402.462891,473.341858 2407.167725,470.589722 
	C2415.799072,478.252228 2423.947998,486.555878 2433.170166,493.417053 
	C2446.276855,503.167999 2465.263184,501.366516 2477.820312,491.734619 
	C2496.902588,477.097656 2498.591797,447.999329 2480.722900,431.113342 
	C2475.212402,425.906006 2470.314941,420.049927 2465.067383,414.416412 
	C2469.410400,406.802124 2473.705322,399.140778 2478.125488,391.552368 
	C2485.598633,378.722870 2490.834473,364.966064 2494.938477,350.770142 
	C2496.900879,343.983032 2498.180664,336.998718 2500.133301,330.208435 
	C2500.512451,328.890991 2502.542236,327.199036 2503.870361,327.144836 
	C2511.190186,326.846069 2518.529053,327.063232 2525.860107,326.988708 
	C2539.470947,326.850403 2550.800293,322.041199 2558.875488,310.657867 
	C2559.242432,310.140533 2559.902832,309.831421 2560.713135,309.712646 
	C2561.000000,394.592957 2561.000000,479.185913 2561.000000,564.000000 
	C2478.312744,564.000000 2395.625000,564.000000 2312.468750,564.000000 
z"/>
<path fill="#004C91" opacity="1.000000" stroke="none" 
	d="
M1210.331299,175.673676 
	C1231.931519,191.183365 1244.734863,211.809174 1248.905884,237.665573 
	C1251.222412,252.024796 1250.402100,266.432465 1246.711670,280.410522 
	C1243.435669,292.819214 1234.876831,302.015930 1225.129272,309.915405 
	C1220.289307,313.837616 1214.860352,317.032990 1210.340942,320.118256 
	C1217.778076,325.508484 1226.261963,330.410217 1233.151733,336.983032 
	C1240.845703,344.323090 1246.875610,353.268127 1251.033936,363.338562 
	C1258.150146,380.572693 1257.724121,398.383789 1256.135986,416.452759 
	C1254.689331,432.914795 1249.639038,447.926514 1240.211304,461.507446 
	C1229.693481,476.658600 1215.005371,485.613953 1197.694092,491.084320 
	C1184.408447,495.282532 1170.711792,495.778595 1157.074951,495.884583 
	C1115.253418,496.209595 1073.427734,496.002777 1031.603638,496.002777 
	C1029.629639,496.002777 1027.655640,496.002808 1025.675293,496.002808 
	C1025.675293,382.333466 1025.675293,269.018494 1025.675293,155.000000 
	C1028.321533,155.000000 1030.252319,155.000000 1032.183105,155.000000 
	C1071.841064,155.000000 1111.499023,154.951920 1151.156860,155.021545 
	C1169.294678,155.053391 1185.740723,161.060760 1201.305542,169.865906 
	C1204.308960,171.564972 1207.125732,173.593658 1210.331299,175.673676 
M1157.161377,402.583527 
	C1158.706909,398.485901 1160.700806,394.495392 1161.710571,390.269714 
	C1164.330933,379.303802 1158.321899,365.248779 1149.391357,361.267883 
	C1139.050293,356.658295 1128.139771,358.005707 1116.937744,358.188690 
	C1117.326294,376.757782 1116.407104,394.759125 1117.510742,412.996155 
	C1124.918945,412.996155 1131.098755,413.438690 1137.187988,412.884277 
	C1144.828003,412.188660 1152.033569,409.944611 1157.161377,402.583527 
M1142.152954,240.044235 
	C1134.032715,236.639435 1125.648926,238.373520 1117.000000,238.070618 
	C1117.000000,246.408447 1117.000000,254.050110 1117.000000,261.691772 
	C1117.000000,269.298706 1117.000000,276.905670 1117.000000,284.983978 
	C1122.382935,284.983978 1127.259033,285.561249 1131.945679,284.864746 
	C1141.945068,283.378601 1147.660400,281.133850 1150.529175,269.768433 
	C1150.969849,268.022797 1151.325073,266.255615 1151.721313,264.498718 
	C1153.621216,256.077515 1149.262085,244.230515 1142.152954,240.044235 
z"/>
<path fill="#004C91" opacity="1.000000" stroke="none" 
	d="
M1826.000000,238.000000 
	C1826.000000,271.329926 1825.863037,304.160980 1826.132812,336.988678 
	C1826.178589,342.553253 1827.973022,348.103394 1828.959595,353.660217 
	C1829.717529,353.694122 1830.475464,353.728058 1831.233521,353.761993 
	C1833.501587,347.925659 1835.803833,342.102295 1838.032104,336.250732 
	C1848.031982,309.990875 1857.958130,283.702515 1868.154053,257.519043 
	C1868.658081,256.224792 1871.439453,255.122040 1873.170410,255.107239 
	C1892.833740,254.939056 1912.498779,255.000366 1932.163452,255.000305 
	C1943.970947,255.000275 1955.778320,255.000305 1968.797607,255.000305 
	C1966.923828,258.471313 1965.566162,261.153229 1964.060547,263.749390 
	C1949.048340,289.637177 1934.026001,315.519257 1918.970459,341.381989 
	C1915.582031,347.202850 1911.876465,352.847412 1908.699097,358.777893 
	C1907.782349,360.489105 1907.366699,363.299805 1908.132568,364.952423 
	C1915.550781,380.959442 1923.267212,396.828339 1930.903320,412.734314 
	C1942.760498,437.433044 1954.641724,462.120331 1966.453125,486.840912 
	C1967.773682,489.604584 1968.708740,492.552368 1969.954956,495.754578 
	C1935.625244,495.754578 1901.700928,495.754578 1867.475586,495.754578 
	C1854.555054,457.500671 1841.629761,419.232788 1828.704468,380.964905 
	C1828.502930,380.978088 1828.301392,380.991241 1828.099854,381.004425 
	C1828.099854,419.118103 1828.099854,457.231781 1828.099854,495.672546 
	C1799.038940,495.672546 1770.451538,495.672546 1741.431519,495.672546 
	C1741.431519,383.068146 1741.431519,270.373962 1741.431519,157.339554 
	C1769.338257,157.339554 1797.254395,157.339554 1826.000000,157.339554 
	C1826.000000,184.012085 1826.000000,210.756042 1826.000000,238.000000 
z"/>
<path fill="#004C91" opacity="1.000000" stroke="none" 
	d="
M1376.332520,489.315399 
	C1364.901001,499.253754 1351.996582,502.434021 1337.484131,500.282745 
	C1315.376465,497.005554 1302.282593,482.387848 1291.760010,464.419647 
	C1281.479980,446.865753 1276.071899,427.556335 1273.282471,407.719452 
	C1271.286499,393.525391 1270.566528,378.942291 1271.255615,364.627991 
	C1272.363647,341.608154 1275.693604,318.770294 1285.051147,297.343689 
	C1292.789917,279.623566 1302.774658,263.650238 1321.341309,255.347580 
	C1344.062744,245.186996 1368.402100,248.810226 1386.405029,266.161926 
	C1391.291748,270.871826 1394.620483,277.198120 1398.976196,283.213257 
	C1398.125366,273.958649 1397.290405,264.875458 1396.419800,255.403915 
	C1426.613403,255.403915 1456.969360,255.403915 1487.663574,255.403915 
	C1487.663574,335.344421 1487.663574,415.257965 1487.663574,495.587402 
	C1457.308838,495.587402 1426.918091,495.587402 1396.379028,495.587402 
	C1397.188721,485.420715 1398.004883,475.173309 1398.824097,464.887817 
	C1391.415405,472.973724 1384.022339,481.042572 1376.332520,489.315399 
M1363.109497,409.156464 
	C1364.540039,411.366516 1365.749512,413.764313 1367.439453,415.753967 
	C1374.576538,424.156158 1381.820190,425.322937 1387.829712,418.351471 
	C1391.045044,414.621552 1393.521362,409.698761 1394.743774,404.909119 
	C1398.675049,389.506927 1400.646362,373.868256 1396.994873,358.026917 
	C1394.751343,348.294861 1391.620239,338.988251 1384.247803,331.786133 
	C1380.361450,327.989441 1375.677002,326.964630 1372.242432,329.506348 
	C1369.605469,331.457703 1366.906128,333.810364 1365.311157,336.600128 
	C1358.324097,348.821136 1354.738892,362.272491 1355.255493,376.195312 
	C1355.664795,387.226776 1357.801636,398.303558 1363.109497,409.156464 
z"/>
<path fill="#004C91" opacity="1.000000" stroke="none" 
	d="
M1512.945068,255.932068 
	C1513.998291,255.621719 1515.051025,255.042130 1516.104858,255.040314 
	C1543.767822,254.992508 1571.430786,255.002472 1599.093872,255.016663 
	C1599.888306,255.017075 1600.682739,255.170898 1602.182983,255.326294 
	C1601.319580,267.883728 1600.473755,280.185120 1599.523682,294.002106 
	C1600.981689,292.060425 1601.661377,291.188019 1602.306641,290.290833 
	C1608.435547,281.769958 1613.665649,272.389313 1620.855469,264.886017 
	C1640.080811,244.822235 1671.291138,244.931686 1690.602173,262.312897 
	C1702.198730,272.750427 1708.261353,286.690094 1711.944214,301.623535 
	C1715.473145,315.932526 1717.125610,330.449066 1717.068848,345.243713 
	C1716.884766,393.236755 1717.000000,441.230927 1717.000000,489.224670 
	C1717.000000,491.211212 1717.000000,493.197754 1717.000000,495.591492 
	C1688.681763,495.591492 1660.649658,495.591492 1632.000000,495.591492 
	C1632.000000,493.568909 1632.000000,491.625519 1632.000000,489.682129 
	C1632.000000,451.853729 1632.092407,414.024841 1631.909912,376.197327 
	C1631.879272,369.823059 1630.989258,363.398468 1629.910767,357.097382 
	C1628.533203,349.047607 1624.109863,344.937195 1617.876099,345.003540 
	C1612.437500,345.061401 1607.373413,350.070801 1606.141235,357.135620 
	C1605.437256,361.172607 1605.054932,365.318237 1605.046997,369.415955 
	C1604.968872,409.577240 1605.000000,449.738739 1605.000000,489.900177 
	C1605.000000,491.712677 1605.000000,493.525177 1605.000000,495.616791 
	C1603.823120,495.764282 1602.884644,495.983978 1601.946045,495.984589 
	C1573.283081,496.003448 1544.620239,496.003052 1515.957275,495.990021 
	C1515.134155,495.989655 1514.310913,495.820374 1513.235352,494.926941 
	C1512.970215,414.726685 1512.957642,335.329376 1512.945068,255.932068 
z"/>
<path fill="#004C91" opacity="1.000000" stroke="none" 
	d="
M594.161499,365.003113 
	C594.122070,363.609955 594.082642,362.216766 594.456543,360.356812 
	C600.251587,356.356964 594.334045,353.301453 594.238525,349.982086 
	C594.138794,346.516693 590.568115,346.929993 587.892395,347.040039 
	C575.836731,342.718445 568.214539,348.459930 568.052246,362.602875 
	C567.561035,405.423492 567.306335,448.246857 566.443115,491.534576 
	C540.939819,491.999969 515.952087,491.904633 490.966370,492.087067 
	C486.422760,492.120209 484.903778,490.820038 484.911713,486.141296 
	C485.037445,412.179810 485.031311,338.217957 484.916534,264.256439 
	C484.910156,260.137268 486.016724,258.872955 490.208557,258.908691 
	C512.861877,259.101593 535.517639,258.994812 558.172607,259.012299 
	C559.620667,259.013428 561.068604,259.190552 561.872314,259.243408 
	C562.774597,261.917450 563.481445,264.012360 564.188293,266.107239 
	C564.111145,268.120544 564.033997,270.133850 563.576782,272.634766 
	C563.145386,274.441162 563.094177,275.759918 563.042969,277.078674 
	C562.795227,282.250153 562.547485,287.421631 562.299744,292.593079 
	C562.570618,292.712830 562.841431,292.832581 563.112305,292.952332 
	C565.851624,289.043701 568.591003,285.135040 571.860657,281.346191 
	C573.508301,281.294006 574.625732,281.121979 575.743103,280.949982 
	C575.127563,279.951324 574.512024,278.952698 573.896484,277.954041 
	C574.373657,277.047028 574.850830,276.140045 575.941650,275.232971 
	C577.557922,275.270233 578.560608,275.307556 579.563232,275.344879 
	C579.024048,274.198364 578.484802,273.051880 577.945557,271.905396 
	C581.742554,268.004608 585.539551,264.103821 589.828491,260.330170 
	C591.690796,260.586975 593.061157,260.716644 594.431580,260.846344 
	C593.921021,259.880524 593.410461,258.914703 592.899841,257.948914 
	C593.707703,257.297668 594.515564,256.646423 595.691162,256.307800 
	C597.428528,257.212189 599.139771,258.634521 600.102966,258.238312 
	C602.872437,257.099121 606.858948,256.577728 605.960632,251.889893 
	C607.067566,251.608383 608.174438,251.326859 609.707886,251.429626 
	C610.777344,252.118835 611.420349,252.423737 612.063293,252.728653 
	C612.375549,251.873001 612.687744,251.017365 613.000000,250.161713 
	C613.751465,250.122711 614.502869,250.083725 615.634399,250.467468 
	C616.881226,251.884018 617.748047,252.877853 618.614868,253.871674 
	C619.409912,252.634964 620.204956,251.398270 621.000000,250.161560 
	C621.446167,250.125656 621.892273,250.089737 622.718262,250.450378 
	C624.398743,251.564636 625.699402,252.282318 627.181274,253.238434 
	C628.240906,252.705170 629.119324,251.933487 629.997681,251.161804 
	C631.747375,251.446320 633.497070,251.730820 635.765869,252.257202 
	C636.526611,252.752533 636.822327,252.885971 637.172180,252.899399 
	C640.691772,254.696167 644.211426,256.492950 647.761658,258.901398 
	C648.861511,261.342072 649.930725,263.171051 651.042480,265.359406 
	C652.462036,269.195007 654.801025,267.966675 657.097107,266.947998 
	C659.312256,269.722504 661.527405,272.497009 663.960266,275.801788 
	C664.325806,276.625671 664.550964,276.836945 664.853333,276.965851 
	C664.898743,277.129486 664.944153,277.293121 664.731079,277.861023 
	C663.981750,279.510223 663.490845,280.755096 663.030701,282.292572 
	C663.707581,282.723419 664.353821,282.861694 665.310059,282.974426 
	C666.097656,282.599487 666.575134,282.250122 667.052612,281.900757 
	C667.365662,282.369659 667.678650,282.838531 667.835571,283.887695 
	C667.104614,285.344055 666.529663,286.220154 665.400024,287.941376 
	C667.741821,287.451385 668.814392,287.226959 669.886963,287.002563 
	C670.939026,290.050110 671.990967,293.097656 672.743469,296.586365 
	C671.703491,297.940948 670.962952,298.854401 670.222412,299.767853 
	C671.518005,300.165497 672.813599,300.563141 674.109192,300.960754 
	C674.409119,302.045471 674.709045,303.130188 674.903076,304.860809 
	C675.144409,306.336487 675.491577,307.166290 675.838684,307.996094 
	C676.233398,310.015656 676.628113,312.035248 677.021729,314.726746 
	C677.013733,315.584045 677.006775,315.769470 676.643127,316.034119 
	C673.846985,319.208923 675.207275,321.291351 678.112549,322.961823 
	C678.411316,326.303619 678.710083,329.645447 679.091431,333.658722 
	C679.323853,334.624695 679.550537,334.837524 679.853882,334.968658 
	C679.902588,366.388000 679.967957,397.807343 679.994080,429.226685 
	C680.011536,450.174194 679.973022,471.121796 679.443359,492.534668 
	C651.951416,493.000000 624.975708,493.000000 597.989990,492.576904 
	C597.653381,489.205017 597.048340,486.256744 597.042542,483.307312 
	C596.975952,449.204987 597.000000,415.102478 597.271973,380.768127 
	C597.695984,379.357513 597.848022,378.178741 598.265747,376.776978 
	C600.076477,373.084106 597.348083,372.225220 595.160217,371.036072 
	C595.135010,370.862335 595.109741,370.688568 595.455811,370.182556 
	C597.946167,367.315613 597.063171,365.812531 594.161499,365.003113 
z"/>
<path fill="#004C91" opacity="1.000000" stroke="none" 
	d="
M278.232117,284.278748 
	C287.693909,272.186462 299.520203,263.746033 313.011780,257.496185 
	C330.235992,249.517258 348.282318,248.192245 366.729797,251.420380 
	C388.236084,255.183762 406.257812,265.514313 420.986267,281.530182 
	C433.696564,295.351410 442.068268,311.712067 447.660797,329.469940 
	C454.126190,349.999268 455.898956,371.156372 454.970306,392.583923 
	C454.942902,393.216858 454.771576,393.843536 454.595367,394.908234 
	C413.882721,394.908234 373.302460,394.908234 332.045166,394.908234 
	C332.238892,407.558777 332.006531,419.730804 339.779083,430.181915 
	C345.433502,437.784943 359.171753,436.519409 363.950043,427.928589 
	C365.928925,424.370728 367.261993,420.453583 369.083557,416.250488 
	C396.045288,416.250488 423.649994,416.250488 452.277283,416.250488 
	C451.497314,419.420807 450.779999,422.307556 450.077209,425.197815 
	C444.778809,446.987000 433.185669,464.666046 415.807343,478.819580 
	C400.820374,491.025513 383.846741,497.934998 364.701050,500.067535 
	C336.343658,503.226105 311.019531,496.342926 288.728943,478.292023 
	C267.671448,461.239594 257.327881,438.371155 251.959290,412.565582 
	C248.793411,397.347839 248.121521,381.925507 249.174210,366.591583 
	C251.188553,337.249542 258.731232,309.557648 277.090881,285.734863 
	C277.394379,285.341064 277.686005,284.938141 278.232117,284.278748 
M364.343445,344.999268 
	C366.441345,344.999268 368.539276,344.999268 371.956451,344.999268 
	C369.509644,337.564758 368.068848,330.760071 365.102081,324.702820 
	C359.741730,313.758484 347.124512,311.483948 339.789642,319.819733 
	C333.648254,326.799133 332.388275,335.497528 331.952606,344.999268 
	C342.821594,344.999268 353.100098,344.999268 364.343445,344.999268 
z"/>
<path fill="#004C91" opacity="1.000000" stroke="none" 
	d="
M842.000000,496.002808 
	C831.873108,496.002808 822.246216,496.002808 812.729797,496.002808 
	C810.171387,483.997253 813.302246,473.634918 818.237427,463.206146 
	C831.903076,434.328522 845.003906,405.183868 858.368958,376.163605 
	C864.706665,362.402222 871.138245,348.684052 877.526367,334.945862 
	C878.341980,333.191986 879.151917,331.435486 879.728760,330.189331 
	C860.048767,331.025543 840.459106,331.857941 820.415039,332.709625 
	C820.415039,306.366425 820.415039,281.000336 820.415039,255.316177 
	C880.049622,255.316177 939.625122,255.316177 999.809143,255.316177 
	C999.752563,261.475037 1000.912659,267.499573 997.847046,273.582092 
	C986.916565,295.269257 975.885437,316.922150 965.666382,338.947144 
	C953.411804,365.359253 941.947632,392.138184 930.167786,418.770050 
	C929.985657,419.181854 930.145081,419.744690 930.145081,421.028015 
	C951.502930,416.042480 972.963562,418.729980 994.670654,417.884918 
	C994.670654,444.027222 994.670654,469.609100 994.670654,496.002808 
	C943.977051,496.002808 893.238525,496.002808 842.000000,496.002808 
z"/>
<path fill="#004C91" opacity="1.000000" stroke="none" 
	d="
M709.000000,420.000000 
	C709.000000,364.887634 709.000000,310.275269 709.000000,255.332153 
	C737.350708,255.332153 765.261780,255.332153 793.587097,255.332153 
	C793.587097,335.295959 793.587097,415.313202 793.587097,495.666992 
	C765.677185,495.666992 737.768738,495.666992 709.000000,495.666992 
	C709.000000,470.640350 709.000000,445.570160 709.000000,420.000000 
z"/>
<path fill="#004C91" opacity="1.000000" stroke="none" 
	d="
M739.000000,160.000000 
	C756.119141,160.000000 772.738281,160.000000 789.676880,160.000000 
	C789.676880,184.694656 789.676880,208.934921 789.676880,233.588287 
	C764.698547,233.588287 739.674133,233.588287 714.323792,233.588287 
	C714.323792,209.305176 714.323792,185.064896 714.323792,160.000000 
	C722.336121,160.000000 730.418030,160.000000 739.000000,160.000000 
z"/>
<path fill="#004C91" opacity="1.000000" stroke="none" 
	d="
M564.517700,265.837463 
	C563.481445,264.012360 562.774597,261.917450 561.872314,259.243408 
	C561.068604,259.190552 559.620667,259.013428 558.172607,259.012299 
	C535.517639,258.994812 512.861877,259.101593 490.208557,258.908691 
	C486.016724,258.872955 484.910156,260.137268 484.916534,264.256439 
	C485.031311,338.217957 485.037445,412.179810 484.911713,486.141296 
	C484.903778,490.820038 486.422760,492.120209 490.966370,492.087067 
	C515.952087,491.904633 540.939819,491.999969 566.382812,491.999634 
	C567.293579,494.467773 567.073914,496.067444 563.767578,496.055420 
	C536.782837,495.957245 509.797546,496.000153 482.407104,496.000153 
	C482.407104,415.695374 482.407104,335.662323 482.407104,255.314423 
	C509.724854,255.314423 536.973633,255.314423 564.847046,255.314423 
	C564.847046,258.733856 564.847046,262.150757 564.517700,265.837463 
z"/>
<path fill="#004C91" opacity="1.000000" stroke="none" 
	d="
M598.000000,493.000000 
	C624.975708,493.000000 651.951416,493.000000 679.383057,492.999725 
	C680.602173,496.795532 677.819031,495.979187 675.836792,495.983948 
	C661.543091,496.018219 647.249146,496.002472 632.955322,496.002472 
	C621.653259,496.002472 610.350098,496.073822 599.050476,495.907379 
	C597.709290,495.887634 596.387207,494.567688 595.462769,493.425201 
	C596.579529,493.000000 597.289734,493.000000 598.000000,493.000000 
z"/>
<path fill="#fffff" opacity="1.000000" stroke="none" 
	d="
M1512.607666,256.197052 
	C1512.957642,335.329376 1512.970215,414.726685 1512.962646,494.597168 
	C1512.628418,493.688660 1512.040039,492.307190 1512.039307,490.925385 
	C1511.995239,413.761108 1511.999268,336.596832 1512.011597,259.432526 
	C1512.011719,258.442383 1512.180298,257.452209 1512.607666,256.197052 
z"/>
<path fill="#004C91" opacity="1.000000" stroke="none" 
	d="
M597.989990,492.576904 
	C597.289734,493.000000 596.579529,493.000000 595.514771,493.000366 
	C595.120300,455.977448 595.080261,418.954132 595.406799,381.465424 
	C596.182190,381.000000 596.591125,381.000000 597.000000,381.000000 
	C597.000000,415.102478 596.975952,449.204987 597.042542,483.307312 
	C597.048340,486.256744 597.653381,489.205017 597.989990,492.576904 
z"/>
<path fill="#004C91" opacity="1.000000" stroke="none" 
	d="
M588.056763,347.350159 
	C590.568115,346.929993 594.138794,346.516693 594.238525,349.982086 
	C594.334045,353.301453 600.251587,356.356964 594.516479,359.942200 
	C592.182434,355.883026 590.201782,351.771667 588.056763,347.350159 
z"/>
<path fill="#004C91" opacity="1.000000" stroke="none" 
	d="
M605.578979,251.934265 
	C606.858948,256.577728 602.872437,257.099121 600.102966,258.238312 
	C599.139771,258.634521 597.428528,257.212189 596.013184,256.252869 
	C599.044006,254.583084 602.120667,253.280869 605.578979,251.934265 
z"/>
<path fill="#004C91" opacity="1.000000" stroke="none" 
	d="
M651.000000,265.000000 
	C649.930725,263.171051 648.861511,261.342072 647.921753,259.206726 
	C649.966370,260.385559 651.881592,261.870789 653.643921,263.783447 
	C652.660706,264.473938 651.830322,264.736969 651.000000,265.000000 
z"/>
<path fill="#004C91" opacity="1.000000" stroke="none" 
	d="
M595.099609,371.446625 
	C597.348083,372.225220 600.076477,373.084106 598.015747,376.776978 
	C597.500000,377.000000 597.000000,377.000000 596.850586,376.764801 
	C596.187866,376.353363 595.674500,376.177094 595.161133,376.000824 
	C595.120422,374.619598 595.079712,373.238403 595.099609,371.446625 
z"/>
<path fill="#004C91" opacity="1.000000" stroke="none" 
	d="
M620.586182,250.100784 
	C620.204956,251.398270 619.409912,252.634964 618.614868,253.871674 
	C617.748047,252.877853 616.881226,251.884018 616.007202,250.525894 
	C617.390808,250.121063 618.781555,250.080536 620.586182,250.100784 
z"/>
<path fill="#004C91" opacity="1.000000" stroke="none" 
	d="
M678.069824,322.528931 
	C675.207275,321.291351 673.846985,319.208923 676.875549,316.052856 
	C677.464661,315.992371 677.930969,315.999817 677.930969,315.999817 
	C677.963013,318.031891 677.995117,320.063934 678.069824,322.528931 
z"/>
<path fill="#004C91" opacity="1.000000" stroke="none" 
	d="
M651.042480,265.359406 
	C651.830322,264.736969 652.660706,264.473938 653.797485,264.082153 
	C655.011353,264.767120 655.918823,265.580841 656.961670,266.671265 
	C654.801025,267.966675 652.462036,269.195007 651.042480,265.359406 
z"/>
<path fill="#004C91" opacity="1.000000" stroke="none" 
	d="
M663.000000,282.000000 
	C663.490845,280.755096 663.981750,279.510223 664.790405,278.108734 
	C665.732788,279.050659 666.357422,280.149200 667.017334,281.574219 
	C666.575134,282.250122 666.097656,282.599487 665.142761,282.729279 
	C664.110229,282.339813 663.555115,282.169891 663.000000,282.000000 
z"/>
<path fill="#004C91" opacity="1.000000" stroke="none" 
	d="
M592.587036,257.981934 
	C593.410461,258.914703 593.921021,259.880524 594.431580,260.846344 
	C593.061157,260.716644 591.690796,260.586975 590.135376,260.178406 
	C590.725037,259.271271 591.499634,258.643097 592.587036,257.981934 
z"/>
<path fill="#004C91" opacity="1.000000" stroke="none" 
	d="
M674.068359,300.594971 
	C672.813599,300.563141 671.518005,300.165497 670.222412,299.767853 
	C670.962952,298.854401 671.703491,297.940948 672.820923,296.961548 
	C673.474365,298.006805 673.750916,299.117981 674.068359,300.594971 
z"/>
<path fill="#004C91" opacity="1.000000" stroke="none" 
	d="
M573.614075,278.092590 
	C574.512024,278.952698 575.127563,279.951324 575.743103,280.949982 
	C574.625732,281.121979 573.508301,281.294006 572.167358,281.185577 
	C572.406372,280.013824 572.869019,279.122498 573.614075,278.092590 
z"/>
<path fill="#004C91" opacity="1.000000" stroke="none" 
	d="
M627.000000,253.000000 
	C625.699402,252.282318 624.398743,251.564636 623.050720,250.504349 
	C624.529419,250.206406 626.055481,250.251068 627.703613,250.869049 
	C627.550415,251.961609 627.275208,252.480804 627.000000,253.000000 
z"/>
<path fill="#004C91" opacity="1.000000" stroke="none" 
	d="
M577.649902,272.053375 
	C578.484802,273.051880 579.024048,274.198364 579.563232,275.344879 
	C578.560608,275.307556 577.557922,275.270233 576.227905,275.090759 
	C576.385071,274.032837 576.869629,273.117096 577.649902,272.053375 
z"/>
<path fill="#004C91" opacity="1.000000" stroke="none" 
	d="
M594.102173,365.373993 
	C597.063171,365.812531 597.946167,367.315613 595.494385,369.922028 
	C594.788696,368.577484 594.415771,367.161163 594.102173,365.373993 
z"/>
<path fill="#004C91" opacity="1.000000" stroke="none" 
	d="
M597.000000,377.000000 
	C597.000000,377.000000 597.500000,377.000000 597.750000,377.000000 
	C597.848022,378.178741 597.695984,379.357513 597.271973,380.768127 
	C596.591125,381.000000 596.182190,381.000000 595.467102,381.000366 
	C595.121826,380.248871 595.082825,379.497009 595.380493,378.347137 
	C596.144775,377.632721 596.572388,377.316345 597.000000,377.000000 
z"/>
<path fill="#004C91" opacity="1.000000" stroke="none" 
	d="
M669.854126,286.691315 
	C668.814392,287.226959 667.741821,287.451385 665.400024,287.941376 
	C666.529663,286.220154 667.104614,285.344055 667.867798,284.187317 
	C668.644409,284.731140 669.232788,285.555603 669.854126,286.691315 
z"/>
<path fill="#004C91" opacity="1.000000" stroke="none" 
	d="
M612.673218,250.114151 
	C612.687744,251.017365 612.375549,251.873001 612.063293,252.728653 
	C611.420349,252.423737 610.777344,252.118835 610.070862,251.488617 
	C610.787048,250.797745 611.566772,250.432175 612.673218,250.114151 
z"/>
<path fill="#004C91" opacity="1.000000" stroke="none" 
	d="
M627.181274,253.238434 
	C627.275208,252.480804 627.550415,251.961609 627.937988,251.169830 
	C628.485046,250.943161 628.919678,250.989090 629.675964,251.098404 
	C629.119324,251.933487 628.240906,252.705170 627.181274,253.238434 
z"/>
<path fill="#004C91" opacity="1.000000" stroke="none" 
	d="
M563.337158,276.857971 
	C563.094177,275.759918 563.145386,274.441162 563.516968,273.063721 
	C563.768616,274.215759 563.699951,275.426514 563.337158,276.857971 
z"/>
<path fill="#004C91" opacity="1.000000" stroke="none" 
	d="
M675.896973,307.657440 
	C675.491577,307.166290 675.144409,306.336487 674.915771,305.221924 
	C675.341248,305.731018 675.648193,306.524902 675.896973,307.657440 
z"/>
<path fill="#004C91" opacity="1.000000" stroke="none" 
	d="
M596.850586,376.764771 
	C596.572388,377.316345 596.144775,377.632721 595.439087,377.974121 
	C595.123169,377.553986 595.085388,377.108856 595.104370,376.332275 
	C595.674500,376.177094 596.187866,376.353363 596.850586,376.764771 
z"/>
<path fill="#004C91" opacity="1.000000" stroke="none" 
	d="
M637.070435,252.652237 
	C636.822327,252.885971 636.526611,252.752533 636.154663,252.287842 
	C636.339050,252.186111 636.653870,252.295593 637.070435,252.652237 
z"/>
<path fill="#004C91" opacity="1.000000" stroke="none" 
	d="
M679.840271,334.717224 
	C679.550537,334.837524 679.323853,334.624695 679.104370,334.102722 
	C679.298767,334.072083 679.562683,334.268921 679.840271,334.717224 
z"/>
<path fill="#004C91" opacity="1.000000" stroke="none" 
	d="
M677.939575,315.727814 
	C677.930969,315.999817 677.464661,315.992371 677.232239,315.973633 
	C677.006775,315.769470 677.013733,315.584045 677.053955,315.121216 
	C677.374268,315.047821 677.661194,315.251831 677.939575,315.727814 
z"/>
<path fill="#004C91" opacity="1.000000" stroke="none" 
	d="
M664.842896,276.715454 
	C664.550964,276.836945 664.325806,276.625671 664.111572,276.105408 
	C664.307556,276.074219 664.569946,276.269653 664.842896,276.715454 
z"/>
<path fill="#fffff" opacity="1.000000" stroke="none" 
	d="
M90.999603,388.999939 
	C90.999603,338.571320 90.999603,288.642670 90.999603,238.237701 
	C101.292831,237.537903 110.051956,240.244949 117.866882,246.365326 
	C131.797546,257.275299 138.405884,272.574829 142.914749,288.921600 
	C147.372589,305.083282 149.089783,321.706116 147.894150,338.416412 
	C146.514297,357.701508 141.499863,376.121979 129.504776,391.650513 
	C120.169235,403.736115 108.068710,411.707275 90.999603,410.792908 
	C90.999603,403.678192 90.999603,396.589050 90.999603,388.999939 
z"/>
<path fill="#CE173B" opacity="1.000000" stroke="none" 
	d="
M2460.521240,378.483215 
	C2453.432617,389.948425 2446.544678,401.100006 2438.993652,413.325104 
	C2448.227295,422.336731 2457.899658,432.188049 2468.026855,441.547241 
	C2478.490967,451.217987 2479.656494,465.160248 2470.239258,474.611725 
	C2460.750488,484.134979 2446.763428,482.657593 2436.845215,472.099030 
	C2427.515869,462.167297 2417.286621,453.080475 2407.935791,444.086029 
	C2395.356445,451.471771 2382.677979,459.738037 2369.274414,466.585724 
	C2350.774414,476.037170 2330.852539,481.470764 2310.201416,483.900513 
	C2306.953857,484.282593 2306.041504,485.356781 2306.112549,488.504333 
	C2306.432129,502.654358 2306.454834,516.810913 2306.745361,530.961792 
	C2306.990967,542.935791 2297.303955,553.066956 2285.176025,553.273865 
	C2272.687988,553.486755 2262.865967,543.822205 2262.875244,531.355713 
	C2262.886475,516.041748 2262.877930,500.727753 2262.877930,484.870697 
	C2225.827393,480.187439 2192.382324,466.472015 2162.666504,443.189941 
	C2152.019287,453.820343 2141.764648,464.496552 2130.964355,474.589294 
	C2127.478271,477.847198 2122.824707,480.591461 2118.240234,481.783936 
	C2108.894775,484.214905 2099.799316,480.272400 2096.033691,473.450195 
	C2090.837891,464.036713 2092.259766,452.701263 2099.892822,444.847839 
	C2109.068848,435.407013 2118.412842,426.129852 2127.677246,416.774750 
	C2128.959473,415.480042 2130.200439,414.144531 2131.340332,412.953278 
	C2125.262451,403.616394 2118.885010,394.700226 2113.423828,385.254547 
	C2100.363037,362.664490 2092.348633,338.269287 2089.128906,312.373077 
	C2088.689209,308.837006 2087.371582,308.026276 2084.104492,308.060242 
	C2069.773193,308.209198 2055.439453,308.174408 2041.107056,308.104523 
	C2038.469849,308.091675 2035.737671,307.964813 2033.215698,307.278992 
	C2022.497192,304.364258 2014.651733,293.839508 2015.989380,284.505524 
	C2017.505005,273.930023 2027.615845,265.051331 2038.737671,264.947052 
	C2055.056396,264.794037 2071.377197,264.907654 2088.183105,264.907654 
	C2092.523682,226.900513 2106.261719,192.764526 2130.169922,162.003876 
	C2119.349609,151.341492 2108.551514,140.720184 2097.776611,130.075928 
	C2091.960205,124.330376 2089.246338,117.331589 2090.343262,109.233414 
	C2091.389160,101.512032 2094.822754,95.306549 2102.987061,92.938667 
	C2112.207275,90.264580 2120.527100,91.796539 2127.443115,98.633926 
	C2137.160645,108.241341 2146.717285,118.012093 2156.309814,127.745346 
	C2157.467285,128.919708 2158.421143,130.294815 2159.706787,131.867310 
	C2190.317627,107.524765 2224.426025,93.361641 2263.115723,88.969353 
	C2263.115723,87.276497 2263.123535,85.666069 2263.114746,84.055733 
	C2263.038086,70.058395 2262.980957,56.060917 2262.873291,42.063816 
	C2262.772461,28.932253 2273.075439,19.182907 2286.365723,19.891294 
	C2298.666992,20.546970 2307.263428,31.762098 2306.631348,44.331051 
	C2305.896729,58.939732 2306.459961,73.613693 2306.459961,88.921631 
	C2344.667725,93.399307 2379.128662,107.538788 2409.003662,131.561874 
	C2419.249268,121.568031 2429.417725,111.763168 2439.448975,101.819527 
	C2445.004883,96.312355 2451.561768,93.546455 2459.304688,94.435440 
	C2467.038330,95.323380 2473.378174,98.583008 2475.938477,106.662926 
	C2478.890137,115.978989 2477.472168,124.519867 2470.675293,131.710617 
	C2462.090820,140.792725 2453.276367,149.657501 2444.568848,158.623398 
	C2443.300293,159.929306 2442.073730,161.275650 2440.512207,162.939545 
	C2463.817139,192.969315 2477.669678,226.883148 2482.117676,264.960388 
	C2494.946289,264.960388 2507.583740,264.936951 2520.221191,264.981659 
	C2522.540527,264.989868 2524.925293,264.978394 2527.166260,265.482361 
	C2537.902588,267.896942 2546.797119,278.587402 2545.931152,287.806824 
	C2544.905762,298.719604 2534.703369,308.034821 2522.977295,308.275757 
	C2511.316406,308.515350 2499.646484,308.319977 2487.980713,308.315582 
	C2486.162354,308.314880 2484.343994,308.315460 2481.997070,308.315460 
	C2478.915283,332.950775 2472.049561,356.259674 2460.521240,378.483215 
M2298.342529,221.935532 
	C2305.607422,224.567566 2312.872070,227.199600 2319.321045,229.536011 
	C2334.391113,214.486481 2349.618652,199.279617 2364.947754,183.971603 
	C2345.458740,168.450653 2322.873535,158.988464 2296.968750,156.239868 
	C2296.968750,158.139862 2296.968750,159.776505 2296.968750,161.413132 
	C2296.968750,179.875183 2296.955322,198.337280 2296.991943,216.799271 
	C2296.995117,218.425262 2297.327881,220.050583 2298.342529,221.935532 
M2334.234863,359.266266 
	C2328.840576,353.646667 2323.446289,348.027039 2318.673584,343.054932 
	C2312.189941,345.587402 2307.064697,348.105072 2301.651367,349.522858 
	C2298.031494,350.470947 2296.933105,351.775879 2296.972656,355.471954 
	C2297.167725,373.786652 2297.061768,392.104523 2297.061768,410.421295 
	C2297.061768,411.975067 2297.061523,413.528839 2297.061523,415.457336 
	C2322.337891,412.795715 2344.080566,403.857697 2363.318848,388.904205 
	C2353.601318,378.998627 2344.166748,369.381439 2334.234863,359.266266 
M2160.086182,321.381287 
	C2165.035645,338.225983 2172.574951,353.696564 2183.482422,366.939636 
	C2199.060791,351.432068 2214.254395,336.307159 2229.235352,321.394257 
	C2227.114258,316.473663 2224.616455,311.563538 2222.906006,306.393036 
	C2221.807617,303.072540 2220.231201,302.199890 2216.885010,302.229431 
	C2198.074463,302.395386 2179.261963,302.302948 2160.449951,302.324005 
	C2159.192627,302.325409 2157.935059,302.535309 2156.045166,302.705048 
	C2157.405029,308.957611 2158.669189,314.770264 2160.086182,321.381287 
M2170.279541,226.794830 
	C2163.294922,240.876877 2158.475342,255.590302 2156.937744,271.664124 
	C2178.686523,271.664124 2200.093506,271.664124 2221.284912,271.664124 
	C2223.760254,265.439056 2226.190918,259.326569 2228.767578,252.846405 
	C2213.496338,237.930969 2198.078613,222.872681 2182.527100,207.683563 
	C2181.756592,208.691086 2180.652832,209.921753 2179.788818,211.302628 
	C2176.706543,216.229172 2173.705811,221.206711 2170.279541,226.794830 
M2348.349121,246.855759 
	C2342.180420,251.009995 2340.575684,256.043335 2345.046143,262.526703 
	C2346.047119,263.978424 2346.644287,265.901276 2346.842773,267.672699 
	C2347.233154,271.160156 2349.118896,271.776184 2352.266602,271.755066 
	C2371.094971,271.628571 2389.925049,271.697906 2408.754395,271.679993 
	C2410.039795,271.678772 2411.325439,271.501678 2412.918945,271.383545 
	C2410.063721,247.667389 2401.796387,226.518005 2388.255127,208.371307 
	C2374.980225,221.165207 2361.914062,233.758026 2348.349121,246.855759 
M2366.500000,302.757477 
	C2360.200928,302.757477 2353.901611,302.757477 2347.940674,302.757477 
	C2345.189697,308.973114 2342.659668,314.689301 2340.450684,319.680237 
	C2355.871826,335.074371 2371.115234,350.291199 2386.547119,365.696106 
	C2400.556885,347.422546 2409.360107,326.591278 2412.475098,302.756470 
	C2397.033203,302.756470 2382.266602,302.756470 2366.500000,302.757477 
M2246.115479,161.667221 
	C2230.769287,166.377502 2216.838135,173.645569 2204.370361,184.060425 
	C2220.120850,199.572098 2235.402344,214.621918 2250.689209,229.677261 
	C2254.300537,227.981766 2258.070557,225.743607 2262.140869,224.448669 
	C2265.403320,223.410751 2265.981445,221.727127 2265.961426,218.675858 
	C2265.836914,199.687881 2265.903320,180.698685 2265.888672,161.709885 
	C2265.887451,160.267075 2265.745605,158.824371 2265.638184,156.797348 
	C2259.078613,158.378601 2252.959961,159.853577 2246.115479,161.667221 
M2214.924072,395.589050 
	C2230.476074,405.551849 2247.313965,412.030975 2265.993896,414.671417 
	C2265.993896,393.065460 2266.014893,371.803406 2265.915527,350.541901 
	C2265.911621,349.707031 2264.935059,348.487030 2264.109619,348.112152 
	C2260.229980,346.350372 2256.244141,344.821381 2253.554199,343.722961 
	C2237.637695,359.241974 2222.181885,374.311584 2206.466797,389.634247 
	C2209.194336,391.554840 2211.761719,393.362610 2214.924072,395.589050 
z"/>
<path fill="#fffff" opacity="1.000000" stroke="none" 
	d="
M1157.041260,402.932617 
	C1152.033569,409.944611 1144.828003,412.188660 1137.187988,412.884277 
	C1131.098755,413.438690 1124.918945,412.996155 1117.510742,412.996155 
	C1116.407104,394.759125 1117.326294,376.757782 1116.937744,358.188690 
	C1128.139771,358.005707 1139.050293,356.658295 1149.391357,361.267883 
	C1158.321899,365.248779 1164.330933,379.303802 1161.710571,390.269714 
	C1160.700806,394.495392 1158.706909,398.485901 1157.041260,402.932617 
z"/>
<path fill="#fffff" opacity="1.000000" stroke="none" 
	d="
M1142.501953,240.218246 
	C1149.262085,244.230515 1153.621216,256.077515 1151.721313,264.498718 
	C1151.325073,266.255615 1150.969849,268.022797 1150.529175,269.768433 
	C1147.660400,281.133850 1141.945068,283.378601 1131.945679,284.864746 
	C1127.259033,285.561249 1122.382935,284.983978 1117.000000,284.983978 
	C1117.000000,276.905670 1117.000000,269.298706 1117.000000,261.691772 
	C1117.000000,254.050110 1117.000000,246.408447 1117.000000,238.070618 
	C1125.648926,238.373520 1134.032715,236.639435 1142.501953,240.218246 
z"/>
<path fill="#fffff" opacity="1.000000" stroke="none" 
	d="
M1363.064697,408.779327 
	C1357.801636,398.303558 1355.664795,387.226776 1355.255493,376.195312 
	C1354.738892,362.272491 1358.324097,348.821136 1365.311157,336.600128 
	C1366.906128,333.810364 1369.605469,331.457703 1372.242432,329.506348 
	C1375.677002,326.964630 1380.361450,327.989441 1384.247803,331.786133 
	C1391.620239,338.988251 1394.751343,348.294861 1396.994873,358.026917 
	C1400.646362,373.868256 1398.675049,389.506927 1394.743774,404.909119 
	C1393.521362,409.698761 1391.045044,414.621552 1387.829712,418.351471 
	C1381.820190,425.322937 1374.576538,424.156158 1367.439453,415.753967 
	C1365.749512,413.764313 1364.540039,411.366516 1363.064697,408.779327 
z"/>
<path fill="#004C91" opacity="1.000000" stroke="none" 
	d="
M663.030701,282.292572 
	C663.555115,282.169891 664.110229,282.339813 664.832642,282.754852 
	C664.353821,282.861694 663.707581,282.723419 663.030701,282.292572 
z"/>
<path fill="#fffff" opacity="1.000000" stroke="none" 
	d="
M363.861023,344.999268 
	C353.100098,344.999268 342.821594,344.999268 331.952606,344.999268 
	C332.388275,335.497528 333.648254,326.799133 339.789642,319.819733 
	C347.124512,311.483948 359.741730,313.758484 365.102081,324.702820 
	C368.068848,330.760071 369.509644,337.564758 371.956451,344.999268 
	C368.539276,344.999268 366.441345,344.999268 363.861023,344.999268 
z"/>
<path fill="#FFFEFE" opacity="1.000000" stroke="none" 
	d="
M2297.925049,221.805878 
	C2297.327881,220.050583 2296.995117,218.425262 2296.991943,216.799271 
	C2296.955322,198.337280 2296.968750,179.875183 2296.968750,161.413132 
	C2296.968750,159.776505 2296.968750,158.139862 2296.968750,156.239868 
	C2322.873535,158.988464 2345.458740,168.450653 2364.947754,183.971603 
	C2349.618652,199.279617 2334.391113,214.486481 2319.321045,229.536011 
	C2312.872070,227.199600 2305.607422,224.567566 2297.925049,221.805878 
z"/>
<path fill="#FFFDFD" opacity="1.000000" stroke="none" 
	d="
M2334.483398,359.515259 
	C2344.166748,369.381439 2353.601318,378.998627 2363.318848,388.904205 
	C2344.080566,403.857697 2322.337891,412.795715 2297.061523,415.457336 
	C2297.061523,413.528839 2297.061768,411.975067 2297.061768,410.421295 
	C2297.061768,392.104523 2297.167725,373.786652 2296.972656,355.471954 
	C2296.933105,351.775879 2298.031494,350.470947 2301.651367,349.522858 
	C2307.064697,348.105072 2312.189941,345.587402 2318.673584,343.054932 
	C2323.446289,348.027039 2328.840576,353.646667 2334.483398,359.515259 
z"/>
<path fill="#FEFCFC" opacity="1.000000" stroke="none" 
	d="
M2160.009766,320.982117 
	C2158.669189,314.770264 2157.405029,308.957611 2156.045166,302.705048 
	C2157.935059,302.535309 2159.192627,302.325409 2160.449951,302.324005 
	C2179.261963,302.302948 2198.074463,302.395386 2216.885010,302.229431 
	C2220.231201,302.199890 2221.807617,303.072540 2222.906006,306.393036 
	C2224.616455,311.563538 2227.114258,316.473663 2229.235352,321.394257 
	C2214.254395,336.307159 2199.060791,351.432068 2183.482422,366.939636 
	C2172.574951,353.696564 2165.035645,338.225983 2160.009766,320.982117 
z"/>
<path fill="#FFFDFD" opacity="1.000000" stroke="none" 
	d="
M2170.477051,226.479874 
	C2173.705811,221.206711 2176.706543,216.229172 2179.788818,211.302628 
	C2180.652832,209.921753 2181.756592,208.691086 2182.527100,207.683563 
	C2198.078613,222.872681 2213.496338,237.930969 2228.767578,252.846405 
	C2226.190918,259.326569 2223.760254,265.439056 2221.284912,271.664124 
	C2200.093506,271.664124 2178.686523,271.664124 2156.937744,271.664124 
	C2158.475342,255.590302 2163.294922,240.876877 2170.477051,226.479874 
z"/>
<path fill="#FEFBFC" opacity="1.000000" stroke="none" 
	d="
M2348.598389,246.603302 
	C2361.914062,233.758026 2374.980225,221.165207 2388.255127,208.371307 
	C2401.796387,226.518005 2410.063721,247.667389 2412.918945,271.383545 
	C2411.325439,271.501678 2410.039795,271.678772 2408.754395,271.679993 
	C2389.925049,271.697906 2371.094971,271.628571 2352.266602,271.755066 
	C2349.118896,271.776184 2347.233154,271.160156 2346.842773,267.672699 
	C2346.644287,265.901276 2346.047119,263.978424 2345.046143,262.526703 
	C2340.575684,256.043335 2342.180420,251.009995 2348.598389,246.603302 
z"/>
<path fill="#FFFEFE" opacity="1.000000" stroke="none" 
	d="
M2367.000000,302.756958 
	C2382.266602,302.756470 2397.033203,302.756470 2412.475098,302.756470 
	C2409.360107,326.591278 2400.556885,347.422546 2386.547119,365.696106 
	C2371.115234,350.291199 2355.871826,335.074371 2340.450684,319.680237 
	C2342.659668,314.689301 2345.189697,308.973114 2347.940674,302.757477 
	C2353.901611,302.757477 2360.200928,302.757477 2367.000000,302.756958 
z"/>
<path fill="#FEFCFD" opacity="1.000000" stroke="none" 
	d="
M2246.478516,161.497879 
	C2252.959961,159.853577 2259.078613,158.378601 2265.638184,156.797348 
	C2265.745605,158.824371 2265.887451,160.267075 2265.888672,161.709885 
	C2265.903320,180.698685 2265.836914,199.687881 2265.961426,218.675858 
	C2265.981445,221.727127 2265.403320,223.410751 2262.140869,224.448669 
	C2258.070557,225.743607 2254.300537,227.981766 2250.689209,229.677261 
	C2235.402344,214.621918 2220.120850,199.572098 2204.370361,184.060425 
	C2216.838135,173.645569 2230.769287,166.377502 2246.478516,161.497879 
z"/>
<path fill="#FFFDFE" opacity="1.000000" stroke="none" 
	d="
M2214.626465,395.379700 
	C2211.761719,393.362610 2209.194336,391.554840 2206.466797,389.634247 
	C2222.181885,374.311584 2237.637695,359.241974 2253.554199,343.722961 
	C2256.244141,344.821381 2260.229980,346.350372 2264.109619,348.112152 
	C2264.935059,348.487030 2265.911621,349.707031 2265.915527,350.541901 
	C2266.014893,371.803406 2265.993896,393.065460 2265.993896,414.671417 
	C2247.313965,412.030975 2230.476074,405.551849 2214.626465,395.379700 
z"/>
</svg>