<svg width="1600" height="431" viewBox="0 0 1600 431" fill="none" xmlns="http://www.w3.org/2000/svg">
<g clip-path="url(#clip0_10_194)">
<rect width="1600" height="430.667" fill="white"/>
<path d="M107.333 108L-0.666748 216L106.933 323.6C166.133 382.8 214.933 430.933 215.333 430.533C215.733 430.133 215.867 333.066 215.733 214.933L215.333 -0.000183105L107.333 108Z" fill="#DB0011"/>
<path d="M238.667 22.2665C250.8 34.6665 299.067 83.1998 346 130.4L431.333 216L324 323.333L216.667 430.667H431.333H646L538.667 323.333L431.333 216L458.667 188.4C473.733 173.066 522 124.533 566 80.2665L646 -0.000183105H431.333H216.667L238.667 22.2665Z" fill="#DB0011"/>
<path d="M646.667 215.066C646.667 333.6 647.067 430.667 647.733 430.667C648.533 430.667 690.267 388.933 816.267 262L862.667 215.333L754.667 107.333L646.667 -0.66684V215.066Z" fill="#DB0011"/>
<path d="M1169.73 122.533C1144.53 126.666 1128 136.933 1120 153.733C1110.67 173.066 1114.67 195.733 1129.6 208.666C1139.73 217.333 1147.87 220.8 1189.33 233.333C1197.07 235.6 1205.6 238.933 1208.27 240.8C1221.73 249.466 1219.47 266.8 1203.73 275.333C1194.67 280.266 1179.07 281.6 1170 278.133C1160 274.266 1152 262.933 1152 252.266C1152 249.333 1151.87 249.333 1131.87 249.333H1111.6L1112.4 258.933C1113.47 271.333 1120.27 285.6 1128.4 292.8C1140.93 303.733 1159.2 309.333 1182.93 309.333C1213.2 309.333 1236.8 300.133 1249.6 283.333C1256.67 274 1259.2 265.6 1259.2 251.866C1259.2 241.6 1258.8 239.466 1254.8 231.466C1247.47 216.533 1237.33 210.666 1198 198C1162 186.533 1156.53 182.933 1156.8 171.2C1157.07 159.333 1166.93 150.933 1182.13 149.6C1197.33 148.4 1208.93 155.733 1212.13 168.666L1213.6 174.666H1233.73H1253.73L1252.8 166.533C1250.67 145.333 1237.6 130.8 1215.33 124.666C1206.13 122.266 1179.87 120.933 1169.73 122.533Z" fill="black"/>
<path d="M1504 123.466C1481.47 128.266 1461.73 143.733 1452 164.133C1445.33 178.266 1442.8 188 1441.47 204C1438.13 247.6 1450.4 280.933 1476.13 297.466C1498.27 311.6 1541.87 313.466 1567.47 301.333C1577.47 296.533 1586.93 288.266 1591.47 280.533C1595.33 273.866 1600 260.133 1600 255.2V252H1579.33H1558.8L1557.47 256.933C1555.33 264.933 1550.27 271.066 1542.53 275.2C1536.67 278.533 1534 279.066 1525.87 279.066C1498.4 279.066 1482.27 256 1482.4 216.666C1482.53 193.2 1487.87 176.533 1499.07 164.4C1507.6 155.066 1513.2 152.666 1526.67 152.666C1535.2 152.666 1539.33 153.333 1543.2 155.2C1549.47 158.4 1555.73 166.8 1556.8 173.6L1557.73 178.666H1578.8H1600V175.6C1600 170.133 1596 156.8 1592.4 150.8C1584.53 137.466 1569.07 127.466 1550 123.333C1538.4 120.933 1515.47 120.933 1504 123.466Z" fill="black"/>
<path d="M933.333 215.333V306.666H953.333H973.333V268V229.333H1011.33H1049.33V268V306.8L1069.73 306.4L1090 306V215.333V124.666L1069.73 124.266L1049.33 123.866V161.333V198.666H1011.33H973.333V161.333V124H953.333H933.333V215.333Z" fill="black"/>
<path d="M1280 216.133V306.933L1325.73 306.266C1376.13 305.6 1383.33 304.666 1398.53 297.2C1416.13 288.533 1424.27 275.2 1424.27 255.2C1424.27 233.866 1413.2 219.866 1390.93 213.2L1385.2 211.6L1391.47 209.2C1403.47 204.533 1411.87 196.666 1416.13 186C1416.93 183.733 1417.6 177.2 1417.73 171.2C1417.73 162.533 1417.07 159.066 1414.4 153.2C1410.4 144.4 1403.07 136.933 1394.13 132.4C1382 126.266 1373.6 125.333 1325.07 125.333H1280V216.133ZM1360.8 155.333C1370.27 158.133 1376.13 164.533 1377.07 173.2C1377.87 181.733 1376.8 185.466 1372.53 190.666C1366.67 197.466 1361.47 198.933 1339.73 199.733L1320 200.266V176.8V153.333H1337.07C1348.27 153.333 1356.53 154 1360.8 155.333ZM1370.53 230.666C1378.8 235.333 1381.87 240.933 1381.87 251.866C1382 262.666 1378.4 269.333 1370.4 273.466C1364.4 276.533 1348.67 278.666 1331.07 278.666H1318.67V252.533V226.4L1341.73 226.933C1363.33 227.333 1365.07 227.6 1370.53 230.666Z" fill="black"/>
</g>
<defs>
<clipPath id="clip0_10_194">
<rect width="1600" height="430.667" fill="white"/>
</clipPath>
</defs>
</svg>
