<?xml version="1.0" encoding="utf-8"?>
<!-- Generator: Adobe Illustrator 16.0.0, SVG Export Plug-In . SVG Version: 6.00 Build 0)  -->
<!DOCTYPE svg PUBLIC "-//W3C//DTD SVG 1.1//EN" "http://www.w3.org/Graphics/SVG/1.1/DTD/svg11.dtd">
<svg version="1.1" id="图层_1" xmlns="http://www.w3.org/2000/svg" xmlns:xlink="http://www.w3.org/1999/xlink" x="0px" y="0px"
	 width="800px" height="343.037px" viewBox="-94.008 -77.506 800 343.037" enable-background="new -94.008 -77.506 800 343.037"
	 xml:space="preserve">
<path d="M-16.243,209.324c-0.061,21.504-10.032,32.342-22.968,32.3c-15.266-0.054-22.914-11.124-22.844-32.851
	c0.046-21.704,11.644-31.038,23.417-31.007C-23.186,177.823-16.195,188.914-16.243,209.324 M10.901,207.941
	c0.099-36.351-18.589-53.026-47.651-53.112c-31.077-0.096-52.368,23.646-52.466,56.633c-0.094,37.67,18.617,53.271,47.651,53.352
	C-10.866,264.916,10.807,241.117,10.901,207.941 M83.697,208.061c-0.046,18.02-8.316,34.574-22.074,34.543
	c-11.913-0.054-17.468-10.245-17.417-30.015c0.065-26.108,10.812-35.837,25.818-35.794c4.559,0,9.069,0.65,13.753,1.783
	L83.697,208.061z M86.479,263.104l23.482,0.071l0.399-155.301l-26.409-0.091l-0.125,48.24c-4.465-0.662-8.56-0.861-12.925-0.861
	c-33.894-0.104-54.115,24.442-54.212,60.149c-0.077,30.148,12.142,49.726,37.081,49.79c15.613,0.055,26.954-8.193,32.328-19.88
	l0.432,0.02L86.479,263.104z M183.497,196.46l-37.626-0.098c1.44-12.749,9.101-21.032,20.01-21
	C176.952,175.396,183.944,183.276,183.497,196.46 M208.737,215.032c0.623-4.478,0.862-8.744,0.877-12.338
	c0.063-26.152-13.033-47.161-42.85-47.249c-30.667-0.098-47.99,23.609-48.089,55.897c-0.092,37.133,17.968,54.014,50.437,54.111
	c12.782,0.037,25.74-2.304,36.596-6.689l-2.381-21.066c-8.832,4.234-19.738,6.538-29.803,6.51
	c-18.938-0.06-28.374-9.639-28.088-29.37L208.737,215.032z M275.707,219.455c-0.03,12.761-8.907,25.452-21.882,25.424
	c-7.595-0.044-12.073-4.516-12.058-11.3c0.016-8.506,6.204-16.771,33.939-16.683V219.455z M278.715,263.669l23.26,0.064
	c0-2.136-0.018-20.804-0.018-20.804l0.139-50.395c0.051-23.114-9.146-36.721-42.034-36.818c-13.151-0.031-26.332,2.635-36.631,6.425
	l2.208,22.753c8.636-5.063,21.019-8.23,30.229-8.214c14.8,0.055,19.933,5.821,19.901,16.881l-0.016,5.706
	c-34.727-0.107-59.044,13.217-59.107,38.484c-0.047,16.982,10.639,27.879,29.081,27.933c15.278,0.05,27.816-8.185,32.789-20.106
	h0.241L278.715,263.669z M383.359,208.539c-0.062,26.109-10.781,35.879-25.78,35.822c-5.54-0.011-9.852-0.683-13.601-1.957
	l0.083-29.745c0.045-17.635,8.314-33.945,21.881-33.914C377.906,178.8,383.409,188.773,383.359,208.539 M411.143,205.823
	c0.103-31.206-13.034-49.677-37.5-49.768c-13.207-0.032-23.795,5.985-29.47,15.774l0.041-17.598l0.084-32.407l0.03-13.262
	l-26.396-0.082l-0.4,152.31c11.694,3.415,23.309,5.176,38.103,5.226C390.83,266.13,411.069,241.507,411.143,205.823
	 M474.442,220.074c-0.033,12.739-8.905,25.434-21.848,25.402c-7.614-0.031-12.145-4.493-12.126-11.299
	c0.014-8.483,6.236-16.771,33.974-16.684V220.074z M477.403,264.265l23.288,0.072c0-2.142-0.052-20.813-0.052-20.813l0.142-50.393
	c0.052-23.113-9.095-36.71-41.995-36.811c-13.138-0.038-26.351,2.63-36.684,6.424l2.241,22.751
	c8.669-5.072,20.98-8.234,30.251-8.201c14.81,0.032,19.943,5.813,19.909,16.859l-0.014,5.707
	c-34.729-0.103-59.072,13.219-59.14,38.49c-0.044,16.977,10.609,27.874,29.108,27.924c15.229,0.059,27.819-8.177,32.795-20.092h0.19
	L477.403,264.265z M575.883,264.573l26.424,0.069l0.19-74.155c0.052-18.453-7.599-33.761-30.624-33.826
	c-16.642-0.054-28.611,8.576-34.827,21.109l-0.191-0.24l0.046-18.907l-23.351-0.056l-0.149,105.816l26.383,0.066l0.127-50.988
	c0.046-18.47,10.288-34.15,23.639-34.12c9.664,0.032,12.541,6.615,12.511,17.64L575.883,264.573z M667.49,207.48l36.23-48.349
	l-32.038-0.097l-30.12,44.149l0.234-93.704l-26.34-0.087l-0.403,155.295l26.345,0.077l0.133-52.291l31.539,52.388l32.922,0.107
	L667.49,207.48z"/>
<path d="M310.003-3.342c-0.142-18.672,6.75-36.287,19.339-49.592c4.238-4.476,8.974-8.265,14.051-11.396
	c-10.152-6.011-21.827-9.465-34.334-9.375c-12.028,0.081-23.308,3.396-33.095,9.136c0.339,0.187,0.592,0.344,0.896,0.509
	l-29.445,32.103c-3.763,8.831-5.811,18.549-5.774,28.804c0.016,4.079,0.448,8.093,1.117,12.012l51.716-56.447
	c5.213,6.938,9.195,14.841,11.694,23.473L252.512,34.36c4.354,6.956,9.874,13.036,16.237,17.993l38.868-42.421
	c-3.85,19.955-15.815,36.865-32.261,46.944c10.172,6.118,21.981,9.615,34.631,9.552c12.289-0.087,23.837-3.574,33.734-9.604
	C323.706,44.779,310.18,22.348,310.003-3.342"/>
<path d="M336.812-3.513c0.143,18.741,12.03,34.594,28.218,40.043c7.84-11.536,12.399-25.524,12.305-40.625
	c-0.086-14.91-4.705-28.665-12.464-39.974c-6.11,2.065-11.67,5.619-16.348,10.52C340.906-25.518,336.784-14.877,336.812-3.513"/>
<path d="M377.206-73.827h-0.341c-11.953,0.1-23.399,3.396-33.476,9.498c8.508,5.091,15.817,12.013,21.479,20.262
	c3.888-1.283,7.981-2.014,12.218-2.049h0.192c22.218-0.033,40.375,18.807,40.52,42.043c0.192,23.347-17.838,42.432-40.149,42.619
	h-0.189c-4.336,0-8.497-0.706-12.427-2.014c-5.584,8.232-12.831,15.18-21.311,20.295c9.953,6.012,21.466,9.455,33.789,9.441
	l0.284-0.028c37.176-0.244,67.133-31.881,66.863-70.504C444.415-42.686,414.155-73.916,377.206-73.827"/>
<path d="M275.964-64.567c-6.735-4.258-14.205-7.383-22.203-9.058l-80.246,87.519c2.189,8.489,5.821,16.333,10.619,23.248
	l63.282-69.097C253.345-45.71,263.407-57.168,275.964-64.567"/>
<path d="M201.057,54.311c7.008,4.968,14.894,8.628,23.432,10.667l28.024-30.615c-4.766-7.604-8.155-16.265-9.755-25.508
	L201.057,54.311z"/>
<path d="M173.449-21.604l45.857-50.086C196.785-64.345,179.316-45.398,173.449-21.604"/>
<path d="M257.522,64.614c6.354-1.727,12.35-4.339,17.835-7.738c-2.301-1.362-4.526-2.87-6.601-4.529L257.522,64.614z"/>
</svg>
